<?xml version="1.0" encoding="UTF-8" standalone="no"?>
<!-- Created with Inkscape (http://www.inkscape.org/) -->

<svg
   width="310mm"
   height="100mm"
   viewBox="0 0 310 100"
   version="1.1"
   id="svg1"
   inkscape:version="1.3.2 (091e20e, 2023-11-25, custom)"
   sodipodi:docname="Mindgraph website logo with white background and subtitle - text as path.svg"
   xml:space="preserve"
   inkscape:export-filename="Mindgraph website logo with white background and subtitle.png"
   inkscape:export-xdpi="40.967743"
   inkscape:export-ydpi="40.967743"
   xmlns:inkscape="http://www.inkscape.org/namespaces/inkscape"
   xmlns:sodipodi="http://sodipodi.sourceforge.net/DTD/sodipodi-0.dtd"
   xmlns="http://www.w3.org/2000/svg"
   xmlns:svg="http://www.w3.org/2000/svg"><sodipodi:namedview
     id="namedview1"
     pagecolor="#505050"
     bordercolor="#ffffff"
     borderopacity="1"
     inkscape:showpageshadow="0"
     inkscape:pageopacity="0"
     inkscape:pagecheckerboard="1"
     inkscape:deskcolor="#505050"
     inkscape:document-units="mm"
     inkscape:zoom="0.43829967"
     inkscape:cx="473.42039"
     inkscape:cy="296.60073"
     inkscape:window-width="1280"
     inkscape:window-height="730"
     inkscape:window-x="-6"
     inkscape:window-y="-6"
     inkscape:window-maximized="1"
     inkscape:current-layer="layer3" /><defs
     id="defs1"><rect
       x="402.69254"
       y="58.179375"
       width="790.16534"
       height="45.967354"
       id="rect2" /><rect
       x="402.69254"
       y="58.179375"
       width="790.16534"
       height="45.967354"
       id="rect2-8" /></defs><g
     inkscape:groupmode="layer"
     id="layer4"
     inkscape:label="bottom background"
     style="mix-blend-mode:normal;fill:#ffffff;fill-opacity:1"><rect
       style="fill:#ffffff;fill-opacity:1;stroke-width:0.264583"
       id="rect4"
       width="310"
       height="100"
       x="0"
       y="0" /></g><g
     inkscape:label="Background"
     inkscape:groupmode="layer"
     id="layer1"
     style="mix-blend-mode:normal"><g
       id="g1"
       transform="matrix(0.86046511,0,0,0.86046511,5.2293755,7.1472667)"><circle
         style="opacity:1;fill:#1ea2b5;fill-opacity:1;stroke:none;stroke-width:0.264583;stroke-opacity:1"
         id="path1"
         cx="48.292683"
         cy="49.801826"
         r="35.314022" /><rect
         style="opacity:1;fill:#1ea2b5;fill-opacity:1;stroke:none;stroke-width:0.264583;stroke-opacity:1"
         id="rect1"
         width="12.978658"
         height="90.850609"
         x="41.803352"
         y="4.3765211" /></g><rect
       style="fill:#1ea2b5;fill-opacity:1;stroke:none;stroke-width:0.227664;stroke-opacity:1"
       id="rect1-9"
       width="11.167683"
       height="78.173782"
       x="-55.583839"
       y="7.6966529"
       transform="rotate(-90)" /></g><g
     inkscape:groupmode="layer"
     id="layer2"
     inkscape:label="Brain icon"><g
       style="fill:#ffffff;fill-opacity:1"
       id="g2"
       transform="matrix(2.6037601,0,0,2.6037601,20.745943,23.962399)"><path
         d="M 6.13053,2.79282 C 6.78561,2.28331 7.64507,2 8.5,2 8.74064,2 8.9312,2.12486 9.04164,2.21146 9.16633,2.30922 9.28272,2.43395 9.38565,2.55868 9.45957,2.64826 9.5,2.76078 9.5,2.87692 V 6.5 H 8.41465 C 8.20873,5.9174 7.65311,5.5 7,5.5 6.17157,5.5 5.5,6.17157 5.5,7 5.5,7.82843 6.17157,8.5 7,8.5 7.65311,8.5 8.20873,8.0826 8.41465,7.5 H 9.5 v 9.4152 c 0,0.15 -0.06734,0.292 -0.18345,0.387 C 8.85465,17.68 8.23639,18 7.5,18 6.31413,18 5.43097,17.4016 4.85957,16.6873 4.42092,16.139 4.14123,15.4928 4.04126,14.9347 3.71454,14.8495 3.33214,14.6754 2.9871,14.3796 2.43532,13.9067 2,13.1413 2,12 2,11.4433 2.03699,10.9403 2.11915,10.5 H 5.25 c 0.63581,0 1.16075,0.4747 1.23973,1.089 C 5.91251,11.7978 5.5,12.3507 5.5,13 5.5,13.8284 6.17157,14.5 7,14.5 7.82843,14.5 8.5,13.8284 8.5,13 8.5,12.3446 8.07969,11.7874 7.49391,11.5832 7.40857,10.4185 6.43654,9.5 5.25,9.5 H 2.44117 C 2.59442,9.20217 2.7989,8.94981 3.0664,8.77147 3.13479,8.72588 3.20555,8.68631 3.27837,8.65255 2.99364,7.82134 3.06843,6.8468 3.34163,6.08183 3.51741,5.58965 3.79482,5.12486 4.17729,4.81475 4.42931,4.6104 4.72888,4.47422 5.05692,4.44859 5.20085,3.76595 5.60552,3.20116 6.13053,2.79282 Z M 10.5,14.5 h 0.75 c 1.2426,0 2.25,-1.0074 2.25,-2.25 v -1.8354 c 0.5826,-0.2059 1,-0.76149 1,-1.4146 0,-0.82843 -0.6716,-1.5 -1.5,-1.5 -0.8284,0 -1.5,0.67157 -1.5,1.5 0,0.65311 0.4174,1.2087 1,1.4146 V 12.25 c 0,0.6904 -0.5596,1.25 -1.25,1.25 H 10.5 V 2.87692 c 0,-0.11614 0.0404,-0.22866 0.1144,-0.31824 0.1029,-0.12473 0.2193,-0.24946 0.344,-0.34722 C 11.0688,2.12486 11.2594,2 11.5,2 c 0.8549,0 1.7144,0.28331 2.3695,0.79282 0.525,0.40834 0.9296,0.97313 1.0736,1.65577 0.328,0.02563 0.6276,0.16181 0.8796,0.36616 0.3825,0.31011 0.6599,0.7749 0.8357,1.26708 0.2732,0.76497 0.348,1.73951 0.0632,2.57072 0.0729,0.03376 0.1436,0.07333 0.212,0.11892 0.2754,0.18358 0.484,0.44561 0.6386,0.75492 C 17.8745,10.1309 18,10.9745 18,12 c 0,1.1413 -0.4353,1.9067 -0.9871,2.3796 -0.345,0.2958 -0.7274,0.4699 -1.0542,0.5551 -0.0999,0.5581 -0.3796,1.2043 -0.8183,1.7526 C 14.569,17.4016 13.6859,18 12.5,18 11.7636,18 11.1453,17.68 10.6835,17.3022 10.5673,17.2072 10.5,17.0652 10.5,16.9152 Z M 7,6.5 C 6.72386,6.5 6.5,6.72386 6.5,7 6.5,7.27614 6.72386,7.5 7,7.5 7.27614,7.5 7.5,7.27614 7.5,7 7.5,6.72386 7.27614,6.5 7,6.5 Z m 0,6 c -0.27614,0 -0.5,0.2239 -0.5,0.5 0,0.2761 0.22386,0.5 0.5,0.5 0.27614,0 0.5,-0.2239 0.5,-0.5 0,-0.2761 -0.22386,-0.5 -0.5,-0.5 z m 6,-3 c 0.2761,0 0.5,-0.22386 0.5,-0.5 0,-0.27614 -0.2239,-0.5 -0.5,-0.5 -0.2761,0 -0.5,0.22386 -0.5,0.5 0,0.27614 0.2239,0.5 0.5,0.5 z"
         fill="#212121"
         id="path1-5"
         style="fill:#ffffff;fill-opacity:1" /></g></g><g
     inkscape:groupmode="layer"
     id="layer3"
     inkscape:label="Text"><path
       style="font-stretch:condensed;font-size:136.403px;line-height:0;font-family:Impact;-inkscape-font-specification:'Impact Condensed';white-space:pre"
       d="M 494.80535,1.6481336 V 109.47843 H 470.29543 V 36.681326 l -9.79064,72.797104 H 443.1214 L 432.79793,38.346402 V 109.47843 H 408.28801 V 1.6481336 h 36.29865 q 1.59848,9.7240424 3.39676,22.9114414 l 3.86297,27.440447 6.39389,-50.3518884 z m 39.29578,0 V 109.47843 H 506.06126 V 1.6481336 Z m 73.86276,0 V 109.47843 H 583.38737 L 568.80131,60.458607 V 109.47843 H 545.35704 V 1.6481336 h 23.44427 L 584.51962,50.20174 V 1.6481336 Z m 11.25592,0 h 20.97995 q 20.31392,0 27.44045,1.8648847 7.19312,1.8648848 10.92289,6.1274785 3.72977,4.2625942 4.66222,9.5242332 0.93244,5.195036 0.93244,20.513732 v 37.763917 q 0,14.51946 -1.39867,19.448084 -1.33206,4.862017 -4.72881,7.659347 -3.39675,2.73072 -8.39198,3.86298 -4.99523,1.06564 -15.05229,1.06564 h -35.3662 z m 28.03987,18.4490384 v 70.932224 q 6.06088,0 7.45954,-2.397709 1.39866,-2.464312 1.39866,-13.254002 V 33.484381 q 0,-7.326333 -0.46622,-9.391027 -0.46622,-2.064694 -2.13129,-2.997136 -1.66508,-0.999046 -6.26069,-0.999046 z m 111.69327,21.246366 h -28.03987 v -9.790645 q 0,-9.257821 -0.79924,-11.588927 -0.79923,-2.331106 -3.79637,-2.331106 -2.59752,0 -3.52996,1.998091 -0.93244,1.998091 -0.93244,10.256866 v 51.750552 q 0,7.25973 0.93244,9.590836 0.93244,2.264503 3.72977,2.264503 3.06374,0 4.12939,-2.597518 1.13225,-2.597518 1.13225,-10.12366 V 67.984749 h -5.66126 V 51.600404 h 32.83529 v 57.878026 h -17.6498 l -2.59752,-7.72595 q -2.86393,4.99523 -7.25973,7.52615 -4.32919,2.46431 -10.25686,2.46431 -7.05992,0 -13.254,-3.39676 -6.12748,-3.46335 -9.32443,-8.525184 -3.19694,-5.06183 -3.99618,-10.589882 -0.79924,-5.594654 -0.79924,-16.717359 V 40.477698 q 0,-15.451902 1.66508,-22.44522 1.66507,-6.993318 9.52423,-12.787781 7.92576,-5.86106635 20.44713,-5.86106635 12.32156,0 20.44713,5.06183005 8.12557,5.0618301 10.58988,12.0551483 2.46431,6.926714 2.46431,20.180717 z m 10.8563,-39.6954044 h 19.84771 q 19.8477,0 26.84102,1.5318696 7.05992,1.5318696 11.45572,7.8591568 4.4624,6.260685 4.4624,20.047512 0,12.587972 -3.13034,16.917169 -3.13035,4.329196 -12.32156,5.195036 8.32538,2.064694 11.18931,5.528051 2.86393,3.463357 3.52996,6.393891 0.73263,2.86393 0.73263,15.918123 V 109.47843 H 806.37432 V 73.646006 q 0,-8.658393 -1.39867,-10.723087 -1.33206,-2.064694 -7.12652,-2.064694 v 48.620205 h -28.03988 z m 28.03988,18.4490384 v 23.97709 q 4.72881,0 6.5937,-1.265458 1.93149,-1.33206 1.93149,-8.458584 v -5.927669 q 0,-5.128434 -1.86489,-6.726906 -1.79828,-1.598473 -6.6603,-1.598473 z M 891.69279,1.6481336 907.74412,109.47843 h -28.70591 l -1.39866,-19.381476 h -10.05706 l -1.66507,19.381476 H 836.8785 L 851.13155,1.6481336 Z M 876.84031,70.981885 q -2.13129,-18.315833 -4.26259,-45.223456 -4.26259,30.903805 -5.32824,45.223456 z M 912.53954,1.6481336 h 28.23968 q 11.45572,0 17.5832,1.7982817 6.19408,1.7982817 9.25782,5.1950361 3.13035,3.3967546 4.19599,8.2587756 1.13226,4.795418 1.13226,14.919078 v 9.391027 q 0,10.323469 -2.1313,15.052284 -2.1313,4.728815 -7.85916,7.25973 -5.66126,2.530915 -14.85247,2.530915 h -7.52615 v 43.425169 h -28.03987 z m 28.03987,18.4490384 v 27.440447 q 1.19886,0.0666 2.0647,0.0666 3.86297,0 5.32824,-1.864884 1.53187,-1.931488 1.53187,-7.925761 v -8.858202 q 0,-5.528052 -1.73168,-7.193127 -1.73168,-1.665076 -7.19313,-1.665076 z M 1045.4792,1.6481336 V 109.47843 h -28.0399 V 64.188376 h -8.392 V 109.47843 H 981.00744 V 1.6481336 h 28.03986 V 40.211286 h 8.392 V 1.6481336 Z"
       id="text2"
       transform="matrix(0.31035382,0,0,0.31035382,-26.179566,21.921478)"
       aria-label="MINDGRAPH" /><path
       style="font-size:63.6549px;line-height:0;font-family:Impact;-inkscape-font-specification:Impact;white-space:pre;fill:#999999"
       d="m 405.3042,31.798227 h 22.16111 v 10.070404 h -9.0758 v 9.542018 h 8.08119 v 9.573101 h -8.08119 V 82.119165 H 405.3042 Z m 37.51537,9.075796 -0.49731,5.40818 q 2.73518,-5.812239 7.92578,-6.154136 v 14.515058 q -3.45004,0 -5.06628,0.932445 -1.61624,0.932444 -1.98921,2.610845 -0.37298,1.647319 -0.37298,7.646048 V 82.119165 H 430.26264 V 40.874023 Z m 38.63429,14.483976 v 10.101486 q 0,5.563587 -0.55946,8.174433 -0.55947,2.579764 -2.39328,4.848713 -1.83381,2.237867 -4.72439,3.325719 -2.85949,1.056771 -6.58927,1.056771 -4.16492,0 -7.0555,-0.901363 -2.89058,-0.932445 -4.50682,-2.766253 -1.58515,-1.86489 -2.26895,-4.475735 -0.68379,-2.641927 -0.68379,-7.8947 V 56.259362 q 0,-5.750076 1.24326,-8.982551 1.24326,-3.232476 4.47573,-5.19061 3.23248,-1.958134 8.26768,-1.958134 4.22709,0 7.24199,1.274341 3.04599,1.24326 4.69331,3.263557 1.64732,2.020297 2.23786,4.16492 0.62163,2.144624 0.62163,6.527114 z M 468.89694,52.24985 q 0,-3.170313 -0.3419,-3.978431 -0.34189,-0.839201 -1.46083,-0.839201 -1.11893,0 -1.49191,0.839201 -0.37298,0.808118 -0.37298,3.978431 v 18.617815 q 0,2.92166 0.37298,3.823023 0.37298,0.870282 1.46083,0.870282 1.11894,0 1.46083,-0.808119 0.37298,-0.808118 0.37298,-3.481127 z m 29.09228,-11.375827 -0.21757,3.916268 q 1.46083,-2.331112 3.48113,-3.481127 2.0203,-1.181097 4.60006,-1.181097 5.0352,0 7.92578,4.662224 1.58516,-2.331112 3.57437,-3.481127 1.98922,-1.181097 4.41357,-1.181097 3.2014,0 5.28386,1.554075 2.11354,1.554075 2.70409,3.823024 0.59055,2.237867 0.59055,7.304151 V 82.119165 H 518.16111 V 55.233673 q 0,-5.283854 -0.37298,-6.527114 -0.34189,-1.274341 -1.64732,-1.274341 -1.3365,0 -1.74056,1.24326 -0.37298,1.24326 -0.37298,6.558195 V 82.119165 H 501.84333 V 55.917466 q 0,-6.060891 -0.31082,-7.27307 -0.27973,-1.212178 -1.61624,-1.212178 -0.8392,0 -1.42974,0.652712 -0.59055,0.621629 -0.65272,1.554074 -0.0622,0.901364 -0.0622,3.885187 V 82.119165 H 485.58771 V 40.874023 Z m 76.46047,-9.075796 v 50.320938 h -12.55692 v -2.983823 q -1.80273,1.86489 -3.79194,2.797334 -1.98922,0.932445 -4.16492,0.932445 -2.92166,0 -5.06629,-1.522993 -2.14462,-1.554075 -2.76625,-3.574372 -0.59055,-2.020297 -0.59055,-6.589276 V 51.876872 q 0,-4.755469 0.59055,-6.744684 0.62163,-1.989216 2.79734,-3.481128 2.1757,-1.522993 5.19061,-1.522993 2.33111,0 4.25816,0.8392 1.95813,0.839201 3.54329,2.517601 V 31.798227 Z m -12.55692,19.457015 q 0,-2.268949 -0.40406,-3.045986 -0.37298,-0.777038 -1.52299,-0.777038 -1.11894,0 -1.52299,0.714875 -0.37298,0.683792 -0.37298,3.108149 v 20.202971 q 0,2.517601 0.37298,3.32572 0.37297,0.777037 1.42974,0.777037 1.21218,0 1.61624,-0.870282 0.40406,-0.901363 0.40406,-4.351409 z m 28.28416,5.594669 h -11.77989 v -2.766253 q 0,-4.78655 1.08786,-7.366314 1.11893,-2.610846 4.44465,-4.600061 3.32572,-1.989216 8.64066,-1.989216 6.3717,0 9.60418,2.268949 3.23247,2.237868 3.88518,5.532506 0.65271,3.263557 0.65271,13.489368 v 20.700275 h -12.21502 v -3.667616 q -1.15002,2.206786 -2.98383,3.32572 -1.80272,1.087852 -4.32032,1.087852 -3.29464,0 -6.06089,-1.833808 -2.73518,-1.864889 -2.73518,-8.11227 V 69.53116 q 0,-4.631142 1.46083,-6.309543 1.46083,-1.678401 7.24199,-3.916268 6.18522,-2.424357 6.62036,-3.263557 0.43514,-0.8392 0.43514,-3.418964 0,-3.232476 -0.4973,-4.196002 -0.46623,-0.994608 -1.58516,-0.994608 -1.27434,0 -1.58515,0.839201 -0.31082,0.808118 -0.31082,4.258164 z m 3.97843,5.656832 q -3.0149,2.206786 -3.51221,3.698698 -0.46622,1.491911 -0.46622,4.289246 0,3.201394 0.40406,4.133838 0.43514,0.932445 1.6784,0.932445 1.1811,0 1.52299,-0.714874 0.37298,-0.745956 0.37298,-3.854105 z m 30.11796,-27.134144 v 6.496032 h 3.38789 v 6.527114 h -3.38789 v 22.06786 q 0,4.071676 0.40406,4.537898 0.43514,0.466223 3.51221,0.466223 v 6.651439 h -5.06628 q -4.28925,0 -6.12306,-0.341896 -1.8338,-0.372978 -3.23247,-1.647319 -1.39867,-1.305423 -1.74057,-2.952742 -0.34189,-1.678401 -0.34189,-7.832537 V 48.395745 h -2.70409 v -6.527114 h 2.70409 v -6.496032 z m 17.37457,21.477312 h -11.77988 v -2.766253 q 0,-4.78655 1.08785,-7.366314 1.11893,-2.610846 4.44465,-4.600061 3.32572,-1.989216 8.64066,-1.989216 6.3717,0 9.60418,2.268949 3.23247,2.237868 3.88519,5.532506 0.65271,3.263557 0.65271,13.489368 v 20.700275 h -12.21503 v -3.667616 q -1.15002,2.206786 -2.98382,3.32572 -1.80273,1.087852 -4.32033,1.087852 -3.29464,0 -6.06089,-1.833808 -2.73517,-1.864889 -2.73517,-8.11227 V 69.53116 q 0,-4.631142 1.46083,-6.309543 1.46083,-1.678401 7.24198,-3.916268 6.18522,-2.424357 6.62036,-3.263557 0.43514,-0.8392 0.43514,-3.418964 0,-3.232476 -0.4973,-4.196002 -0.46622,-0.994608 -1.58516,-0.994608 -1.27434,0 -1.58515,0.839201 -0.31082,0.808118 -0.31082,4.258164 z m 3.97843,5.656832 q -3.0149,2.206786 -3.51221,3.698698 -0.46622,1.491911 -0.46622,4.289246 0,3.201394 0.40406,4.133838 0.43514,0.932445 1.6784,0.932445 1.1811,0 1.523,-0.714874 0.37297,-0.745956 0.37297,-3.854105 z M 686.9647,35.372599 v 6.496032 h 3.38788 v 6.527114 h -3.38788 v 22.06786 q 0,4.071676 0.40406,4.537898 0.43514,0.466223 3.51221,0.466223 v 6.651439 h -5.06629 q -4.28924,0 -6.12305,-0.341896 -1.83381,-0.372978 -3.23248,-1.647319 -1.39866,-1.305423 -1.74056,-2.952742 -0.3419,-1.678401 -0.3419,-7.832537 V 48.395745 h -2.70409 v -6.527114 h 2.70409 v -6.496032 z m 34.56263,19.9854 v 10.101486 q 0,5.563587 -0.55946,8.174433 -0.55947,2.579764 -2.39328,4.848713 -1.83381,2.237867 -4.72438,3.325719 -2.8595,1.056771 -6.58928,1.056771 -4.16492,0 -7.0555,-0.901363 -2.89058,-0.932445 -4.50682,-2.766253 -1.58515,-1.86489 -2.26895,-4.475735 -0.68379,-2.641927 -0.68379,-7.8947 V 56.259362 q 0,-5.750076 1.24326,-8.982551 1.24326,-3.232476 4.47574,-5.19061 3.23247,-1.958134 8.26767,-1.958134 4.22709,0 7.24199,1.274341 3.04599,1.24326 4.69331,3.263557 1.64732,2.020297 2.23786,4.16492 0.62163,2.144624 0.62163,6.527114 z M 708.97041,52.24985 q 0,-3.170313 -0.3419,-3.978431 -0.34189,-0.839201 -1.46083,-0.839201 -1.11893,0 -1.49191,0.839201 -0.37298,0.808118 -0.37298,3.978431 v 18.617815 q 0,2.92166 0.37298,3.823023 0.37298,0.870282 1.46083,0.870282 1.11894,0 1.46083,-0.808119 0.37298,-0.808118 0.37298,-3.481127 z m 40.84107,-20.451623 v 6.558195 h -12.92991 v -6.558195 z m 0,9.075796 V 82.119165 H 736.88157 V 40.874023 Z m 17.28133,0 -0.21757,3.791942 q 1.36758,-2.268949 3.32572,-3.387883 1.98921,-1.150015 4.56897,-1.150015 3.23248,0 5.28386,1.522993 2.05138,1.522994 2.64193,3.854106 0.59054,2.30003 0.59054,7.70821 V 82.119165 H 770.72934 V 53.555272 q 0,-4.258164 -0.27973,-5.190609 -0.27974,-0.932445 -1.55408,-0.932445 -1.3365,0 -1.6784,1.087852 -0.34189,1.056771 -0.34189,5.718995 v 27.8801 H 754.31831 V 40.874023 Z m 46.156,13.178553 h -11.12717 v -2.237867 q 0,-2.859498 -0.3419,-3.605453 -0.31081,-0.777038 -1.61624,-0.777038 -1.05677,0 -1.58515,0.714875 -0.52839,0.683792 -0.52839,2.08246 0,1.895971 0.24865,2.797334 0.27974,0.870282 1.58516,1.927053 1.33651,1.056771 5.43926,3.077068 5.47035,2.673008 7.17983,5.035202 1.70948,2.362193 1.70948,6.86901 0,5.035202 -1.30542,7.614966 -1.30543,2.548682 -4.38249,3.94735 -3.04599,1.367585 -7.36632,1.367585 -4.78655,0 -8.20551,-1.491911 -3.38788,-1.491912 -4.66223,-4.040595 -1.27434,-2.548682 -1.27434,-7.70821 v -1.989216 h 11.12718 v 2.610846 q 0,3.32572 0.40406,4.320327 0.43514,0.994608 1.6784,0.994608 1.3365,0 1.86489,-0.652711 0.52838,-0.683793 0.52838,-2.828416 0,-2.952742 -0.68379,-3.698698 -0.71487,-0.745956 -7.30415,-4.413572 -5.53251,-3.108149 -6.74469,-5.62575 -1.21217,-2.548683 -1.21217,-6.02981 0,-4.941958 1.30542,-7.27307 1.30542,-2.362193 4.41357,-3.636535 3.13923,-1.274341 7.27307,-1.274341 4.10276,0 6.96226,1.056771 2.89057,1.025689 4.41357,2.735171 1.55407,1.709483 1.86489,3.170313 0.34189,1.46083 0.34189,4.568979 z m 17.25023,-22.254349 v 6.558195 h -12.9299 v -6.558195 z m 0,9.075796 v 41.245142 h -12.9299 V 40.874023 Z m 33.03964,0 V 72.63931 q 0,6.433869 -0.31081,8.32984 -0.27973,1.86489 -2.08246,3.94735 -1.80273,2.113541 -5.0352,3.201394 -3.2014,1.118934 -8.08119,1.118934 -5.99873,0 -9.63526,-2.051379 -3.63654,-2.020297 -3.76086,-7.987944 h 12.18394 q 0,2.735171 1.98922,2.735171 1.42974,0 1.89597,-0.8392 0.46622,-0.8392 0.46622,-3.512209 v -3.108149 q -1.61624,1.46083 -3.41896,2.206786 -1.77165,0.745956 -3.72978,0.745956 -3.38789,0 -5.59467,-1.367586 -2.17571,-1.367586 -2.98383,-3.574372 -0.80811,-2.237867 -0.80811,-6.340624 V 51.161997 q 0,-5.874402 2.11354,-8.454166 2.11354,-2.579764 6.43387,-2.579764 2.36219,0 4.28924,0.963526 1.95814,0.963527 3.48113,2.890579 l 0.90136,-3.108149 z m -12.588,10.940686 q 0,-2.828416 -0.3419,-3.605453 -0.31081,-0.777038 -1.42975,-0.777038 -1.08785,0 -1.55407,0.901364 -0.43514,0.870281 -0.43514,3.481127 v 13.862346 q 0,2.766253 0.34189,3.605453 0.3419,0.808119 1.42975,0.808119 1.24326,0 1.61624,-0.994608 0.37298,-0.994607 0.37298,-4.506816 z m 29.62066,-20.016482 v 11.313664 q 1.61624,-1.491912 3.48113,-2.237868 1.89597,-0.745956 4.04059,-0.745956 3.29464,0 5.59467,1.678401 2.33111,1.6784 2.82842,3.885187 0.52838,2.175704 0.52838,7.987943 V 82.119165 H 884.48761 V 53.08905 q 0,-3.605453 -0.37298,-4.631143 -0.34189,-1.025689 -1.58515,-1.025689 -1.15002,0 -1.55408,1.056771 -0.40406,1.056771 -0.40406,4.196002 V 82.119165 H 868.01442 V 31.798227 Z m 34.03423,3.574372 v 6.496032 h 3.38788 v 6.527114 h -3.38788 v 22.06786 q 0,4.071676 0.40406,4.537898 0.43514,0.466223 3.51221,0.466223 v 6.651439 h -5.06629 q -4.28924,0 -6.12305,-0.341896 -1.83381,-0.372978 -3.23248,-1.647319 -1.39866,-1.305423 -1.74056,-2.952742 -0.3419,-1.678401 -0.3419,-7.832537 V 48.395745 h -2.70409 v -6.527114 h 2.70409 v -6.496032 z"
       id="text2-1"
       transform="matrix(0.31035382,0,0,0.31035382,-25.835749,56.281571)"
       aria-label="From data to insight" /></g></svg>
