<?xml version="1.0" encoding="UTF-8" standalone="no"?>
<!-- Created with Inkscape (http://www.inkscape.org/) -->

<svg
   width="310mm"
   height="100mm"
   viewBox="0 0 310 100"
   version="1.1"
   id="svg1"
   inkscape:version="1.3.2 (091e20e, 2023-11-25, custom)"
   sodipodi:docname="Mindgraph website logo with white background and subtitle.svg"
   xml:space="preserve"
   inkscape:export-filename="Mindgraph website logo with white background and subtitle.png"
   inkscape:export-xdpi="40.967743"
   inkscape:export-ydpi="40.967743"
   xmlns:inkscape="http://www.inkscape.org/namespaces/inkscape"
   xmlns:sodipodi="http://sodipodi.sourceforge.net/DTD/sodipodi-0.dtd"
   xmlns="http://www.w3.org/2000/svg"
   xmlns:svg="http://www.w3.org/2000/svg"><sodipodi:namedview
     id="namedview1"
     pagecolor="#505050"
     bordercolor="#ffffff"
     borderopacity="1"
     inkscape:showpageshadow="0"
     inkscape:pageopacity="0"
     inkscape:pagecheckerboard="1"
     inkscape:deskcolor="#505050"
     inkscape:document-units="mm"
     inkscape:zoom="0.43829967"
     inkscape:cx="473.42039"
     inkscape:cy="296.60073"
     inkscape:window-width="1280"
     inkscape:window-height="730"
     inkscape:window-x="-6"
     inkscape:window-y="-6"
     inkscape:window-maximized="1"
     inkscape:current-layer="layer3" /><defs
     id="defs1"><rect
       x="403.83331"
       y="220.16901"
       width="21.674669"
       height="199.63512"
       id="rect3" /><rect
       x="402.69254"
       y="58.179375"
       width="790.16534"
       height="45.967354"
       id="rect2" /><rect
       x="402.69254"
       y="58.179375"
       width="790.16534"
       height="45.967354"
       id="rect2-8" /></defs><g
     inkscape:groupmode="layer"
     id="layer4"
     inkscape:label="bottom background"
     style="mix-blend-mode:normal;fill:#ffffff;fill-opacity:1"><rect
       style="fill:#ffffff;fill-opacity:1;stroke-width:0.264583"
       id="rect4"
       width="310"
       height="100"
       x="0"
       y="0" /></g><g
     inkscape:label="Background"
     inkscape:groupmode="layer"
     id="layer1"
     style="mix-blend-mode:normal"><g
       id="g1"
       transform="matrix(0.86046511,0,0,0.86046511,5.2293755,7.1472667)"><circle
         style="opacity:1;fill:#1ea2b5;fill-opacity:1;stroke:none;stroke-width:0.264583;stroke-opacity:1"
         id="path1"
         cx="48.292683"
         cy="49.801826"
         r="35.314022" /><rect
         style="opacity:1;fill:#1ea2b5;fill-opacity:1;stroke:none;stroke-width:0.264583;stroke-opacity:1"
         id="rect1"
         width="12.978658"
         height="90.850609"
         x="41.803352"
         y="4.3765211" /></g><rect
       style="fill:#1ea2b5;fill-opacity:1;stroke:none;stroke-width:0.227664;stroke-opacity:1"
       id="rect1-9"
       width="11.167683"
       height="78.173782"
       x="-55.583839"
       y="7.6966529"
       transform="rotate(-90)" /></g><g
     inkscape:groupmode="layer"
     id="layer2"
     inkscape:label="Brain icon"><g
       style="fill:#ffffff;fill-opacity:1"
       id="g2"
       transform="matrix(2.6037601,0,0,2.6037601,20.745943,23.962399)"><path
         d="M 6.13053,2.79282 C 6.78561,2.28331 7.64507,2 8.5,2 8.74064,2 8.9312,2.12486 9.04164,2.21146 9.16633,2.30922 9.28272,2.43395 9.38565,2.55868 9.45957,2.64826 9.5,2.76078 9.5,2.87692 V 6.5 H 8.41465 C 8.20873,5.9174 7.65311,5.5 7,5.5 6.17157,5.5 5.5,6.17157 5.5,7 5.5,7.82843 6.17157,8.5 7,8.5 7.65311,8.5 8.20873,8.0826 8.41465,7.5 H 9.5 v 9.4152 c 0,0.15 -0.06734,0.292 -0.18345,0.387 C 8.85465,17.68 8.23639,18 7.5,18 6.31413,18 5.43097,17.4016 4.85957,16.6873 4.42092,16.139 4.14123,15.4928 4.04126,14.9347 3.71454,14.8495 3.33214,14.6754 2.9871,14.3796 2.43532,13.9067 2,13.1413 2,12 2,11.4433 2.03699,10.9403 2.11915,10.5 H 5.25 c 0.63581,0 1.16075,0.4747 1.23973,1.089 C 5.91251,11.7978 5.5,12.3507 5.5,13 5.5,13.8284 6.17157,14.5 7,14.5 7.82843,14.5 8.5,13.8284 8.5,13 8.5,12.3446 8.07969,11.7874 7.49391,11.5832 7.40857,10.4185 6.43654,9.5 5.25,9.5 H 2.44117 C 2.59442,9.20217 2.7989,8.94981 3.0664,8.77147 3.13479,8.72588 3.20555,8.68631 3.27837,8.65255 2.99364,7.82134 3.06843,6.8468 3.34163,6.08183 3.51741,5.58965 3.79482,5.12486 4.17729,4.81475 4.42931,4.6104 4.72888,4.47422 5.05692,4.44859 5.20085,3.76595 5.60552,3.20116 6.13053,2.79282 Z M 10.5,14.5 h 0.75 c 1.2426,0 2.25,-1.0074 2.25,-2.25 v -1.8354 c 0.5826,-0.2059 1,-0.76149 1,-1.4146 0,-0.82843 -0.6716,-1.5 -1.5,-1.5 -0.8284,0 -1.5,0.67157 -1.5,1.5 0,0.65311 0.4174,1.2087 1,1.4146 V 12.25 c 0,0.6904 -0.5596,1.25 -1.25,1.25 H 10.5 V 2.87692 c 0,-0.11614 0.0404,-0.22866 0.1144,-0.31824 0.1029,-0.12473 0.2193,-0.24946 0.344,-0.34722 C 11.0688,2.12486 11.2594,2 11.5,2 c 0.8549,0 1.7144,0.28331 2.3695,0.79282 0.525,0.40834 0.9296,0.97313 1.0736,1.65577 0.328,0.02563 0.6276,0.16181 0.8796,0.36616 0.3825,0.31011 0.6599,0.7749 0.8357,1.26708 0.2732,0.76497 0.348,1.73951 0.0632,2.57072 0.0729,0.03376 0.1436,0.07333 0.212,0.11892 0.2754,0.18358 0.484,0.44561 0.6386,0.75492 C 17.8745,10.1309 18,10.9745 18,12 c 0,1.1413 -0.4353,1.9067 -0.9871,2.3796 -0.345,0.2958 -0.7274,0.4699 -1.0542,0.5551 -0.0999,0.5581 -0.3796,1.2043 -0.8183,1.7526 C 14.569,17.4016 13.6859,18 12.5,18 11.7636,18 11.1453,17.68 10.6835,17.3022 10.5673,17.2072 10.5,17.0652 10.5,16.9152 Z M 7,6.5 C 6.72386,6.5 6.5,6.72386 6.5,7 6.5,7.27614 6.72386,7.5 7,7.5 7.27614,7.5 7.5,7.27614 7.5,7 7.5,6.72386 7.27614,6.5 7,6.5 Z m 0,6 c -0.27614,0 -0.5,0.2239 -0.5,0.5 0,0.2761 0.22386,0.5 0.5,0.5 0.27614,0 0.5,-0.2239 0.5,-0.5 0,-0.2761 -0.22386,-0.5 -0.5,-0.5 z m 6,-3 c 0.2761,0 0.5,-0.22386 0.5,-0.5 0,-0.27614 -0.2239,-0.5 -0.5,-0.5 -0.2761,0 -0.5,0.22386 -0.5,0.5 0,0.27614 0.2239,0.5 0.5,0.5 z"
         fill="#212121"
         id="path1-5"
         style="fill:#ffffff;fill-opacity:1" /></g></g><g
     inkscape:groupmode="layer"
     id="layer3"
     inkscape:label="Text"><text
       xml:space="preserve"
       transform="matrix(0.31035382,0,0,0.31035382,-26.179566,21.921478)"
       id="text2"
       style="font-size:136.403px;line-height:0;white-space:pre;shape-inside:url(#rect2);display:inline;opacity:1;fill:#000000;fill-opacity:1;stroke:none;stroke-opacity:1"><tspan
         x="402.69336"
         y="109.47843"
         id="tspan5"><tspan
           style="font-stretch:condensed;font-family:Impact;-inkscape-font-specification:'Impact Condensed'"
           id="tspan1">MINDGRAPH</tspan></tspan></text><text
       xml:space="preserve"
       transform="matrix(0.31035382,0,0,0.31035382,-25.835749,56.281571)"
       id="text2-1"
       style="font-size:63.6549px;line-height:0;white-space:pre;shape-inside:url(#rect2-8);display:inline;fill:#999999;fill-opacity:1;stroke:none;stroke-opacity:1"><tspan
         x="402.69336"
         y="82.119165"
         id="tspan7"><tspan
           style="font-family:Impact;-inkscape-font-specification:Impact"
           id="tspan6">From data to insight</tspan></tspan></text></g></svg>
