<?xml version="1.0" encoding="UTF-8" standalone="no"?>
<svg
   width="650"
   height="500"
   version="1.1"
   viewBox="0 0 650.00001 500.00001"
   id="svg15"
   sodipodi:docname="data-2311261.svg"
   inkscape:version="1.3.2 (091e20e, 2023-11-25, custom)"
   xmlns:inkscape="http://www.inkscape.org/namespaces/inkscape"
   xmlns:sodipodi="http://sodipodi.sourceforge.net/DTD/sodipodi-0.dtd"
   xmlns="http://www.w3.org/2000/svg"
   xmlns:svg="http://www.w3.org/2000/svg">
  <sodipodi:namedview
     id="namedview15"
     pagecolor="#505050"
     bordercolor="#ffffff"
     borderopacity="1"
     inkscape:showpageshadow="0"
     inkscape:pageopacity="0"
     inkscape:pagecheckerboard="1"
     inkscape:deskcolor="#505050"
     inkscape:zoom="0.984"
     inkscape:cx="226.11789"
     inkscape:cy="208.33333"
     inkscape:window-width="1280"
     inkscape:window-height="730"
     inkscape:window-x="-6"
     inkscape:window-y="-6"
     inkscape:window-maximized="1"
     inkscape:current-layer="svg15" />
  <defs
     id="defs3">
    <marker
       id="h"
       overflow="visible"
       orient="auto"
       refX="0.0"
       refY="0.0"
       viewBox="0 0 2.26666667 2.26666667"
       markerWidth="2.26666667"
       markerHeight="2.26666667"
       preserveAspectRatio="xMidYMid">
      <path
         transform="scale(.2) translate(7.4 1)"
         d="m-2.5-1c0 2.76-2.24 5-5 5s-5-2.24-5-5 2.24-5 5-5 5 2.24 5 5z"
         fill="#62d5e9"
         fill-rule="evenodd"
         stroke="#62d5e9"
         stroke-width="1pt"
         id="path1" />
    </marker>
    <marker
       id="g"
       overflow="visible"
       orient="auto"
       refX="0.0"
       refY="0.0"
       viewBox="0 0 2.26666667 2.26666667"
       markerWidth="2.26666667"
       markerHeight="2.26666667"
       preserveAspectRatio="xMidYMid">
      <path
         transform="scale(.2) translate(7.4 1)"
         d="m-2.5-1c0 2.76-2.24 5-5 5s-5-2.24-5-5 2.24-5 5-5 5 2.24 5 5z"
         fill="#62d5e9"
         fill-rule="evenodd"
         stroke="#62d5e9"
         stroke-width="1pt"
         id="path2" />
    </marker>
    <marker
       id="e"
       overflow="visible"
       orient="auto">
      <path
         transform="scale(.2) translate(7.4 1)"
         d="m-2.5-1c0 2.76-2.24 5-5 5s-5-2.24-5-5 2.24-5 5-5 5 2.24 5 5z"
         fill="#62d5e9"
         fill-rule="evenodd"
         stroke="#62d5e9"
         stroke-width="1pt"
         id="path3" />
    </marker>
    <filter
       id="f"
       x="-0.068535462"
       y="-0.10456299"
       width="1.1370709"
       height="1.209126"
       color-interpolation-filters="sRGB">
      <feGaussianBlur
         stdDeviation="13.463792"
         id="feGaussianBlur3" />
    </filter>
  </defs>
  <g
     transform="translate(0 -552.36)"
     id="g3">
    <rect
       y="552.36"
       width="650"
       height="500"
       fill="#6dd4c7"
       id="rect3"
       style="fill:#1ea2b5;fill-opacity:1" />
  </g>
  <rect
     x="89.262"
     y="110.62"
     width="471.48"
     height="309.03"
     ry="0"
     fill-opacity=".090426"
     filter="url(#f)"
     id="rect4" />
  <rect
     x="89.262"
     y="95.484"
     width="471.48"
     height="309.03"
     ry="0"
     fill="#fff"
     id="rect5" />
  <rect
     x="89.262"
     y="95.484"
     width="471.48"
     height="16.293"
     fill="#ededed"
     id="rect6" />
  <circle
     cx="97.408"
     cy="103.63"
     r="2.812"
     fill="#62d5e9"
     id="circle6" />
  <circle
     cx="114.28"
     cy="103.63"
     r="2.812"
     fill="#ff8d72"
     id="circle7" />
  <circle
     cx="105.84"
     cy="103.63"
     r="2.812"
     fill="#58f9a2"
     id="circle8" />
  <g
     transform="matrix(.78849 0 0 .78849 -57.868 14.298)"
     id="g12">
    <path
       d="m438.93 275.9a92.148 92.148 0 0 1 -84.776 91.853 92.148 92.148 0 0 1 -98.341 -77.156l90.969-14.697z"
       fill="#58f9a2"
       id="path8" />
    <path
       d="m264.69 225.71a92.148 92.148 0 0 1 66.136 -45.138l13.719 91.121z"
       fill="#ff8d72"
       id="path9" />
    <path
       d="m337.94 181.3a92.148 92.148 0 0 1 70.338 21.558 92.148 92.148 0 0 1 32.142 66.175l-92.069 3.8257z"
       fill="#62d5e9"
       id="path10"
       style="fill:#1ea2b5;fill-opacity:1" />
    <path
       d="m244.21 287.21a92.148 92.148 0 0 1 -0.55826 -15.453l92.043 4.4113z"
       fill-opacity=".090196"
       id="path11" />
    <path
       d="m247.94 265.78a92.148 92.148 0 0 1 10.38 -35.315l81.437 43.12z"
       fill="#f0ef94"
       id="path12" />
  </g>
  <g
     transform="translate(3.8713)"
     id="g15">
    <rect
       x="384.03"
       y="273.49"
       width="24.768"
       height="31.011"
       fill="#ff8d72"
       id="rect12" />
    <rect
       x="418.43"
       y="257.38"
       width="24.768"
       height="47.122"
       fill="#62d5e9"
       id="rect13"
       style="fill:#1ea2b5;fill-opacity:1" />
    <rect
       x="452.83"
       y="268.93"
       width="24.768"
       height="35.571"
       fill="#f0ef94"
       id="rect14" />
    <rect
       x="487.23"
       y="208.29"
       width="24.768"
       height="96.213"
       fill="#58f9a2"
       id="rect15" />
  </g>
  <path
     d="m134.13 362.6 54.533-15.812 54.533 13.086 54.533 9.2694 54.533-25.082 54.533 11.45 54.533 0.54525 54.533-14.177"
     fill="none"
     marker-end="url(#g)"
     marker-mid="url(#e)"
     marker-start="url(#h)"
     stroke="#62d5e9"
     stroke-width="3"
     id="path15"
     style="stroke:#1ea2b5;stroke-opacity:1;marker-start:url(#h);fill:none;fill-opacity:1"
     inkscape:label="path15" />
</svg>
