<svg version="1.1" viewBox="0.0 0.0 522.0 324.0" fill="none" stroke="none" stroke-linecap="square" stroke-miterlimit="10" width="522" height="324" xmlns:xlink="http://www.w3.org/1999/xlink" xmlns="http://www.w3.org/2000/svg"><path fill="#ffffff" d="M0 0L522.0 0L522.0 324.0L0 324.0L0 0Z" fill-rule="nonzero"/><path stroke="#cccccc" stroke-width="1.0" stroke-linecap="butt" d="M75.5 255.5L505.5 255.5" fill-rule="nonzero"/><path stroke="#cccccc" stroke-width="1.0" stroke-linecap="butt" d="M75.5 206.5L505.5 206.5" fill-rule="nonzero"/><path stroke="#cccccc" stroke-width="1.0" stroke-linecap="butt" d="M75.5 156.5L505.5 156.5" fill-rule="nonzero"/><path stroke="#cccccc" stroke-width="1.0" stroke-linecap="butt" d="M75.5 107.5L505.5 107.5" fill-rule="nonzero"/><path stroke="#cccccc" stroke-width="1.0" stroke-linecap="butt" d="M75.5 58.5L505.5 58.5" fill-rule="nonzero"/><clipPath id="id_0"><path d="M75.2 58.0L505.8 58.0L505.8 255.8L75.2 255.8L75.2 58.0Z" clip-rule="nonzero"/></clipPath><path stroke="#6b4cbd" stroke-width="3.0" stroke-linecap="butt" clip-path="url(#id_0)" d="M81.979576 63.3406L108.04463 187.1634L134.10968 166.2955L160.17473 163.2296L186.23979 160.5593L212.30484 155.911L238.36989 163.0318L264.43494 161.0538L290.5 165.9988L316.56506 164.812L342.6301 164.7131L368.69516 164.1197L394.76022 158.0868L420.82526 156.1088L446.89032 149.0869L472.95538 134.3508L499.02042 143.7463" fill-rule="nonzero"/><path fill="#6b4cbd" clip-path="url(#id_0)" d="M86.479576 63.3406C86.479576 65.82588 84.46486 67.8406 81.979576 67.8406C79.49429 67.8406 77.479576 65.82588 77.479576 63.3406C77.479576 60.85532 79.49429 58.8406 81.979576 58.8406C84.46486 58.8406 86.479576 60.85532 86.479576 63.3406Z" fill-rule="nonzero"/><path fill="#6b4cbd" clip-path="url(#id_0)" d="M112.54463 187.1634C112.54463 189.64868 110.529915 191.6634 108.04463 191.6634C105.55935 191.6634 103.54463 189.64868 103.54463 187.1634C103.54463 184.67812 105.55935 182.6634 108.04463 182.6634C110.529915 182.6634 112.54463 184.67812 112.54463 187.1634Z" fill-rule="nonzero"/><path fill="#6b4cbd" clip-path="url(#id_0)" d="M138.60968 166.2955C138.60968 168.78078 136.59497 170.7955 134.10968 170.7955C131.6244 170.7955 129.60968 168.78078 129.60968 166.2955C129.60968 163.81021 131.6244 161.7955 134.10968 161.7955C136.59497 161.7955 138.60968 163.81021 138.60968 166.2955Z" fill-rule="nonzero"/><path fill="#6b4cbd" clip-path="url(#id_0)" d="M164.67473 163.2296C164.67473 165.71487 162.66002 167.7296 160.17473 167.7296C157.68945 167.7296 155.67473 165.71487 155.67473 163.2296C155.67473 160.74432 157.68945 158.7296 160.17473 158.7296C162.66002 158.7296 164.67473 160.74432 164.67473 163.2296Z" fill-rule="nonzero"/><path fill="#6b4cbd" clip-path="url(#id_0)" d="M190.73979 160.5593C190.73979 163.04459 188.72507 165.0593 186.23979 165.0593C183.7545 165.0593 181.73979 163.04459 181.73979 160.5593C181.73979 158.07402 183.7545 156.0593 186.23979 156.0593C188.72507 156.0593 190.73979 158.07402 190.73979 160.5593Z" fill-rule="nonzero"/><path fill="#6b4cbd" clip-path="url(#id_0)" d="M216.80484 155.911C216.80484 158.39629 214.79012 160.411 212.30484 160.411C209.81956 160.411 207.80484 158.39629 207.80484 155.911C207.80484 153.42572 209.81956 151.411 212.30484 151.411C214.79012 151.411 216.80484 153.42572 216.80484 155.911Z" fill-rule="nonzero"/><path fill="#6b4cbd" clip-path="url(#id_0)" d="M242.86989 163.0318C242.86989 165.51707 240.85518 167.5318 238.36989 167.5318C235.88461 167.5318 233.86989 165.51707 233.86989 163.0318C233.86989 160.54652 235.88461 158.5318 238.36989 158.5318C240.85518 158.5318 242.86989 160.54652 242.86989 163.0318Z" fill-rule="nonzero"/><path fill="#6b4cbd" clip-path="url(#id_0)" d="M268.93494 161.0538C268.93494 163.53908 266.92023 165.5538 264.43494 165.5538C261.94968 165.5538 259.93494 163.53908 259.93494 161.0538C259.93494 158.56851 261.94968 156.5538 264.43494 156.5538C266.92023 156.5538 268.93494 158.56851 268.93494 161.0538Z" fill-rule="nonzero"/><path fill="#6b4cbd" clip-path="url(#id_0)" d="M295.0 165.9988C295.0 168.48409 292.9853 170.4988 290.5 170.4988C288.0147 170.4988 286.0 168.48409 286.0 165.9988C286.0 163.51352 288.0147 161.4988 290.5 161.4988C292.9853 161.4988 295.0 163.51352 295.0 165.9988Z" fill-rule="nonzero"/><path fill="#6b4cbd" clip-path="url(#id_0)" d="M321.06506 164.812C321.06506 167.29729 319.05032 169.312 316.56506 169.312C314.07977 169.312 312.06506 167.29729 312.06506 164.812C312.06506 162.32672 314.07977 160.312 316.56506 160.312C319.05032 160.312 321.06506 162.32672 321.06506 164.812Z" fill-rule="nonzero"/><path fill="#6b4cbd" clip-path="url(#id_0)" d="M347.1301 164.7131C347.1301 167.19838 345.1154 169.2131 342.6301 169.2131C340.14484 169.2131 338.1301 167.19838 338.1301 164.7131C338.1301 162.22781 340.14484 160.2131 342.6301 160.2131C345.1154 160.2131 347.1301 162.22781 347.1301 164.7131Z" fill-rule="nonzero"/><path fill="#6b4cbd" clip-path="url(#id_0)" d="M373.19516 164.1197C373.19516 166.60498 371.18045 168.6197 368.69516 168.6197C366.20987 168.6197 364.19516 166.60498 364.19516 164.1197C364.19516 161.63441 366.20987 159.6197 368.69516 159.6197C371.18045 159.6197 373.19516 161.63441 373.19516 164.1197Z" fill-rule="nonzero"/><path fill="#6b4cbd" clip-path="url(#id_0)" d="M399.26022 158.0868C399.26022 160.57208 397.24548 162.5868 394.76022 162.5868C392.27493 162.5868 390.26022 160.57208 390.26022 158.0868C390.26022 155.60152 392.27493 153.5868 394.76022 153.5868C397.24548 153.5868 399.26022 155.60152 399.26022 158.0868Z" fill-rule="nonzero"/><path fill="#6b4cbd" clip-path="url(#id_0)" d="M425.32526 156.1088C425.32526 158.59409 423.31055 160.6088 420.82526 160.6088C418.34 160.6088 416.32526 158.59409 416.32526 156.1088C416.32526 153.62352 418.34 151.6088 420.82526 151.6088C423.31055 151.6088 425.32526 153.62352 425.32526 156.1088Z" fill-rule="nonzero"/><path fill="#6b4cbd" clip-path="url(#id_0)" d="M451.39032 149.0869C451.39032 151.57217 449.3756 153.5869 446.89032 153.5869C444.40503 153.5869 442.39032 151.57217 442.39032 149.0869C442.39032 146.60162 444.40503 144.5869 446.89032 144.5869C449.3756 144.5869 451.39032 146.60162 451.39032 149.0869Z" fill-rule="nonzero"/><path fill="#6b4cbd" clip-path="url(#id_0)" d="M477.45538 134.3508C477.45538 136.83607 475.44064 138.8508 472.95538 138.8508C470.4701 138.8508 468.45538 136.83607 468.45538 134.3508C468.45538 131.86552 470.4701 129.8508 472.95538 129.8508C475.44064 129.8508 477.45538 131.86552 477.45538 134.3508Z" fill-rule="nonzero"/><path fill="#6b4cbd" clip-path="url(#id_0)" d="M503.52042 143.7463C503.52042 146.23158 501.5057 148.2463 499.02042 148.2463C496.53516 148.2463 494.52042 146.23158 494.52042 143.7463C494.52042 141.26102 496.53516 139.2463 499.02042 139.2463C501.5057 139.2463 503.52042 141.26102 503.52042 143.7463Z" fill-rule="nonzero"/><path fill="#000000" d="M281.34375 304.8L281.34375 301.15936L278.03125 296.20624L279.42188 296.20624L281.10938 298.8Q281.57812 299.51874 281.98438 300.2531Q282.375 299.58124 282.92188 298.7375L284.59375 296.20624L285.90625 296.20624L282.48438 301.15936L282.48438 304.8L281.34375 304.8ZM290.04688 302.8L291.14062 302.925Q290.89062 303.8781 290.1875 304.40936Q289.48438 304.9406 288.40625 304.9406Q287.04688 304.9406 286.23438 304.09686Q285.4375 303.2531 285.4375 301.7375Q285.4375 300.175 286.25 299.3156Q287.0625 298.4406 288.34375 298.4406Q289.59375 298.4406 290.375 299.28436Q291.17188 300.1281 291.17188 301.675Q291.17188 301.76874 291.17188 301.95624L286.53125 301.95624Q286.59375 302.9875 287.10938 303.53436Q287.625 304.0656 288.40625 304.0656Q288.98438 304.0656 289.39062 303.76874Q289.8125 303.45624 290.04688 302.8ZM286.59375 301.09686L290.0625 301.09686Q290.0 300.3 289.67188 299.90936Q289.15625 299.3 288.35938 299.3Q287.625 299.3 287.125 299.78436Q286.64062 300.26874 286.59375 301.09686ZM296.85938 304.03436Q296.26562 304.53436 295.71875 304.7375Q295.1875 304.9406 294.5625 304.9406Q293.53125 304.9406 292.98438 304.4406Q292.4375 303.9406 292.4375 303.15936Q292.4375 302.70624 292.64062 302.33124Q292.84375 301.9406 293.1875 301.72186Q293.53125 301.4875 293.95312 301.3781Q294.25 301.28436 294.89062 301.20624Q296.15625 301.0656 296.76562 300.84686Q296.76562 300.6281 296.76562 300.58124Q296.76562 299.925 296.46875 299.65936Q296.0625 299.3156 295.26562 299.3156Q294.53125 299.3156 294.17188 299.58124Q293.8125 299.83124 293.64062 300.4875L292.60938 300.34686Q292.75 299.6906 293.07812 299.28436Q293.40625 298.8781 294.01562 298.65936Q294.625 298.4406 295.42188 298.4406Q296.21875 298.4406 296.71875 298.6281Q297.21875 298.8156 297.45312 299.09686Q297.6875 299.3781 297.78125 299.8156Q297.82812 300.08124 297.82812 300.78436L297.82812 302.1906Q297.82812 303.65936 297.89062 304.05Q297.96875 304.4406 298.17188 304.8L297.0625 304.8Q296.90625 304.47186 296.85938 304.03436ZM296.76562 301.675Q296.1875 301.90936 295.04688 302.08124Q294.39062 302.175 294.125 302.3Q293.85938 302.40936 293.70312 302.6281Q293.5625 302.84686 293.5625 303.1281Q293.5625 303.55 293.875 303.83124Q294.20312 304.1125 294.8125 304.1125Q295.42188 304.1125 295.89062 303.84686Q296.375 303.58124 296.59375 303.1125Q296.76562 302.7531 296.76562 302.0656L296.76562 301.675ZM299.78125 304.8L299.78125 298.58124L300.73438 298.58124L300.73438 299.51874Q301.09375 298.8625 301.39062 298.65936Q301.70312 298.4406 302.07812 298.4406Q302.60938 298.4406 303.15625 298.76874L302.79688 299.7531Q302.40625 299.51874 302.03125 299.51874Q301.67188 299.51874 301.39062 299.7375Q301.125 299.9406 301.01562 300.3156Q300.82812 300.8781 300.82812 301.53436L300.82812 304.8L299.78125 304.8Z" fill-rule="nonzero"/><path fill="#000000" d="M27.199987 209.93124L18.606237 209.93124L18.606237 208.80624L22.137487 208.80624L22.137487 204.3375L18.606237 204.3375L18.606237 203.19687L27.199987 203.19687L27.199987 204.3375L23.153112 204.3375L23.153112 208.80624L27.199987 208.80624L27.199987 209.93124ZM26.434362 197.04062Q26.934362 197.63437 27.137487 198.18124Q27.340612 198.7125 27.340612 199.3375Q27.340612 200.36874 26.840612 200.91562Q26.340612 201.4625 25.559362 201.4625Q25.106237 201.4625 24.731237 201.25937Q24.340612 201.05624 24.121862 200.7125Q23.887487 200.36874 23.778112 199.94687Q23.684362 199.65 23.606237 199.00937Q23.465612 197.74374 23.246862 197.13437Q23.028112 197.13437 22.981237 197.13437Q22.324987 197.13437 22.059362 197.43124Q21.715612 197.8375 21.715612 198.63437Q21.715612 199.36874 21.981237 199.72812Q22.231237 200.0875 22.887487 200.25937L22.746862 201.29062Q22.090612 201.15 21.684362 200.82187Q21.278112 200.49374 21.059362 199.88437Q20.840612 199.275 20.840612 198.47812Q20.840612 197.68124 21.028112 197.18124Q21.215612 196.68124 21.496862 196.44687Q21.778112 196.2125 22.215612 196.11874Q22.481237 196.07187 23.184362 196.07187L24.590612 196.07187Q26.059362 196.07187 26.449987 196.00937Q26.840612 195.93124 27.199987 195.72812L27.199987 196.8375Q26.871862 196.99374 26.434362 197.04062ZM24.074987 197.13437Q24.309362 197.7125 24.481237 198.85312Q24.574987 199.50937 24.699987 199.775Q24.809362 200.04062 25.028112 200.19687Q25.246862 200.3375 25.528112 200.3375Q25.949987 200.3375 26.231237 200.025Q26.512487 199.69687 26.512487 199.0875Q26.512487 198.47812 26.246862 198.00937Q25.981237 197.525 25.512487 197.30624Q25.153112 197.13437 24.465612 197.13437L24.074987 197.13437ZM29.590612 194.10312L20.981237 194.10312L20.981237 193.15L21.778112 193.15Q21.309362 192.80624 21.074987 192.38437Q20.840612 191.94687 20.840612 191.3375Q20.840612 190.54062 21.246862 189.93124Q21.653112 189.32187 22.403112 189.025Q23.153112 188.7125 24.043737 188.7125Q24.996862 188.7125 25.762487 189.05624Q26.528112 189.38437 26.934362 190.04062Q27.340612 190.69687 27.340612 191.41562Q27.340612 191.94687 27.121862 192.36874Q26.887487 192.79062 26.559362 193.05624L29.590612 193.05624L29.590612 194.10312ZM24.121862 193.15Q25.324987 193.15 25.903112 192.66562Q26.465612 192.18124 26.465612 191.49374Q26.465612 190.79062 25.871862 190.29062Q25.278112 189.79062 24.028112 189.79062Q22.840612 189.79062 22.262487 190.275Q21.668737 190.75937 21.668737 191.44687Q21.668737 192.11874 22.293737 192.63437Q22.918737 193.15 24.121862 193.15ZM29.590612 187.10312L20.981237 187.10312L20.981237 186.15L21.778112 186.15Q21.309362 185.80624 21.074987 185.38437Q20.840612 184.94687 20.840612 184.3375Q20.840612 183.54062 21.246862 182.93124Q21.653112 182.32187 22.403112 182.025Q23.153112 181.7125 24.043737 181.7125Q24.996862 181.7125 25.762487 182.05624Q26.528112 182.38437 26.934362 183.04062Q27.340612 183.69687 27.340612 184.41562Q27.340612 184.94687 27.121862 185.36874Q26.887487 185.79062 26.559362 186.05624L29.590612 186.05624L29.590612 187.10312ZM24.121862 186.15Q25.324987 186.15 25.903112 185.66562Q26.465612 185.18124 26.465612 184.49374Q26.465612 183.79062 25.871862 183.29062Q25.278112 182.79062 24.028112 182.79062Q22.840612 182.79062 22.262487 183.275Q21.668737 183.75937 21.668737 184.44687Q21.668737 185.11874 22.293737 185.63437Q22.918737 186.15 24.121862 186.15ZM19.824987 180.10312L18.606237 180.10312L18.606237 179.04062L19.824987 179.04062L19.824987 180.10312ZM27.199987 180.10312L20.981237 180.10312L20.981237 179.04062L27.199987 179.04062L27.199987 180.10312ZM27.199987 177.10312L20.981237 177.10312L20.981237 176.16562L21.856237 176.16562Q20.840612 175.47812 20.840612 174.18124Q20.840612 173.61874 21.043737 173.15Q21.246862 172.66562 21.574987 172.43124Q21.903112 172.19687 22.340612 172.10312Q22.637487 172.05624 23.371862 172.05624L27.199987 172.05624L27.199987 173.10312L23.418737 173.10312Q22.762487 173.10312 22.449987 173.22812Q22.137487 173.35312 21.949987 173.66562Q21.746862 173.97812 21.746862 174.4Q21.746862 175.07187 22.184362 175.57187Q22.606237 176.05624 23.793737 176.05624L27.199987 176.05624L27.199987 177.10312ZM25.199987 165.85312L25.324987 164.75937Q26.278112 165.00937 26.809362 165.7125Q27.340612 166.41562 27.340612 167.49374Q27.340612 168.85312 26.496862 169.66562Q25.653112 170.4625 24.137487 170.4625Q22.574987 170.4625 21.715612 169.65Q20.840612 168.8375 20.840612 167.55624Q20.840612 166.30624 21.684362 165.525Q22.528112 164.72812 24.074987 164.72812Q24.168737 164.72812 24.356237 164.72812L24.356237 169.36874Q25.387487 169.30624 25.934362 168.79062Q26.465612 168.275 26.465612 167.49374Q26.465612 166.91562 26.168737 166.50937Q25.856237 166.0875 25.199987 165.85312ZM23.496862 169.30624L23.496862 165.8375Q22.699987 165.9 22.309362 166.22812Q21.699987 166.74374 21.699987 167.54062Q21.699987 168.275 22.184362 168.775Q22.668737 169.25937 23.496862 169.30624ZM25.340612 163.525L25.184362 162.49374Q25.809362 162.4 26.137487 162.00937Q26.465612 161.60312 26.465612 160.86874Q26.465612 160.15 26.184362 159.80624Q25.887487 159.44687 25.481237 159.44687Q25.121862 159.44687 24.918737 159.75937Q24.778112 159.97812 24.559362 160.8375Q24.262487 161.99374 24.059362 162.44687Q23.840612 162.88437 23.465612 163.11874Q23.090612 163.35312 22.621862 163.35312Q22.215612 163.35312 21.856237 163.16562Q21.496862 162.97812 21.262487 162.65Q21.090612 162.4 20.965612 161.97812Q20.840612 161.55624 20.840612 161.05624Q20.840612 160.3375 21.059362 159.79062Q21.262487 159.22812 21.621862 158.9625Q21.981237 158.69687 22.574987 158.60312L22.715612 159.63437Q22.246862 159.69687 21.981237 160.04062Q21.699987 160.36874 21.699987 160.99374Q21.699987 161.7125 21.949987 162.025Q22.184362 162.3375 22.512487 162.3375Q22.715612 162.3375 22.871862 162.2125Q23.043737 162.07187 23.153112 161.80624Q23.215612 161.65 23.418737 160.86874Q23.731237 159.74374 23.918737 159.30624Q24.106237 158.86874 24.465612 158.61874Q24.824987 158.36874 25.371862 158.36874Q25.903112 158.36874 26.371862 158.68124Q26.824987 158.97812 27.090612 159.55624Q27.340612 160.13437 27.340612 160.86874Q27.340612 162.0875 26.840612 162.72812Q26.324987 163.35312 25.340612 163.525ZM25.340612 156.525L25.184362 155.49374Q25.809362 155.4 26.137487 155.00937Q26.465612 154.60312 26.465612 153.86874Q26.465612 153.15 26.184362 152.80624Q25.887487 152.44687 25.481237 152.44687Q25.121862 152.44687 24.918737 152.75937Q24.778112 152.97812 24.559362 153.8375Q24.262487 154.99374 24.059362 155.44687Q23.840612 155.88437 23.465612 156.11874Q23.090612 156.35312 22.621862 156.35312Q22.215612 156.35312 21.856237 156.16562Q21.496862 155.97812 21.262487 155.65Q21.090612 155.4 20.965612 154.97812Q20.840612 154.55624 20.840612 154.05624Q20.840612 153.3375 21.059362 152.79062Q21.262487 152.22812 21.621862 151.9625Q21.981237 151.69687 22.574987 151.60312L22.715612 152.63437Q22.246862 152.69687 21.981237 153.04062Q21.699987 153.36874 21.699987 153.99374Q21.699987 154.7125 21.949987 155.025Q22.184362 155.3375 22.512487 155.3375Q22.715612 155.3375 22.871862 155.2125Q23.043737 155.07187 23.153112 154.80624Q23.215612 154.65 23.418737 153.86874Q23.731237 152.74374 23.918737 152.30624Q24.106237 151.86874 24.465612 151.61874Q24.824987 151.36874 25.371862 151.36874Q25.903112 151.36874 26.371862 151.68124Q26.824987 151.97812 27.090612 152.55624Q27.340612 153.13437 27.340612 153.86874Q27.340612 155.0875 26.840612 155.72812Q26.324987 156.35312 25.340612 156.525ZM25.340612 146.525L25.184362 145.49374Q25.809362 145.4 26.137487 145.00937Q26.465612 144.60312 26.465612 143.86874Q26.465612 143.15 26.184362 142.80624Q25.887487 142.44687 25.481237 142.44687Q25.121862 142.44687 24.918737 142.75937Q24.778112 142.97812 24.559362 143.8375Q24.262487 144.99374 24.059362 145.44687Q23.840612 145.88437 23.465612 146.11874Q23.090612 146.35312 22.621862 146.35312Q22.215612 146.35312 21.856237 146.16562Q21.496862 145.97812 21.262487 145.65Q21.090612 145.4 20.965612 144.97812Q20.840612 144.55624 20.840612 144.05624Q20.840612 143.3375 21.059362 142.79062Q21.262487 142.22812 21.621862 141.9625Q21.981237 141.69687 22.574987 141.60312L22.715612 142.63437Q22.246862 142.69687 21.981237 143.04062Q21.699987 143.36874 21.699987 143.99374Q21.699987 144.7125 21.949987 145.025Q22.184362 145.3375 22.512487 145.3375Q22.715612 145.3375 22.871862 145.2125Q23.043737 145.07187 23.153112 144.80624Q23.215612 144.65 23.418737 143.86874Q23.731237 142.74374 23.918737 142.30624Q24.106237 141.86874 24.465612 141.61874Q24.824987 141.36874 25.371862 141.36874Q25.903112 141.36874 26.371862 141.68124Q26.824987 141.97812 27.090612 142.55624Q27.340612 143.13437 27.340612 143.86874Q27.340612 145.0875 26.840612 145.72812Q26.324987 146.35312 25.340612 146.525ZM24.918737 135.04062L25.059362 134.00937Q26.121862 134.18124 26.731237 134.88437Q27.340612 135.5875 27.340612 136.60312Q27.340612 137.88437 26.512487 138.66562Q25.668737 139.43124 24.106237 139.43124Q23.106237 139.43124 22.356237 139.10312Q21.590612 138.75937 21.215612 138.0875Q20.840612 137.4 20.840612 136.5875Q20.840612 135.5875 21.356237 134.94687Q21.856237 134.29062 22.809362 134.10312L22.965612 135.13437Q22.340612 135.275 22.028112 135.65Q21.699987 136.025 21.699987 136.55624Q21.699987 137.35312 22.278112 137.85312Q22.840612 138.35312 24.074987 138.35312Q25.340612 138.35312 25.903112 137.86874Q26.465612 137.38437 26.465612 136.61874Q26.465612 135.99374 26.090612 135.5875Q25.715612 135.16562 24.918737 135.04062ZM24.090612 133.49374Q22.356237 133.49374 21.528112 132.54062Q20.840612 131.74374 20.840612 130.5875Q20.840612 129.30624 21.684362 128.49374Q22.512487 127.66562 23.996862 127.66562Q25.199987 127.66562 25.887487 128.025Q26.574987 128.38437 26.965612 129.0875Q27.340612 129.775 27.340612 130.5875Q27.340612 131.88437 26.512487 132.69687Q25.668737 133.49374 24.090612 133.49374ZM24.090612 132.41562Q25.278112 132.41562 25.871862 131.9Q26.465612 131.36874 26.465612 130.5875Q26.465612 129.79062 25.871862 129.275Q25.278112 128.75937 24.059362 128.75937Q22.903112 128.75937 22.309362 129.29062Q21.715612 129.80624 21.715612 130.5875Q21.715612 131.36874 22.309362 131.9Q22.887487 132.41562 24.090612 132.41562ZM27.199987 126.118744L20.981237 126.118744L20.981237 125.16562L21.918737 125.16562Q21.262487 124.806244 21.059362 124.50937Q20.840612 124.19687 20.840612 123.82187Q20.840612 123.29062 21.168737 122.743744L22.153112 123.10312Q21.918737 123.493744 21.918737 123.868744Q21.918737 124.22812 22.137487 124.50937Q22.340612 124.774994 22.715612 124.88437Q23.278112 125.07187 23.934362 125.07187L27.199987 125.07187L27.199987 126.118744ZM25.199987 117.85312L25.324987 116.75937Q26.278112 117.00937 26.809362 117.712494Q27.340612 118.41562 27.340612 119.493744Q27.340612 120.85312 26.496862 121.66562Q25.653112 122.462494 24.137487 122.462494Q22.574987 122.462494 21.715612 121.649994Q20.840612 120.837494 20.840612 119.556244Q20.840612 118.306244 21.684362 117.524994Q22.528112 116.72812 24.074987 116.72812Q24.168737 116.72812 24.356237 116.72812L24.356237 121.368744Q25.387487 121.306244 25.934362 120.79062Q26.465612 120.274994 26.465612 119.493744Q26.465612 118.91562 26.168737 118.50937Q25.856237 118.087494 25.199987 117.85312ZM23.496862 121.306244L23.496862 117.837494Q22.699987 117.899994 22.309362 118.22812Q21.699987 118.743744 21.699987 119.54062Q21.699987 120.274994 22.184362 120.774994Q22.668737 121.25937 23.496862 121.306244Z" fill-rule="nonzero"/><path fill="#000000" d="M56.075 259.8L56.075 257.7375L52.35625 257.7375L52.35625 256.76874L56.278126 251.20624L57.1375 251.20624L57.1375 256.76874L58.29375 256.76874L58.29375 257.7375L57.1375 257.7375L57.1375 259.8L56.075 259.8ZM56.075 256.76874L56.075 252.90936L53.3875 256.76874L56.075 256.76874ZM60.29375 259.8L60.29375 258.59686L61.496876 258.59686L61.496876 259.8L60.29375 259.8ZM62.7 257.55L63.809376 257.45624Q63.934376 258.26874 64.37187 258.675Q64.825 259.08124 65.46562 259.08124Q66.21562 259.08124 66.74687 258.5031Q67.27812 257.925 67.27812 256.9875Q67.27812 256.08124 66.7625 255.56561Q66.2625 255.03436 65.43437 255.03436Q64.93437 255.03436 64.5125 255.26874Q64.10625 255.50311 63.871876 255.86249L62.8875 255.73749L63.715626 251.33124L67.99687 251.33124L67.99687 252.33124L64.55937 252.33124L64.10625 254.64374Q64.87187 254.09686 65.71562 254.09686Q66.84062 254.09686 67.60625 254.87811Q68.3875 255.65936 68.3875 256.89374Q68.3875 258.05 67.71562 258.90936Q66.8875 259.9406 65.46562 259.9406Q64.29375 259.9406 63.54375 259.28436Q62.809376 258.6281 62.7 257.55Z" fill-rule="nonzero"/><path fill="#000000" d="M52.7 208.1L53.809376 208.00626Q53.934376 208.81876 54.371876 209.225Q54.825 209.63126 55.465626 209.63126Q56.215626 209.63126 56.746876 209.05313Q57.278126 208.475 57.278126 207.5375Q57.278126 206.63126 56.7625 206.11563Q56.2625 205.58438 55.434376 205.58438Q54.934376 205.58438 54.5125 205.81876Q54.10625 206.05313 53.871876 206.4125L52.8875 206.2875L53.715626 201.88126L57.996876 201.88126L57.996876 202.88126L54.559376 202.88126L54.10625 205.19376Q54.871876 204.64688 55.715626 204.64688Q56.840626 204.64688 57.60625 205.42813Q58.3875 206.20938 58.3875 207.44376Q58.3875 208.6 57.715626 209.45938Q56.8875 210.49063 55.465626 210.49063Q54.29375 210.49063 53.54375 209.83438Q52.809376 209.17813 52.7 208.1ZM60.29375 210.35L60.29375 209.14688L61.496876 209.14688L61.496876 210.35L60.29375 210.35ZM62.7 206.11563Q62.7 204.58438 63.0125 203.6625Q63.325 202.725 63.934376 202.225Q64.55937 201.725 65.49687 201.725Q66.18437 201.725 66.7 202.00626Q67.23125 202.2875 67.575 202.81876Q67.91875 203.33438 68.10625 204.08438Q68.29375 204.83438 68.29375 206.11563Q68.29375 207.63126 67.98125 208.55313Q67.68437 209.475 67.05937 209.99063Q66.45 210.49063 65.49687 210.49063Q64.2625 210.49063 63.54375 209.6Q62.7 208.5375 62.7 206.11563ZM63.778126 206.11563Q63.778126 208.225 64.27812 208.92813Q64.77812 209.63126 65.49687 209.63126Q66.23125 209.63126 66.71562 208.92813Q67.21562 208.225 67.21562 206.11563Q67.21562 203.99063 66.71562 203.30313Q66.23125 202.6 65.48125 202.6Q64.7625 202.6 64.325 203.20938Q63.778126 203.99063 63.778126 206.11563Z" fill-rule="nonzero"/><path fill="#000000" d="M52.7 158.65L53.809376 158.55624Q53.934376 159.36874 54.371876 159.775Q54.825 160.18124 55.465626 160.18124Q56.215626 160.18124 56.746876 159.60312Q57.278126 159.025 57.278126 158.0875Q57.278126 157.18124 56.7625 156.66562Q56.2625 156.13437 55.434376 156.13437Q54.934376 156.13437 54.5125 156.36874Q54.10625 156.60312 53.871876 156.9625L52.8875 156.8375L53.715626 152.43124L57.996876 152.43124L57.996876 153.43124L54.559376 153.43124L54.10625 155.74374Q54.871876 155.19687 55.715626 155.19687Q56.840626 155.19687 57.60625 155.97812Q58.3875 156.75937 58.3875 157.99374Q58.3875 159.15 57.715626 160.00937Q56.8875 161.04062 55.465626 161.04062Q54.29375 161.04062 53.54375 160.38437Q52.809376 159.72812 52.7 158.65ZM60.29375 160.9L60.29375 159.69687L61.496876 159.69687L61.496876 160.9L60.29375 160.9ZM62.7 158.65L63.809376 158.55624Q63.934376 159.36874 64.37187 159.775Q64.825 160.18124 65.46562 160.18124Q66.21562 160.18124 66.74687 159.60312Q67.27812 159.025 67.27812 158.0875Q67.27812 157.18124 66.7625 156.66562Q66.2625 156.13437 65.43437 156.13437Q64.93437 156.13437 64.5125 156.36874Q64.10625 156.60312 63.871876 156.9625L62.8875 156.8375L63.715626 152.43124L67.99687 152.43124L67.99687 153.43124L64.55937 153.43124L64.10625 155.74374Q64.87187 155.19687 65.71562 155.19687Q66.84062 155.19687 67.60625 155.97812Q68.3875 156.75937 68.3875 157.99374Q68.3875 159.15 67.71562 160.00937Q66.8875 161.04062 65.46562 161.04062Q64.29375 161.04062 63.54375 160.38437Q62.809376 159.72812 62.7 158.65Z" fill-rule="nonzero"/><path fill="#000000" d="M58.16875 104.96562L57.121876 105.04375Q56.98125 104.41875 56.73125 104.1375Q56.29375 103.68437 55.66875 103.68437Q55.16875 103.68437 54.778126 103.96562Q54.29375 104.34062 53.996876 105.04375Q53.715626 105.73125 53.7 107.0125Q54.075 106.43437 54.621876 106.15312Q55.184376 105.87187 55.79375 105.87187Q56.840626 105.87187 57.575 106.65312Q58.325 107.43437 58.325 108.65312Q58.325 109.46562 57.965626 110.16875Q57.621876 110.85625 57.0125 111.23125Q56.403126 111.59062 55.6375 111.59062Q54.309376 111.59062 53.48125 110.62187Q52.653126 109.65312 52.653126 107.43437Q52.653126 104.93437 53.575 103.80937Q54.371876 102.825 55.73125 102.825Q56.746876 102.825 57.3875 103.40312Q58.04375 103.96562 58.16875 104.96562ZM53.871876 108.66875Q53.871876 109.21562 54.090626 109.71562Q54.325 110.2 54.73125 110.46562Q55.153126 110.73125 55.621876 110.73125Q56.278126 110.73125 56.7625 110.2Q57.246876 109.65312 57.246876 108.73125Q57.246876 107.84062 56.7625 107.325Q56.29375 106.80937 55.575 106.80937Q54.85625 106.80937 54.35625 107.325Q53.871876 107.84062 53.871876 108.66875ZM60.29375 111.45L60.29375 110.24687L61.496876 110.24687L61.496876 111.45L60.29375 111.45ZM62.7 107.21562Q62.7 105.68437 63.0125 104.7625Q63.325 103.825 63.934376 103.325Q64.55937 102.825 65.49687 102.825Q66.18437 102.825 66.7 103.10625Q67.23125 103.3875 67.575 103.91875Q67.91875 104.43437 68.10625 105.18437Q68.29375 105.93437 68.29375 107.21562Q68.29375 108.73125 67.98125 109.65312Q67.68437 110.575 67.05937 111.09062Q66.45 111.59062 65.49687 111.59062Q64.2625 111.59062 63.54375 110.7Q62.7 109.6375 62.7 107.21562ZM63.778126 107.21562Q63.778126 109.325 64.27812 110.02812Q64.77812 110.73125 65.49687 110.73125Q66.23125 110.73125 66.71562 110.02812Q67.21562 109.325 67.21562 107.21562Q67.21562 105.09062 66.71562 104.40312Q66.23125 103.7 65.48125 103.7Q64.7625 103.7 64.325 104.30937Q63.778126 105.09062 63.778126 107.21562Z" fill-rule="nonzero"/><path fill="#000000" d="M58.16875 55.515625L57.121876 55.59375Q56.98125 54.96875 56.73125 54.6875Q56.29375 54.234375 55.66875 54.234375Q55.16875 54.234375 54.778126 54.515625Q54.29375 54.890625 53.996876 55.59375Q53.715626 56.28125 53.7 57.5625Q54.075 56.984375 54.621876 56.703125Q55.184376 56.421875 55.79375 56.421875Q56.840626 56.421875 57.575 57.203125Q58.325 57.984375 58.325 59.203125Q58.325 60.015625 57.965626 60.71875Q57.621876 61.40625 57.0125 61.78125Q56.403126 62.140625 55.6375 62.140625Q54.309376 62.140625 53.48125 61.171875Q52.653126 60.203125 52.653126 57.984375Q52.653126 55.484375 53.575 54.359375Q54.371876 53.375 55.73125 53.375Q56.746876 53.375 57.3875 53.953125Q58.04375 54.515625 58.16875 55.515625ZM53.871876 59.21875Q53.871876 59.765625 54.090626 60.265625Q54.325 60.75 54.73125 61.015625Q55.153126 61.28125 55.621876 61.28125Q56.278126 61.28125 56.7625 60.75Q57.246876 60.203125 57.246876 59.28125Q57.246876 58.390625 56.7625 57.875Q56.29375 57.359375 55.575 57.359375Q54.85625 57.359375 54.35625 57.875Q53.871876 58.390625 53.871876 59.21875ZM60.29375 62.0L60.29375 60.796875L61.496876 60.796875L61.496876 62.0L60.29375 62.0ZM62.7 59.75L63.809376 59.65625Q63.934376 60.46875 64.37187 60.875Q64.825 61.28125 65.46562 61.28125Q66.21562 61.28125 66.74687 60.703125Q67.27812 60.125 67.27812 59.1875Q67.27812 58.28125 66.7625 57.765625Q66.2625 57.234375 65.43437 57.234375Q64.93437 57.234375 64.5125 57.46875Q64.10625 57.703125 63.871876 58.0625L62.8875 57.9375L63.715626 53.53125L67.99687 53.53125L67.99687 54.53125L64.55937 54.53125L64.10625 56.84375Q64.87187 56.296875 65.71562 56.296875Q66.84062 56.296875 67.60625 57.078125Q68.3875 57.859375 68.3875 59.09375Q68.3875 60.25 67.71562 61.109375Q66.8875 62.140625 65.46562 62.140625Q64.29375 62.140625 63.54375 61.484375Q62.809376 60.828125 62.7 59.75Z" fill-rule="nonzero"/><path fill="#000000" d="M74.02645 271.78436L74.02645 272.8L68.33895 272.8Q68.33895 272.425 68.46395 272.0656Q68.6827 271.4875 69.15145 270.925Q69.635826 270.3625 70.542076 269.6281Q71.948326 268.47186 72.4327 267.8Q72.9327 267.1281 72.9327 266.53436Q72.9327 265.90936 72.479576 265.4875Q72.02645 265.05 71.3077 265.05Q70.542076 265.05 70.08895 265.5031Q69.635826 265.95624 69.6202 266.76874L68.542076 266.65936Q68.65145 265.4406 69.3702 264.8156Q70.104576 264.175 71.33895 264.175Q72.573326 264.175 73.292076 264.8625Q74.010826 265.55 74.010826 266.5656Q74.010826 267.08124 73.792076 267.58124Q73.58895 268.0656 73.08895 268.6281Q72.604576 269.175 71.479576 270.1281Q70.52645 270.925 70.2452 271.22186Q69.979576 271.5031 69.8077 271.78436L74.02645 271.78436ZM75.479576 268.5656Q75.479576 267.03436 75.792076 266.1125Q76.104576 265.175 76.71395 264.675Q77.33895 264.175 78.27645 264.175Q78.96395 264.175 79.479576 264.45624Q80.010826 264.7375 80.354576 265.26874Q80.698326 265.78436 80.885826 266.53436Q81.073326 267.28436 81.073326 268.5656Q81.073326 270.08124 80.760826 271.0031Q80.46395 271.925 79.83895 272.4406Q79.229576 272.9406 78.27645 272.9406Q77.042076 272.9406 76.323326 272.05Q75.479576 270.9875 75.479576 268.5656ZM76.5577 268.5656Q76.5577 270.675 77.0577 271.3781Q77.5577 272.08124 78.27645 272.08124Q79.010826 272.08124 79.4952 271.3781Q79.9952 270.675 79.9952 268.5656Q79.9952 266.4406 79.4952 265.7531Q79.010826 265.05 78.260826 265.05Q77.542076 265.05 77.104576 265.65936Q76.5577 266.4406 76.5577 268.5656ZM82.479576 268.5656Q82.479576 267.03436 82.792076 266.1125Q83.104576 265.175 83.71395 264.675Q84.33895 264.175 85.27645 264.175Q85.96395 264.175 86.479576 264.45624Q87.010826 264.7375 87.354576 265.26874Q87.698326 265.78436 87.885826 266.53436Q88.073326 267.28436 88.073326 268.5656Q88.073326 270.08124 87.760826 271.0031Q87.46395 271.925 86.83895 272.4406Q86.229576 272.9406 85.27645 272.9406Q84.042076 272.9406 83.323326 272.05Q82.479576 270.9875 82.479576 268.5656ZM83.5577 268.5656Q83.5577 270.675 84.0577 271.3781Q84.5577 272.08124 85.27645 272.08124Q86.010826 272.08124 86.4952 271.3781Q86.9952 270.675 86.9952 268.5656Q86.9952 266.4406 86.4952 265.7531Q86.010826 265.05 85.260826 265.05Q84.542076 265.05 84.104576 265.65936Q83.5577 266.4406 83.5577 268.5656ZM94.948326 266.3156L93.90145 266.39374Q93.760826 265.76874 93.510826 265.4875Q93.073326 265.03436 92.448326 265.03436Q91.948326 265.03436 91.5577 265.3156Q91.073326 265.6906 90.77645 266.39374Q90.4952 267.08124 90.479576 268.3625Q90.854576 267.78436 91.40145 267.5031Q91.96395 267.22186 92.573326 267.22186Q93.6202 267.22186 94.354576 268.0031Q95.104576 268.78436 95.104576 270.0031Q95.104576 270.8156 94.7452 271.51874Q94.40145 272.20624 93.792076 272.58124Q93.1827 272.9406 92.417076 272.9406Q91.08895 272.9406 90.260826 271.97186Q89.4327 271.0031 89.4327 268.78436Q89.4327 266.28436 90.354576 265.15936Q91.15145 264.175 92.510826 264.175Q93.52645 264.175 94.167076 264.7531Q94.823326 265.3156 94.948326 266.3156ZM90.65145 270.01874Q90.65145 270.5656 90.8702 271.0656Q91.104576 271.55 91.510826 271.8156Q91.9327 272.08124 92.40145 272.08124Q93.0577 272.08124 93.542076 271.55Q94.02645 271.0031 94.02645 270.08124Q94.02645 269.1906 93.542076 268.675Q93.073326 268.15936 92.354576 268.15936Q91.635826 268.15936 91.135826 268.675Q90.65145 269.1906 90.65145 270.01874Z" fill-rule="nonzero"/><path fill="#000000" d="M126.156555 271.78436L126.156555 272.8L120.469055 272.8Q120.469055 272.425 120.594055 272.0656Q120.812805 271.4875 121.281555 270.925Q121.76593 270.3625 122.67218 269.6281Q124.07843 268.47186 124.562805 267.8Q125.062805 267.1281 125.062805 266.53436Q125.062805 265.90936 124.60968 265.4875Q124.156555 265.05 123.437805 265.05Q122.67218 265.05 122.219055 265.5031Q121.76593 265.95624 121.750305 266.76874L120.67218 266.65936Q120.781555 265.4406 121.500305 264.8156Q122.23468 264.175 123.469055 264.175Q124.70343 264.175 125.42218 264.8625Q126.14093 265.55 126.14093 266.5656Q126.14093 267.08124 125.92218 267.58124Q125.719055 268.0656 125.219055 268.6281Q124.73468 269.175 123.60968 270.1281Q122.656555 270.925 122.375305 271.22186Q122.10968 271.5031 121.937805 271.78436L126.156555 271.78436ZM127.60968 268.5656Q127.60968 267.03436 127.92218 266.1125Q128.23468 265.175 128.84406 264.675Q129.46906 264.175 130.40656 264.175Q131.09406 264.175 131.60968 264.45624Q132.14093 264.7375 132.48468 265.26874Q132.82843 265.78436 133.01593 266.53436Q133.20343 267.28436 133.20343 268.5656Q133.20343 270.08124 132.89093 271.0031Q132.59406 271.925 131.96906 272.4406Q131.35968 272.9406 130.40656 272.9406Q129.17218 272.9406 128.45343 272.05Q127.60968 270.9875 127.60968 268.5656ZM128.6878 268.5656Q128.6878 270.675 129.1878 271.3781Q129.6878 272.08124 130.40656 272.08124Q131.14093 272.08124 131.6253 271.3781Q132.1253 270.675 132.1253 268.5656Q132.1253 266.4406 131.6253 265.7531Q131.14093 265.05 130.39093 265.05Q129.67218 265.05 129.23468 265.65936Q128.6878 266.4406 128.6878 268.5656ZM134.60968 268.5656Q134.60968 267.03436 134.92218 266.1125Q135.23468 265.175 135.84406 264.675Q136.46906 264.175 137.40656 264.175Q138.09406 264.175 138.60968 264.45624Q139.14093 264.7375 139.48468 265.26874Q139.82843 265.78436 140.01593 266.53436Q140.20343 267.28436 140.20343 268.5656Q140.20343 270.08124 139.89093 271.0031Q139.59406 271.925 138.96906 272.4406Q138.35968 272.9406 137.40656 272.9406Q136.17218 272.9406 135.45343 272.05Q134.60968 270.9875 134.60968 268.5656ZM135.6878 268.5656Q135.6878 270.675 136.1878 271.3781Q136.6878 272.08124 137.40656 272.08124Q138.14093 272.08124 138.6253 271.3781Q139.1253 270.675 139.1253 268.5656Q139.1253 266.4406 138.6253 265.7531Q138.14093 265.05 137.39093 265.05Q136.67218 265.05 136.23468 265.65936Q135.6878 266.4406 135.6878 268.5656ZM143.23468 268.14374Q142.57843 267.89374 142.2503 267.45624Q141.9378 267.0031 141.9378 266.39374Q141.9378 265.45624 142.60968 264.8156Q143.29718 264.175 144.40656 264.175Q145.53156 264.175 146.21906 264.83124Q146.90656 265.4875 146.90656 266.425Q146.90656 267.01874 146.59406 267.45624Q146.28156 267.89374 145.64093 268.14374Q146.4378 268.39374 146.84406 268.97186Q147.2503 269.55 147.2503 270.34686Q147.2503 271.4406 146.46906 272.1906Q145.70343 272.9406 144.42218 272.9406Q143.15656 272.9406 142.3753 272.1906Q141.59406 271.4406 141.59406 270.3156Q141.59406 269.47186 142.01593 268.90936Q142.45343 268.34686 143.23468 268.14374ZM143.01593 266.34686Q143.01593 266.95624 143.40656 267.34686Q143.8128 267.7375 144.4378 267.7375Q145.04718 267.7375 145.4378 267.3625Q145.82843 266.97186 145.82843 266.40936Q145.82843 265.83124 145.42218 265.4406Q145.01593 265.03436 144.42218 265.03436Q143.8128 265.03436 143.40656 265.425Q143.01593 265.8156 143.01593 266.34686ZM142.6878 270.3156Q142.6878 270.76874 142.89093 271.1906Q143.10968 271.6125 143.53156 271.84686Q143.95343 272.08124 144.4378 272.08124Q145.1878 272.08124 145.67218 271.59686Q146.17218 271.1125 146.17218 270.3625Q146.17218 269.59686 145.67218 269.09686Q145.17218 268.59686 144.40656 268.59686Q143.65656 268.59686 143.17218 269.09686Q142.6878 269.58124 142.6878 270.3156Z" fill-rule="nonzero"/><path fill="#000000" d="M178.28667 271.78436L178.28667 272.8L172.59917 272.8Q172.59917 272.425 172.72417 272.0656Q172.94292 271.4875 173.41167 270.925Q173.89604 270.3625 174.80229 269.6281Q176.20854 268.47186 176.69292 267.8Q177.19292 267.1281 177.19292 266.53436Q177.19292 265.90936 176.73979 265.4875Q176.28667 265.05 175.56792 265.05Q174.80229 265.05 174.34917 265.5031Q173.89604 265.95624 173.88042 266.76874L172.80229 266.65936Q172.91167 265.4406 173.63042 264.8156Q174.36479 264.175 175.59917 264.175Q176.83354 264.175 177.55229 264.8625Q178.27104 265.55 178.27104 266.5656Q178.27104 267.08124 178.05229 267.58124Q177.84917 268.0656 177.34917 268.6281Q176.86479 269.175 175.73979 270.1281Q174.78667 270.925 174.50542 271.22186Q174.23979 271.5031 174.06792 271.78436L178.28667 271.78436ZM179.73979 268.5656Q179.73979 267.03436 180.05229 266.1125Q180.36479 265.175 180.97417 264.675Q181.59917 264.175 182.53667 264.175Q183.22417 264.175 183.73979 264.45624Q184.27104 264.7375 184.61479 265.26874Q184.95854 265.78436 185.14604 266.53436Q185.33354 267.28436 185.33354 268.5656Q185.33354 270.08124 185.02104 271.0031Q184.72417 271.925 184.09917 272.4406Q183.48979 272.9406 182.53667 272.9406Q181.30229 272.9406 180.58354 272.05Q179.73979 270.9875 179.73979 268.5656ZM180.81792 268.5656Q180.81792 270.675 181.31792 271.3781Q181.81792 272.08124 182.53667 272.08124Q183.27104 272.08124 183.75542 271.3781Q184.25542 270.675 184.25542 268.5656Q184.25542 266.4406 183.75542 265.7531Q183.27104 265.05 182.52104 265.05Q181.80229 265.05 181.36479 265.65936Q180.81792 266.4406 180.81792 268.5656ZM190.70854 272.8L189.66167 272.8L189.66167 266.08124Q189.27104 266.4406 188.64604 266.8156Q188.03667 267.175 187.55229 267.34686L187.55229 266.33124Q188.42729 265.90936 189.08354 265.33124Q189.75542 264.7375 190.03667 264.175L190.70854 264.175L190.70854 272.8ZM193.73979 268.5656Q193.73979 267.03436 194.05229 266.1125Q194.36479 265.175 194.97417 264.675Q195.59917 264.175 196.53667 264.175Q197.22417 264.175 197.73979 264.45624Q198.27104 264.7375 198.61479 265.26874Q198.95854 265.78436 199.14604 266.53436Q199.33354 267.28436 199.33354 268.5656Q199.33354 270.08124 199.02104 271.0031Q198.72417 271.925 198.09917 272.4406Q197.48979 272.9406 196.53667 272.9406Q195.30229 272.9406 194.58354 272.05Q193.73979 270.9875 193.73979 268.5656ZM194.81792 268.5656Q194.81792 270.675 195.31792 271.3781Q195.81792 272.08124 196.53667 272.08124Q197.27104 272.08124 197.75542 271.3781Q198.25542 270.675 198.25542 268.5656Q198.25542 266.4406 197.75542 265.7531Q197.27104 265.05 196.52104 265.05Q195.80229 265.05 195.36479 265.65936Q194.81792 266.4406 194.81792 268.5656Z" fill-rule="nonzero"/><path fill="#000000" d="M230.41676 271.78436L230.41676 272.8L224.72926 272.8Q224.72926 272.425 224.85426 272.0656Q225.07301 271.4875 225.54176 270.925Q226.02614 270.3625 226.93239 269.6281Q228.33864 268.47186 228.82301 267.8Q229.32301 267.1281 229.32301 266.53436Q229.32301 265.90936 228.86989 265.4875Q228.41676 265.05 227.69801 265.05Q226.93239 265.05 226.47926 265.5031Q226.02614 265.95624 226.01051 266.76874L224.93239 266.65936Q225.04176 265.4406 225.76051 264.8156Q226.49489 264.175 227.72926 264.175Q228.96364 264.175 229.68239 264.8625Q230.40114 265.55 230.40114 266.5656Q230.40114 267.08124 230.18239 267.58124Q229.97926 268.0656 229.47926 268.6281Q228.99489 269.175 227.86989 270.1281Q226.91676 270.925 226.63551 271.22186Q226.36989 271.5031 226.19801 271.78436L230.41676 271.78436ZM231.86989 268.5656Q231.86989 267.03436 232.18239 266.1125Q232.49489 265.175 233.10426 264.675Q233.72926 264.175 234.66676 264.175Q235.35426 264.175 235.86989 264.45624Q236.40114 264.7375 236.74489 265.26874Q237.08864 265.78436 237.27614 266.53436Q237.46364 267.28436 237.46364 268.5656Q237.46364 270.08124 237.15114 271.0031Q236.85426 271.925 236.22926 272.4406Q235.61989 272.9406 234.66676 272.9406Q233.43239 272.9406 232.71364 272.05Q231.86989 270.9875 231.86989 268.5656ZM232.94801 268.5656Q232.94801 270.675 233.44801 271.3781Q233.94801 272.08124 234.66676 272.08124Q235.40114 272.08124 235.88551 271.3781Q236.38551 270.675 236.38551 268.5656Q236.38551 266.4406 235.88551 265.7531Q235.40114 265.05 234.65114 265.05Q233.93239 265.05 233.49489 265.65936Q232.94801 266.4406 232.94801 268.5656ZM242.83864 272.8L241.79176 272.8L241.79176 266.08124Q241.40114 266.4406 240.77614 266.8156Q240.16676 267.175 239.68239 267.34686L239.68239 266.33124Q240.55739 265.90936 241.21364 265.33124Q241.88551 264.7375 242.16676 264.175L242.83864 264.175L242.83864 272.8ZM251.41676 271.78436L251.41676 272.8L245.72926 272.8Q245.72926 272.425 245.85426 272.0656Q246.07301 271.4875 246.54176 270.925Q247.02614 270.3625 247.93239 269.6281Q249.33864 268.47186 249.82301 267.8Q250.32301 267.1281 250.32301 266.53436Q250.32301 265.90936 249.86989 265.4875Q249.41676 265.05 248.69801 265.05Q247.93239 265.05 247.47926 265.5031Q247.02614 265.95624 247.01051 266.76874L245.93239 266.65936Q246.04176 265.4406 246.76051 264.8156Q247.49489 264.175 248.72926 264.175Q249.96364 264.175 250.68239 264.8625Q251.40114 265.55 251.40114 266.5656Q251.40114 267.08124 251.18239 267.58124Q250.97926 268.0656 250.47926 268.6281Q249.99489 269.175 248.86989 270.1281Q247.91676 270.925 247.63551 271.22186Q247.36989 271.5031 247.19801 271.78436L251.41676 271.78436Z" fill-rule="nonzero"/><path fill="#000000" d="M282.54688 271.78436L282.54688 272.8L276.85938 272.8Q276.85938 272.425 276.98438 272.0656Q277.20312 271.4875 277.67188 270.925Q278.15625 270.3625 279.0625 269.6281Q280.46875 268.47186 280.95312 267.8Q281.45312 267.1281 281.45312 266.53436Q281.45312 265.90936 281.0 265.4875Q280.54688 265.05 279.82812 265.05Q279.0625 265.05 278.60938 265.5031Q278.15625 265.95624 278.14062 266.76874L277.0625 266.65936Q277.17188 265.4406 277.89062 264.8156Q278.625 264.175 279.85938 264.175Q281.09375 264.175 281.8125 264.8625Q282.53125 265.55 282.53125 266.5656Q282.53125 267.08124 282.3125 267.58124Q282.10938 268.0656 281.60938 268.6281Q281.125 269.175 280.0 270.1281Q279.04688 270.925 278.76562 271.22186Q278.5 271.5031 278.32812 271.78436L282.54688 271.78436ZM284.0 268.5656Q284.0 267.03436 284.3125 266.1125Q284.625 265.175 285.23438 264.675Q285.85938 264.175 286.79688 264.175Q287.48438 264.175 288.0 264.45624Q288.53125 264.7375 288.875 265.26874Q289.21875 265.78436 289.40625 266.53436Q289.59375 267.28436 289.59375 268.5656Q289.59375 270.08124 289.28125 271.0031Q288.98438 271.925 288.35938 272.4406Q287.75 272.9406 286.79688 272.9406Q285.5625 272.9406 284.84375 272.05Q284.0 270.9875 284.0 268.5656ZM285.07812 268.5656Q285.07812 270.675 285.57812 271.3781Q286.07812 272.08124 286.79688 272.08124Q287.53125 272.08124 288.01562 271.3781Q288.51562 270.675 288.51562 268.5656Q288.51562 266.4406 288.01562 265.7531Q287.53125 265.05 286.78125 265.05Q286.0625 265.05 285.625 265.65936Q285.07812 266.4406 285.07812 268.5656ZM294.96875 272.8L293.92188 272.8L293.92188 266.08124Q293.53125 266.4406 292.90625 266.8156Q292.29688 267.175 291.8125 267.34686L291.8125 266.33124Q292.6875 265.90936 293.34375 265.33124Q294.01562 264.7375 294.29688 264.175L294.96875 264.175L294.96875 272.8ZM301.375 272.8L301.375 270.7375L297.65625 270.7375L297.65625 269.76874L301.57812 264.20624L302.4375 264.20624L302.4375 269.76874L303.59375 269.76874L303.59375 270.7375L302.4375 270.7375L302.4375 272.8L301.375 272.8ZM301.375 269.76874L301.375 265.90936L298.6875 269.76874L301.375 269.76874Z" fill-rule="nonzero"/><path fill="#000000" d="M334.67697 271.78436L334.67697 272.8L328.98947 272.8Q328.98947 272.425 329.11447 272.0656Q329.33322 271.4875 329.80197 270.925Q330.28635 270.3625 331.1926 269.6281Q332.59885 268.47186 333.08322 267.8Q333.58322 267.1281 333.58322 266.53436Q333.58322 265.90936 333.1301 265.4875Q332.67697 265.05 331.95822 265.05Q331.1926 265.05 330.73947 265.5031Q330.28635 265.95624 330.27072 266.76874L329.1926 266.65936Q329.30197 265.4406 330.02072 264.8156Q330.7551 264.175 331.98947 264.175Q333.22385 264.175 333.9426 264.8625Q334.66135 265.55 334.66135 266.5656Q334.66135 267.08124 334.4426 267.58124Q334.23947 268.0656 333.73947 268.6281Q333.2551 269.175 332.1301 270.1281Q331.17697 270.925 330.89572 271.22186Q330.6301 271.5031 330.45822 271.78436L334.67697 271.78436ZM336.1301 268.5656Q336.1301 267.03436 336.4426 266.1125Q336.7551 265.175 337.36447 264.675Q337.98947 264.175 338.92697 264.175Q339.61447 264.175 340.1301 264.45624Q340.66135 264.7375 341.0051 265.26874Q341.34885 265.78436 341.53635 266.53436Q341.72385 267.28436 341.72385 268.5656Q341.72385 270.08124 341.41135 271.0031Q341.11447 271.925 340.48947 272.4406Q339.8801 272.9406 338.92697 272.9406Q337.6926 272.9406 336.97385 272.05Q336.1301 270.9875 336.1301 268.5656ZM337.20822 268.5656Q337.20822 270.675 337.70822 271.3781Q338.20822 272.08124 338.92697 272.08124Q339.66135 272.08124 340.14572 271.3781Q340.64572 270.675 340.64572 268.5656Q340.64572 266.4406 340.14572 265.7531Q339.66135 265.05 338.91135 265.05Q338.1926 265.05 337.7551 265.65936Q337.20822 266.4406 337.20822 268.5656ZM347.09885 272.8L346.05197 272.8L346.05197 266.08124Q345.66135 266.4406 345.03635 266.8156Q344.42697 267.175 343.9426 267.34686L343.9426 266.33124Q344.8176 265.90936 345.47385 265.33124Q346.14572 264.7375 346.42697 264.175L347.09885 264.175L347.09885 272.8ZM355.59885 266.3156L354.55197 266.39374Q354.41135 265.76874 354.16135 265.4875Q353.72385 265.03436 353.09885 265.03436Q352.59885 265.03436 352.20822 265.3156Q351.72385 265.6906 351.42697 266.39374Q351.14572 267.08124 351.1301 268.3625Q351.5051 267.78436 352.05197 267.5031Q352.61447 267.22186 353.22385 267.22186Q354.27072 267.22186 355.0051 268.0031Q355.7551 268.78436 355.7551 270.0031Q355.7551 270.8156 355.39572 271.51874Q355.05197 272.20624 354.4426 272.58124Q353.83322 272.9406 353.0676 272.9406Q351.73947 272.9406 350.91135 271.97186Q350.08322 271.0031 350.08322 268.78436Q350.08322 266.28436 351.0051 265.15936Q351.80197 264.175 353.16135 264.175Q354.17697 264.175 354.8176 264.7531Q355.47385 265.3156 355.59885 266.3156ZM351.30197 270.01874Q351.30197 270.5656 351.52072 271.0656Q351.7551 271.55 352.16135 271.8156Q352.58322 272.08124 353.05197 272.08124Q353.70822 272.08124 354.1926 271.55Q354.67697 271.0031 354.67697 270.08124Q354.67697 269.1906 354.1926 268.675Q353.72385 268.15936 353.0051 268.15936Q352.28635 268.15936 351.78635 268.675Q351.30197 269.1906 351.30197 270.01874Z" fill-rule="nonzero"/><path fill="#000000" d="M386.8071 271.78436L386.8071 272.8L381.1196 272.8Q381.1196 272.425 381.2446 272.0656Q381.46335 271.4875 381.9321 270.925Q382.41647 270.3625 383.32272 269.6281Q384.72897 268.47186 385.21335 267.8Q385.71335 267.1281 385.71335 266.53436Q385.71335 265.90936 385.26022 265.4875Q384.8071 265.05 384.08835 265.05Q383.32272 265.05 382.8696 265.5031Q382.41647 265.95624 382.40085 266.76874L381.32272 266.65936Q381.4321 265.4406 382.15085 264.8156Q382.88522 264.175 384.1196 264.175Q385.35397 264.175 386.07272 264.8625Q386.79147 265.55 386.79147 266.5656Q386.79147 267.08124 386.57272 267.58124Q386.3696 268.0656 385.8696 268.6281Q385.38522 269.175 384.26022 270.1281Q383.3071 270.925 383.02585 271.22186Q382.76022 271.5031 382.58835 271.78436L386.8071 271.78436ZM388.26022 268.5656Q388.26022 267.03436 388.57272 266.1125Q388.88522 265.175 389.4946 264.675Q390.1196 264.175 391.0571 264.175Q391.7446 264.175 392.26022 264.45624Q392.79147 264.7375 393.13522 265.26874Q393.47897 265.78436 393.66647 266.53436Q393.85397 267.28436 393.85397 268.5656Q393.85397 270.08124 393.54147 271.0031Q393.2446 271.925 392.6196 272.4406Q392.01022 272.9406 391.0571 272.9406Q389.82272 272.9406 389.10397 272.05Q388.26022 270.9875 388.26022 268.5656ZM389.33835 268.5656Q389.33835 270.675 389.83835 271.3781Q390.33835 272.08124 391.0571 272.08124Q391.79147 272.08124 392.27585 271.3781Q392.77585 270.675 392.77585 268.5656Q392.77585 266.4406 392.27585 265.7531Q391.79147 265.05 391.04147 265.05Q390.32272 265.05 389.88522 265.65936Q389.33835 266.4406 389.33835 268.5656ZM399.22897 272.8L398.1821 272.8L398.1821 266.08124Q397.79147 266.4406 397.16647 266.8156Q396.5571 267.175 396.07272 267.34686L396.07272 266.33124Q396.94772 265.90936 397.60397 265.33124Q398.27585 264.7375 398.5571 264.175L399.22897 264.175L399.22897 272.8ZM403.88522 268.14374Q403.22897 267.89374 402.90085 267.45624Q402.58835 267.0031 402.58835 266.39374Q402.58835 265.45624 403.26022 264.8156Q403.94772 264.175 405.0571 264.175Q406.1821 264.175 406.8696 264.83124Q407.5571 265.4875 407.5571 266.425Q407.5571 267.01874 407.2446 267.45624Q406.9321 267.89374 406.29147 268.14374Q407.08835 268.39374 407.4946 268.97186Q407.90085 269.55 407.90085 270.34686Q407.90085 271.4406 407.1196 272.1906Q406.35397 272.9406 405.07272 272.9406Q403.8071 272.9406 403.02585 272.1906Q402.2446 271.4406 402.2446 270.3156Q402.2446 269.47186 402.66647 268.90936Q403.10397 268.34686 403.88522 268.14374ZM403.66647 266.34686Q403.66647 266.95624 404.0571 267.34686Q404.46335 267.7375 405.08835 267.7375Q405.69772 267.7375 406.08835 267.3625Q406.47897 266.97186 406.47897 266.40936Q406.47897 265.83124 406.07272 265.4406Q405.66647 265.03436 405.07272 265.03436Q404.46335 265.03436 404.0571 265.425Q403.66647 265.8156 403.66647 266.34686ZM403.33835 270.3156Q403.33835 270.76874 403.54147 271.1906Q403.76022 271.6125 404.1821 271.84686Q404.60397 272.08124 405.08835 272.08124Q405.83835 272.08124 406.32272 271.59686Q406.82272 271.1125 406.82272 270.3625Q406.82272 269.59686 406.32272 269.09686Q405.82272 268.59686 405.0571 268.59686Q404.3071 268.59686 403.82272 269.09686Q403.33835 269.58124 403.33835 270.3156Z" fill-rule="nonzero"/><path fill="#000000" d="M438.9372 271.78436L438.9372 272.8L433.2497 272.8Q433.2497 272.425 433.3747 272.0656Q433.59344 271.4875 434.0622 270.925Q434.54657 270.3625 435.45282 269.6281Q436.85907 268.47186 437.34344 267.8Q437.84344 267.1281 437.84344 266.53436Q437.84344 265.90936 437.39032 265.4875Q436.9372 265.05 436.21844 265.05Q435.45282 265.05 434.9997 265.5031Q434.54657 265.95624 434.53094 266.76874L433.45282 266.65936Q433.5622 265.4406 434.28094 264.8156Q435.01532 264.175 436.2497 264.175Q437.48407 264.175 438.20282 264.8625Q438.92157 265.55 438.92157 266.5656Q438.92157 267.08124 438.70282 267.58124Q438.4997 268.0656 437.9997 268.6281Q437.51532 269.175 436.39032 270.1281Q435.4372 270.925 435.15594 271.22186Q434.89032 271.5031 434.71844 271.78436L438.9372 271.78436ZM440.39032 268.5656Q440.39032 267.03436 440.70282 266.1125Q441.01532 265.175 441.6247 264.675Q442.2497 264.175 443.1872 264.175Q443.8747 264.175 444.39032 264.45624Q444.92157 264.7375 445.26532 265.26874Q445.60907 265.78436 445.79657 266.53436Q445.98407 267.28436 445.98407 268.5656Q445.98407 270.08124 445.67157 271.0031Q445.3747 271.925 444.7497 272.4406Q444.14032 272.9406 443.1872 272.9406Q441.95282 272.9406 441.23407 272.05Q440.39032 270.9875 440.39032 268.5656ZM441.46844 268.5656Q441.46844 270.675 441.96844 271.3781Q442.46844 272.08124 443.1872 272.08124Q443.92157 272.08124 444.40594 271.3781Q444.90594 270.675 444.90594 268.5656Q444.90594 266.4406 444.40594 265.7531Q443.92157 265.05 443.17157 265.05Q442.45282 265.05 442.01532 265.65936Q441.46844 266.4406 441.46844 268.5656ZM452.9372 271.78436L452.9372 272.8L447.2497 272.8Q447.2497 272.425 447.3747 272.0656Q447.59344 271.4875 448.0622 270.925Q448.54657 270.3625 449.45282 269.6281Q450.85907 268.47186 451.34344 267.8Q451.84344 267.1281 451.84344 266.53436Q451.84344 265.90936 451.39032 265.4875Q450.9372 265.05 450.21844 265.05Q449.45282 265.05 448.9997 265.5031Q448.54657 265.95624 448.53094 266.76874L447.45282 266.65936Q447.5622 265.4406 448.28094 264.8156Q449.01532 264.175 450.2497 264.175Q451.48407 264.175 452.20282 264.8625Q452.92157 265.55 452.92157 266.5656Q452.92157 267.08124 452.70282 267.58124Q452.4997 268.0656 451.9997 268.6281Q451.51532 269.175 450.39032 270.1281Q449.4372 270.925 449.15594 271.22186Q448.89032 271.5031 448.71844 271.78436L452.9372 271.78436ZM454.39032 268.5656Q454.39032 267.03436 454.70282 266.1125Q455.01532 265.175 455.6247 264.675Q456.2497 264.175 457.1872 264.175Q457.8747 264.175 458.39032 264.45624Q458.92157 264.7375 459.26532 265.26874Q459.60907 265.78436 459.79657 266.53436Q459.98407 267.28436 459.98407 268.5656Q459.98407 270.08124 459.67157 271.0031Q459.3747 271.925 458.7497 272.4406Q458.14032 272.9406 457.1872 272.9406Q455.95282 272.9406 455.23407 272.05Q454.39032 270.9875 454.39032 268.5656ZM455.46844 268.5656Q455.46844 270.675 455.96844 271.3781Q456.46844 272.08124 457.1872 272.08124Q457.92157 272.08124 458.40594 271.3781Q458.90594 270.675 458.90594 268.5656Q458.90594 266.4406 458.40594 265.7531Q457.92157 265.05 457.17157 265.05Q456.45282 265.05 456.01532 265.65936Q455.46844 266.4406 455.46844 268.5656Z" fill-rule="nonzero"/><path fill="#000000" d="M491.0673 271.78436L491.0673 272.8L485.3798 272.8Q485.3798 272.425 485.5048 272.0656Q485.72354 271.4875 486.1923 270.925Q486.67667 270.3625 487.58292 269.6281Q488.98917 268.47186 489.47354 267.8Q489.97354 267.1281 489.97354 266.53436Q489.97354 265.90936 489.52042 265.4875Q489.0673 265.05 488.34854 265.05Q487.58292 265.05 487.1298 265.5031Q486.67667 265.95624 486.66104 266.76874L485.58292 266.65936Q485.6923 265.4406 486.41104 264.8156Q487.14542 264.175 488.3798 264.175Q489.61417 264.175 490.33292 264.8625Q491.05167 265.55 491.05167 266.5656Q491.05167 267.08124 490.83292 267.58124Q490.6298 268.0656 490.1298 268.6281Q489.64542 269.175 488.52042 270.1281Q487.5673 270.925 487.28604 271.22186Q487.02042 271.5031 486.84854 271.78436L491.0673 271.78436ZM492.52042 268.5656Q492.52042 267.03436 492.83292 266.1125Q493.14542 265.175 493.7548 264.675Q494.3798 264.175 495.3173 264.175Q496.0048 264.175 496.52042 264.45624Q497.05167 264.7375 497.39542 265.26874Q497.73917 265.78436 497.92667 266.53436Q498.11417 267.28436 498.11417 268.5656Q498.11417 270.08124 497.80167 271.0031Q497.5048 271.925 496.8798 272.4406Q496.27042 272.9406 495.3173 272.9406Q494.08292 272.9406 493.36417 272.05Q492.52042 270.9875 492.52042 268.5656ZM493.59854 268.5656Q493.59854 270.675 494.09854 271.3781Q494.59854 272.08124 495.3173 272.08124Q496.05167 272.08124 496.53604 271.3781Q497.03604 270.675 497.03604 268.5656Q497.03604 266.4406 496.53604 265.7531Q496.05167 265.05 495.30167 265.05Q494.58292 265.05 494.14542 265.65936Q493.59854 266.4406 493.59854 268.5656ZM505.0673 271.78436L505.0673 272.8L499.3798 272.8Q499.3798 272.425 499.5048 272.0656Q499.72354 271.4875 500.1923 270.925Q500.67667 270.3625 501.58292 269.6281Q502.98917 268.47186 503.47354 267.8Q503.97354 267.1281 503.97354 266.53436Q503.97354 265.90936 503.52042 265.4875Q503.0673 265.05 502.34854 265.05Q501.58292 265.05 501.1298 265.5031Q500.67667 265.95624 500.66104 266.76874L499.58292 266.65936Q499.6923 265.4406 500.41104 264.8156Q501.14542 264.175 502.3798 264.175Q503.61417 264.175 504.33292 264.8625Q505.05167 265.55 505.05167 266.5656Q505.05167 267.08124 504.83292 267.58124Q504.6298 268.0656 504.1298 268.6281Q503.64542 269.175 502.52042 270.1281Q501.5673 270.925 501.28604 271.22186Q501.02042 271.5031 500.84854 271.78436L505.0673 271.78436ZM512.06726 271.78436L512.06726 272.8L506.3798 272.8Q506.3798 272.425 506.5048 272.0656Q506.72354 271.4875 507.1923 270.925Q507.67667 270.3625 508.58292 269.6281Q509.98917 268.47186 510.47354 267.8Q510.97354 267.1281 510.97354 266.53436Q510.97354 265.90936 510.52042 265.4875Q510.0673 265.05 509.34854 265.05Q508.58292 265.05 508.1298 265.5031Q507.67667 265.95624 507.66104 266.76874L506.58292 266.65936Q506.6923 265.4406 507.41104 264.8156Q508.14542 264.175 509.3798 264.175Q510.61417 264.175 511.33292 264.8625Q512.05164 265.55 512.05164 266.5656Q512.05164 267.08124 511.83292 267.58124Q511.6298 268.0656 511.1298 268.6281Q510.64542 269.175 509.52042 270.1281Q508.5673 270.925 508.28604 271.22186Q508.02042 271.5031 507.84854 271.78436L512.06726 271.78436Z" fill-rule="nonzero"/><path fill="#757575" d="M24.45 29.590626L24.45 27.903126L30.5125 27.8875L30.5125 33.2Q29.10625 34.325 27.621876 34.8875Q26.1375 35.45 24.575 35.45Q22.465626 35.45 20.746876 34.54375Q19.028126 33.6375 18.1375 31.934376Q17.2625 30.215626 17.2625 28.10625Q17.2625 26.0125 18.1375 24.215626Q19.0125 22.403126 20.653126 21.528126Q22.29375 20.6375 24.434376 20.6375Q25.98125 20.6375 27.23125 21.1375Q28.496876 21.6375 29.2 22.54375Q29.91875 23.434376 30.29375 24.8875L28.590626 25.35625Q28.2625 24.2625 27.778126 23.6375Q27.309376 23.0125 26.41875 22.6375Q25.528126 22.2625 24.45 22.2625Q23.1375 22.2625 22.184376 22.653126Q21.246876 23.04375 20.66875 23.7Q20.090626 24.340626 19.7625 25.10625Q19.215626 26.434376 19.215626 27.996876Q19.215626 29.903126 19.871876 31.2Q20.54375 32.48125 21.79375 33.10625Q23.059376 33.73125 24.465626 33.73125Q25.7 33.73125 26.871876 33.2625Q28.04375 32.79375 28.653126 32.246876L28.653126 29.590626L24.45 29.590626ZM33.48125 35.2L33.48125 20.8875L35.23125 20.8875L35.23125 35.2L33.48125 35.2ZM36.871876 30.0125Q36.871876 27.1375 38.465626 25.746876Q39.809376 24.590626 41.73125 24.590626Q43.871876 24.590626 45.215626 25.996876Q46.575 27.403126 46.575 29.871876Q46.575 31.871876 45.98125 33.028126Q45.3875 34.16875 44.23125 34.809376Q43.090626 35.434376 41.73125 35.434376Q39.54375 35.434376 38.2 34.04375Q36.871876 32.6375 36.871876 30.0125ZM38.66875 30.0125Q38.66875 32.0125 39.528126 32.996876Q40.403126 33.98125 41.73125 33.98125Q43.04375 33.98125 43.903126 32.996876Q44.778126 31.996876 44.778126 29.95Q44.778126 28.028126 43.903126 27.04375Q43.028126 26.04375 41.73125 26.04375Q40.403126 26.04375 39.528126 27.04375Q38.66875 28.028126 38.66875 30.0125ZM50.1375 35.2L48.5125 35.2L48.5125 20.8875L50.2625 20.8875L50.2625 25.996876Q51.3875 24.590626 53.10625 24.590626Q54.059376 24.590626 54.91875 24.98125Q55.778126 25.371876 56.325 26.075Q56.871876 26.7625 57.184376 27.746876Q57.496876 28.73125 57.496876 29.85625Q57.496876 32.528126 56.184376 33.98125Q54.871876 35.434376 53.028126 35.434376Q51.184376 35.434376 50.1375 33.903126L50.1375 35.2ZM50.121876 29.934376Q50.121876 31.79375 50.621876 32.6375Q51.465626 33.98125 52.871876 33.98125Q54.028126 33.98125 54.85625 32.98125Q55.7 31.98125 55.7 29.996876Q55.7 27.965626 54.8875 27.0125Q54.090626 26.04375 52.95 26.04375Q51.79375 26.04375 50.95 27.04375Q50.121876 28.04375 50.121876 29.934376ZM66.29375 33.91875Q65.30937 34.746876 64.40312 35.090626Q63.496876 35.434376 62.465626 35.434376Q60.7625 35.434376 59.840626 34.60625Q58.91875 33.7625 58.91875 32.465626Q58.91875 31.7 59.2625 31.075Q59.621876 30.45 60.184376 30.075Q60.746876 29.684376 61.45 29.48125Q61.965626 29.35625 63.0125 29.215626Q65.1375 28.965626 66.1375 28.621876Q66.15312 28.2625 66.15312 28.153126Q66.15312 27.090626 65.65312 26.6375Q64.98125 26.04375 63.653126 26.04375Q62.403126 26.04375 61.809376 26.48125Q61.23125 26.91875 60.95 28.028126L59.23125 27.79375Q59.465626 26.684376 59.996876 26.0125Q60.528126 25.325 61.54375 24.965626Q62.559376 24.590626 63.903126 24.590626Q65.23125 24.590626 66.05937 24.903126Q66.8875 25.215626 67.27812 25.7Q67.66875 26.16875 67.825 26.8875Q67.91875 27.340626 67.91875 28.5125L67.91875 30.85625Q67.91875 33.309376 68.02812 33.965626Q68.1375 34.60625 68.48125 35.2L66.6375 35.2Q66.37187 34.653126 66.29375 33.91875ZM66.1375 29.996876Q65.18437 30.3875 63.2625 30.653126Q62.184376 30.809376 61.73125 31.0125Q61.29375 31.2 61.04375 31.575Q60.79375 31.95 60.79375 32.41875Q60.79375 33.121876 61.325 33.590626Q61.85625 34.059376 62.8875 34.059376Q63.903126 34.059376 64.68437 33.621876Q65.48125 33.16875 65.85625 32.403126Q66.1375 31.79375 66.1375 30.6375L66.1375 29.996876ZM70.48125 35.2L70.48125 20.8875L72.23125 20.8875L72.23125 35.2L70.48125 35.2ZM87.29375 33.91875Q86.30937 34.746876 85.40312 35.090626Q84.49687 35.434376 83.46562 35.434376Q81.7625 35.434376 80.84062 34.60625Q79.91875 33.7625 79.91875 32.465626Q79.91875 31.7 80.2625 31.075Q80.62187 30.45 81.18437 30.075Q81.74687 29.684376 82.45 29.48125Q82.96562 29.35625 84.0125 29.215626Q86.1375 28.965626 87.1375 28.621876Q87.15312 28.2625 87.15312 28.153126Q87.15312 27.090626 86.65312 26.6375Q85.98125 26.04375 84.65312 26.04375Q83.40312 26.04375 82.80937 26.48125Q82.23125 26.91875 81.95 28.028126L80.23125 27.79375Q80.46562 26.684376 80.99687 26.0125Q81.52812 25.325 82.54375 24.965626Q83.55937 24.590626 84.90312 24.590626Q86.23125 24.590626 87.05937 24.903126Q87.8875 25.215626 88.27812 25.7Q88.66875 26.16875 88.825 26.8875Q88.91875 27.340626 88.91875 28.5125L88.91875 30.85625Q88.91875 33.309376 89.02812 33.965626Q89.1375 34.60625 89.48125 35.2L87.6375 35.2Q87.37187 34.653126 87.29375 33.91875ZM87.1375 29.996876Q86.18437 30.3875 84.2625 30.653126Q83.18437 30.809376 82.73125 31.0125Q82.29375 31.2 82.04375 31.575Q81.79375 31.95 81.79375 32.41875Q81.79375 33.121876 82.325 33.590626Q82.85625 34.059376 83.8875 34.059376Q84.90312 34.059376 85.68437 33.621876Q86.48125 33.16875 86.85625 32.403126Q87.1375 31.79375 87.1375 30.6375L87.1375 29.996876ZM94.40312 35.2L90.45 24.825L92.30937 24.825L94.54375 31.04375Q94.90312 32.04375 95.2 33.121876Q95.43437 32.309376 95.85625 31.153126L98.15312 24.825L99.96562 24.825L96.04375 35.2L94.40312 35.2ZM107.62187 31.85625L109.43437 32.090626Q109.0125 33.66875 107.84062 34.559376Q106.68437 35.434376 104.87187 35.434376Q102.60625 35.434376 101.2625 34.04375Q99.93437 32.6375 99.93437 30.10625Q99.93437 27.48125 101.27812 26.04375Q102.62187 24.590626 104.77812 24.590626Q106.85625 24.590626 108.16875 26.0125Q109.49687 27.41875 109.49687 29.996876Q109.49687 30.153126 109.48125 30.465626L101.74687 30.465626Q101.84062 32.16875 102.71562 33.075Q103.59062 33.98125 104.8875 33.98125Q105.85625 33.98125 106.52812 33.48125Q107.21562 32.965626 107.62187 31.85625ZM101.84062 29.0125L107.6375 29.0125Q107.52812 27.715626 106.98125 27.059376Q106.1375 26.04375 104.79375 26.04375Q103.59062 26.04375 102.7625 26.85625Q101.93437 27.653126 101.84062 29.0125ZM111.49687 35.2L111.49687 24.825L113.075 24.825L113.075 26.403126Q113.68437 25.29375 114.2 24.95Q114.71562 24.590626 115.325 24.590626Q116.21562 24.590626 117.1375 25.153126L116.52812 26.79375Q115.8875 26.403126 115.24687 26.403126Q114.66875 26.403126 114.2 26.7625Q113.74687 27.10625 113.54375 27.715626Q113.2625 28.653126 113.2625 29.7625L113.2625 35.2L111.49687 35.2ZM125.29375 33.91875Q124.30937 34.746876 123.40312 35.090626Q122.49687 35.434376 121.46562 35.434376Q119.7625 35.434376 118.84062 34.60625Q117.91875 33.7625 117.91875 32.465626Q117.91875 31.7 118.2625 31.075Q118.62187 30.45 119.18437 30.075Q119.74687 29.684376 120.45 29.48125Q120.96562 29.35625 122.0125 29.215626Q124.1375 28.965626 125.1375 28.621876Q125.15312 28.2625 125.15312 28.153126Q125.15312 27.090626 124.65312 26.6375Q123.98125 26.04375 122.65312 26.04375Q121.40312 26.04375 120.80937 26.48125Q120.23125 26.91875 119.95 28.028126L118.23125 27.79375Q118.46562 26.684376 118.99687 26.0125Q119.52812 25.325 120.54375 24.965626Q121.55937 24.590626 122.90312 24.590626Q124.23125 24.590626 125.05937 24.903126Q125.8875 25.215626 126.27812 25.7Q126.66875 26.16875 126.825 26.8875Q126.91875 27.340626 126.91875 28.5125L126.91875 30.85625Q126.91875 33.309376 127.02812 33.965626Q127.1375 34.60625 127.48125 35.2L125.6375 35.2Q125.37187 34.653126 125.29375 33.91875ZM125.1375 29.996876Q124.18437 30.3875 122.2625 30.653126Q121.18437 30.809376 120.73125 31.0125Q120.29375 31.2 120.04375 31.575Q119.79375 31.95 119.79375 32.41875Q119.79375 33.121876 120.325 33.590626Q120.85625 34.059376 121.8875 34.059376Q122.90312 34.059376 123.68437 33.621876Q124.48125 33.16875 124.85625 32.403126Q125.1375 31.79375 125.1375 30.6375L125.1375 29.996876ZM129.2 36.059376L130.90312 36.309376Q131.0125 37.10625 131.49687 37.465626Q132.15312 37.95 133.29375 37.95Q134.5125 37.95 135.16875 37.465626Q135.84062 36.98125 136.075 36.10625Q136.21562 35.559376 136.2 33.840626Q135.04375 35.2 133.325 35.2Q131.18437 35.2 130.0125 33.653126Q128.84062 32.10625 128.84062 29.95Q128.84062 28.465626 129.37187 27.215626Q129.91875 25.965626 130.93437 25.278126Q131.96562 24.590626 133.34062 24.590626Q135.16875 24.590626 136.37187 26.075L136.37187 24.825L137.98125 24.825L137.98125 33.79375Q137.98125 36.215626 137.48125 37.215626Q136.99687 38.23125 135.91875 38.809376Q134.85625 39.403126 133.29375 39.403126Q131.45 39.403126 130.29375 38.575Q129.15312 37.746876 129.2 36.059376ZM130.65312 29.825Q130.65312 31.871876 131.46562 32.809376Q132.27812 33.746876 133.49687 33.746876Q134.7 33.746876 135.5125 32.809376Q136.34062 31.871876 136.34062 29.8875Q136.34062 27.98125 135.49687 27.0125Q134.65312 26.04375 133.46562 26.04375Q132.29375 26.04375 131.46562 26.996876Q130.65312 27.95 130.65312 29.825ZM147.62187 31.85625L149.43437 32.090626Q149.0125 33.66875 147.84062 34.559376Q146.68437 35.434376 144.87187 35.434376Q142.60625 35.434376 141.2625 34.04375Q139.93437 32.6375 139.93437 30.10625Q139.93437 27.48125 141.27812 26.04375Q142.62187 24.590626 144.77812 24.590626Q146.85625 24.590626 148.16875 26.0125Q149.49687 27.41875 149.49687 29.996876Q149.49687 30.153126 149.48125 30.465626L141.74687 30.465626Q141.84062 32.16875 142.71562 33.075Q143.59062 33.98125 144.8875 33.98125Q145.85625 33.98125 146.52812 33.48125Q147.21562 32.965626 147.62187 31.85625ZM141.84062 29.0125L147.6375 29.0125Q147.52812 27.715626 146.98125 27.059376Q146.1375 26.04375 144.79375 26.04375Q143.59062 26.04375 142.7625 26.85625Q141.93437 27.653126 141.84062 29.0125ZM157.5125 35.2L157.5125 20.8875L159.27812 20.8875L159.27812 26.0125Q160.5125 24.590626 162.3875 24.590626Q163.52812 24.590626 164.37187 25.04375Q165.23125 25.496876 165.59062 26.309376Q165.96562 27.10625 165.96562 28.621876L165.96562 35.2L164.21562 35.2L164.21562 28.621876Q164.21562 27.309376 163.6375 26.715626Q163.05937 26.10625 162.02812 26.10625Q161.24687 26.10625 160.54375 26.5125Q159.85625 26.91875 159.55937 27.621876Q159.27812 28.309376 159.27812 29.528126L159.27812 35.2L157.5125 35.2ZM174.29375 33.91875Q173.30937 34.746876 172.40312 35.090626Q171.49687 35.434376 170.46562 35.434376Q168.7625 35.434376 167.84062 34.60625Q166.91875 33.7625 166.91875 32.465626Q166.91875 31.7 167.2625 31.075Q167.62187 30.45 168.18437 30.075Q168.74687 29.684376 169.45 29.48125Q169.96562 29.35625 171.0125 29.215626Q173.1375 28.965626 174.1375 28.621876Q174.15312 28.2625 174.15312 28.153126Q174.15312 27.090626 173.65312 26.6375Q172.98125 26.04375 171.65312 26.04375Q170.40312 26.04375 169.80937 26.48125Q169.23125 26.91875 168.95 28.028126L167.23125 27.79375Q167.46562 26.684376 167.99687 26.0125Q168.52812 25.325 169.54375 24.965626Q170.55937 24.590626 171.90312 24.590626Q173.23125 24.590626 174.05937 24.903126Q174.8875 25.215626 175.27812 25.7Q175.66875 26.16875 175.825 26.8875Q175.91875 27.340626 175.91875 28.5125L175.91875 30.85625Q175.91875 33.309376 176.02812 33.965626Q176.1375 34.60625 176.48125 35.2L174.6375 35.2Q174.37187 34.653126 174.29375 33.91875ZM174.1375 29.996876Q173.18437 30.3875 171.2625 30.653126Q170.18437 30.809376 169.73125 31.0125Q169.29375 31.2 169.04375 31.575Q168.79375 31.95 168.79375 32.41875Q168.79375 33.121876 169.325 33.590626Q169.85625 34.059376 170.8875 34.059376Q171.90312 34.059376 172.68437 33.621876Q173.48125 33.16875 173.85625 32.403126Q174.1375 31.79375 174.1375 30.6375L174.1375 29.996876ZM178.5125 39.16875L178.5125 24.825L180.12187 24.825L180.12187 26.16875Q180.68437 25.3875 181.3875 24.996876Q182.10625 24.590626 183.12187 24.590626Q184.45 24.590626 185.46562 25.278126Q186.48125 25.965626 186.99687 27.215626Q187.52812 28.45 187.52812 29.934376Q187.52812 31.528126 186.95 32.809376Q186.3875 34.075 185.29375 34.7625Q184.2 35.434376 182.99687 35.434376Q182.12187 35.434376 181.41875 35.059376Q180.73125 34.684376 180.27812 34.121876L180.27812 39.16875L178.5125 39.16875ZM180.10625 30.075Q180.10625 32.075 180.91875 33.028126Q181.73125 33.98125 182.8875 33.98125Q184.05937 33.98125 184.8875 32.996876Q185.73125 32.0125 185.73125 29.91875Q185.73125 27.95 184.90312 26.965626Q184.09062 25.965626 182.96562 25.965626Q181.84062 25.965626 180.96562 27.028126Q180.10625 28.075 180.10625 30.075ZM189.5125 39.16875L189.5125 24.825L191.12187 24.825L191.12187 26.16875Q191.68437 25.3875 192.3875 24.996876Q193.10625 24.590626 194.12187 24.590626Q195.45 24.590626 196.46562 25.278126Q197.48125 25.965626 197.99687 27.215626Q198.52812 28.45 198.52812 29.934376Q198.52812 31.528126 197.95 32.809376Q197.3875 34.075 196.29375 34.7625Q195.2 35.434376 193.99687 35.434376Q193.12187 35.434376 192.41875 35.059376Q191.73125 34.684376 191.27812 34.121876L191.27812 39.16875L189.5125 39.16875ZM191.10625 30.075Q191.10625 32.075 191.91875 33.028126Q192.73125 33.98125 193.8875 33.98125Q195.05937 33.98125 195.8875 32.996876Q196.73125 32.0125 196.73125 29.91875Q196.73125 27.95 195.90312 26.965626Q195.09062 25.965626 193.96562 25.965626Q192.84062 25.965626 191.96562 27.028126Q191.10625 28.075 191.10625 30.075ZM200.52812 22.903126L200.52812 20.8875L202.29375 20.8875L202.29375 22.903126L200.52812 22.903126ZM200.52812 35.2L200.52812 24.825L202.29375 24.825L202.29375 35.2L200.52812 35.2ZM204.5125 35.2L204.5125 24.825L206.10625 24.825L206.10625 26.309376Q207.24687 24.590626 209.40312 24.590626Q210.34062 24.590626 211.12187 24.934376Q211.91875 25.2625 212.30937 25.809376Q212.7 26.35625 212.85625 27.10625Q212.95 27.60625 212.95 28.825L212.95 35.2L211.18437 35.2L211.18437 28.8875Q211.18437 27.809376 210.98125 27.278126Q210.77812 26.746876 210.24687 26.434376Q209.73125 26.121876 209.02812 26.121876Q207.90312 26.121876 207.09062 26.840626Q206.27812 27.54375 206.27812 29.528126L206.27812 35.2L204.5125 35.2ZM221.62187 31.85625L223.43437 32.090626Q223.0125 33.66875 221.84062 34.559376Q220.68437 35.434376 218.87187 35.434376Q216.60625 35.434376 215.2625 34.04375Q213.93437 32.6375 213.93437 30.10625Q213.93437 27.48125 215.27812 26.04375Q216.62187 24.590626 218.77812 24.590626Q220.85625 24.590626 222.16875 26.0125Q223.49687 27.41875 223.49687 29.996876Q223.49687 30.153126 223.48125 30.465626L215.74687 30.465626Q215.84062 32.16875 216.71562 33.075Q217.59062 33.98125 218.8875 33.98125Q219.85625 33.98125 220.52812 33.48125Q221.21562 32.965626 221.62187 31.85625ZM215.84062 29.0125L221.6375 29.0125Q221.52812 27.715626 220.98125 27.059376Q220.1375 26.04375 218.79375 26.04375Q217.59062 26.04375 216.7625 26.85625Q215.93437 27.653126 215.84062 29.0125ZM224.80937 32.10625L226.55937 31.825Q226.7 32.871876 227.37187 33.434376Q228.04375 33.98125 229.24687 33.98125Q230.45 33.98125 231.02812 33.496876Q231.62187 32.996876 231.62187 32.340626Q231.62187 31.746876 231.10625 31.403126Q230.74687 31.16875 229.30937 30.809376Q227.37187 30.309376 226.62187 29.965626Q225.8875 29.60625 225.49687 28.98125Q225.10625 28.340626 225.10625 27.575Q225.10625 26.8875 225.41875 26.29375Q225.74687 25.7 226.29375 25.309376Q226.7 25.0125 227.40312 24.809376Q228.12187 24.590626 228.93437 24.590626Q230.15312 24.590626 231.075 24.95Q231.99687 25.29375 232.43437 25.903126Q232.87187 26.496876 233.04375 27.496876L231.325 27.73125Q231.2 26.934376 230.6375 26.496876Q230.075 26.04375 229.05937 26.04375Q227.84062 26.04375 227.325 26.45Q226.80937 26.840626 226.80937 27.371876Q226.80937 27.715626 227.02812 27.996876Q227.23125 28.278126 227.7 28.465626Q227.96562 28.559376 229.24687 28.903126Q231.12187 29.403126 231.85625 29.73125Q232.59062 30.04375 233.0125 30.653126Q233.43437 31.246876 233.43437 32.153126Q233.43437 33.028126 232.91875 33.809376Q232.40312 34.590626 231.43437 35.0125Q230.46562 35.434376 229.24687 35.434376Q227.23125 35.434376 226.16875 34.590626Q225.10625 33.746876 224.80937 32.10625ZM234.80937 32.10625L236.55937 31.825Q236.7 32.871876 237.37187 33.434376Q238.04375 33.98125 239.24687 33.98125Q240.45 33.98125 241.02812 33.496876Q241.62187 32.996876 241.62187 32.340626Q241.62187 31.746876 241.10625 31.403126Q240.74687 31.16875 239.30937 30.809376Q237.37187 30.309376 236.62187 29.965626Q235.8875 29.60625 235.49687 28.98125Q235.10625 28.340626 235.10625 27.575Q235.10625 26.8875 235.41875 26.29375Q235.74687 25.7 236.29375 25.309376Q236.7 25.0125 237.40312 24.809376Q238.12187 24.590626 238.93437 24.590626Q240.15312 24.590626 241.075 24.95Q241.99687 25.29375 242.43437 25.903126Q242.87187 26.496876 243.04375 27.496876L241.325 27.73125Q241.2 26.934376 240.6375 26.496876Q240.075 26.04375 239.05937 26.04375Q237.84062 26.04375 237.325 26.45Q236.80937 26.840626 236.80937 27.371876Q236.80937 27.715626 237.02812 27.996876Q237.23125 28.278126 237.7 28.465626Q237.96562 28.559376 239.24687 28.903126Q241.12187 29.403126 241.85625 29.73125Q242.59062 30.04375 243.0125 30.653126Q243.43437 31.246876 243.43437 32.153126Q243.43437 33.028126 242.91875 33.809376Q242.40312 34.590626 241.43437 35.0125Q240.46562 35.434376 239.24687 35.434376Q237.23125 35.434376 236.16875 34.590626Q235.10625 33.746876 234.80937 32.10625ZM250.80937 32.10625L252.55937 31.825Q252.7 32.871876 253.37187 33.434376Q254.04375 33.98125 255.24687 33.98125Q256.45 33.98125 257.02814 33.496876Q257.6219 32.996876 257.6219 32.340626Q257.6219 31.746876 257.10626 31.403126Q256.7469 31.16875 255.30937 30.809376Q253.37187 30.309376 252.62187 29.965626Q251.8875 29.60625 251.49687 28.98125Q251.10625 28.340626 251.10625 27.575Q251.10625 26.8875 251.41875 26.29375Q251.74687 25.7 252.29375 25.309376Q252.7 25.0125 253.40312 24.809376Q254.12187 24.590626 254.93437 24.590626Q256.15314 24.590626 257.075 24.95Q257.9969 25.29375 258.4344 25.903126Q258.8719 26.496876 259.04376 27.496876L257.325 27.73125Q257.2 26.934376 256.6375 26.496876Q256.075 26.04375 255.05937 26.04375Q253.84062 26.04375 253.325 26.45Q252.80937 26.840626 252.80937 27.371876Q252.80937 27.715626 253.02812 27.996876Q253.23125 28.278126 253.7 28.465626Q253.96562 28.559376 255.24687 28.903126Q257.1219 29.403126 257.85626 29.73125Q258.59064 30.04375 259.0125 30.653126Q259.4344 31.246876 259.4344 32.153126Q259.4344 33.028126 258.91876 33.809376Q258.40314 34.590626 257.4344 35.0125Q256.46564 35.434376 255.24687 35.434376Q253.23125 35.434376 252.16875 34.590626Q251.10625 33.746876 250.80937 32.10625ZM268.29376 31.403126L270.0125 31.621876Q269.73126 33.41875 268.5594 34.434376Q267.40314 35.434376 265.7 35.434376Q263.575 35.434376 262.27814 34.04375Q260.98126 32.653126 260.98126 30.059376Q260.98126 28.371876 261.52814 27.121876Q262.09064 25.85625 263.23126 25.23125Q264.3719 24.590626 265.71564 24.590626Q267.40314 24.590626 268.46564 25.45Q269.54376 26.309376 269.85626 27.871876L268.1375 28.1375Q267.90314 27.090626 267.27814 26.575Q266.65314 26.04375 265.77814 26.04375Q264.45 26.04375 263.6219 26.996876Q262.79376 27.95 262.79376 29.996876Q262.79376 32.090626 263.59064 33.04375Q264.3875 33.98125 265.6844 33.98125Q266.71564 33.98125 267.40314 33.35625Q268.10626 32.715626 268.29376 31.403126ZM270.8719 30.0125Q270.8719 27.1375 272.46564 25.746876Q273.8094 24.590626 275.73126 24.590626Q277.8719 24.590626 279.21564 25.996876Q280.575 27.403126 280.575 29.871876Q280.575 31.871876 279.98126 33.028126Q279.3875 34.16875 278.23126 34.809376Q277.09064 35.434376 275.73126 35.434376Q273.54376 35.434376 272.2 34.04375Q270.8719 32.6375 270.8719 30.0125ZM272.66876 30.0125Q272.66876 32.0125 273.52814 32.996876Q274.40314 33.98125 275.73126 33.98125Q277.04376 33.98125 277.90314 32.996876Q278.77814 31.996876 278.77814 29.95Q278.77814 28.028126 277.90314 27.04375Q277.02814 26.04375 275.73126 26.04375Q274.40314 26.04375 273.52814 27.04375Q272.66876 28.028126 272.66876 30.0125ZM282.4969 35.2L282.4969 24.825L284.075 24.825L284.075 26.403126Q284.6844 25.29375 285.2 24.95Q285.71564 24.590626 286.325 24.590626Q287.21564 24.590626 288.1375 25.153126L287.52814 26.79375Q286.8875 26.403126 286.2469 26.403126Q285.66876 26.403126 285.2 26.7625Q284.7469 27.10625 284.54376 27.715626Q284.2625 28.653126 284.2625 29.7625L284.2625 35.2L282.4969 35.2ZM296.6219 31.85625L298.4344 32.090626Q298.0125 33.66875 296.84064 34.559376Q295.6844 35.434376 293.8719 35.434376Q291.60626 35.434376 290.2625 34.04375Q288.9344 32.6375 288.9344 30.10625Q288.9344 27.48125 290.27814 26.04375Q291.6219 24.590626 293.77814 24.590626Q295.85626 24.590626 297.16876 26.0125Q298.4969 27.41875 298.4969 29.996876Q298.4969 30.153126 298.48126 30.465626L290.7469 30.465626Q290.84064 32.16875 291.71564 33.075Q292.59064 33.98125 293.8875 33.98125Q294.85626 33.98125 295.52814 33.48125Q296.21564 32.965626 296.6219 31.85625ZM290.84064 29.0125L296.6375 29.0125Q296.52814 27.715626 295.98126 27.059376Q295.1375 26.04375 293.79376 26.04375Q292.59064 26.04375 291.7625 26.85625Q290.9344 27.653126 290.84064 29.0125ZM305.8719 30.0125Q305.8719 27.1375 307.46564 25.746876Q308.8094 24.590626 310.73126 24.590626Q312.8719 24.590626 314.21564 25.996876Q315.575 27.403126 315.575 29.871876Q315.575 31.871876 314.98126 33.028126Q314.3875 34.16875 313.23126 34.809376Q312.09064 35.434376 310.73126 35.434376Q308.54376 35.434376 307.2 34.04375Q305.8719 32.6375 305.8719 30.0125ZM307.66876 30.0125Q307.66876 32.0125 308.52814 32.996876Q309.40314 33.98125 310.73126 33.98125Q312.04376 33.98125 312.90314 32.996876Q313.77814 31.996876 313.77814 29.95Q313.77814 28.028126 312.90314 27.04375Q312.02814 26.04375 310.73126 26.04375Q309.40314 26.04375 308.52814 27.04375Q307.66876 28.028126 307.66876 30.0125ZM320.40314 35.2L316.45 24.825L318.3094 24.825L320.54376 31.04375Q320.90314 32.04375 321.2 33.121876Q321.4344 32.309376 321.85626 31.153126L324.15314 24.825L325.96564 24.825L322.04376 35.2L320.40314 35.2ZM333.6219 31.85625L335.4344 32.090626Q335.0125 33.66875 333.84064 34.559376Q332.6844 35.434376 330.8719 35.434376Q328.60626 35.434376 327.2625 34.04375Q325.9344 32.6375 325.9344 30.10625Q325.9344 27.48125 327.27814 26.04375Q328.6219 24.590626 330.77814 24.590626Q332.85626 24.590626 334.16876 26.0125Q335.4969 27.41875 335.4969 29.996876Q335.4969 30.153126 335.48126 30.465626L327.7469 30.465626Q327.84064 32.16875 328.71564 33.075Q329.59064 33.98125 330.8875 33.98125Q331.85626 33.98125 332.52814 33.48125Q333.21564 32.965626 333.6219 31.85625ZM327.84064 29.0125L333.6375 29.0125Q333.52814 27.715626 332.98126 27.059376Q332.1375 26.04375 330.79376 26.04375Q329.59064 26.04375 328.7625 26.85625Q327.9344 27.653126 327.84064 29.0125ZM337.4969 35.2L337.4969 24.825L339.075 24.825L339.075 26.403126Q339.6844 25.29375 340.2 24.95Q340.71564 24.590626 341.325 24.590626Q342.21564 24.590626 343.1375 25.153126L342.52814 26.79375Q341.8875 26.403126 341.2469 26.403126Q340.66876 26.403126 340.2 26.7625Q339.7469 27.10625 339.54376 27.715626Q339.2625 28.653126 339.2625 29.7625L339.2625 35.2L337.4969 35.2ZM354.35626 33.621876L354.60626 35.184376Q353.8719 35.340626 353.27814 35.340626Q352.325 35.340626 351.79376 35.04375Q351.27814 34.73125 351.0594 34.246876Q350.84064 33.746876 350.84064 32.16875L350.84064 26.2L349.5594 26.2L349.5594 24.825L350.84064 24.825L350.84064 22.2625L352.59064 21.2L352.59064 24.825L354.35626 24.825L354.35626 26.2L352.59064 26.2L352.59064 32.2625Q352.59064 33.0125 352.6844 33.23125Q352.77814 33.434376 352.98126 33.575Q353.2 33.7 353.59064 33.7Q353.8719 33.7 354.35626 33.621876ZM356.52814 22.903126L356.52814 20.8875L358.29376 20.8875L358.29376 22.903126L356.52814 22.903126ZM356.52814 35.2L356.52814 24.825L358.29376 24.825L358.29376 35.2L356.52814 35.2ZM360.5125 35.2L360.5125 24.825L362.09064 24.825L362.09064 26.278126Q362.575 25.528126 363.3875 25.059376Q364.2 24.590626 365.23126 24.590626Q366.3875 24.590626 367.1219 25.075Q367.85626 25.54375 368.16876 26.403126Q369.40314 24.590626 371.3719 24.590626Q372.91876 24.590626 373.7469 25.45Q374.575 26.309376 374.575 28.075L374.575 35.2L372.825 35.2L372.825 28.66875Q372.825 27.60625 372.65314 27.153126Q372.48126 26.684376 372.02814 26.403126Q371.59064 26.121876 370.98126 26.121876Q369.8875 26.121876 369.15314 26.85625Q368.4344 27.575 368.4344 29.16875L368.4344 35.2L366.6844 35.2L366.6844 28.465626Q366.6844 27.29375 366.2469 26.715626Q365.825 26.121876 364.84064 26.121876Q364.10626 26.121876 363.46564 26.5125Q362.84064 26.903126 362.5594 27.653126Q362.27814 28.403126 362.27814 29.825L362.27814 35.2L360.5125 35.2ZM383.6219 31.85625L385.4344 32.090626Q385.0125 33.66875 383.84064 34.559376Q382.6844 35.434376 380.8719 35.434376Q378.60626 35.434376 377.2625 34.04375Q375.9344 32.6375 375.9344 30.10625Q375.9344 27.48125 377.27814 26.04375Q378.6219 24.590626 380.77814 24.590626Q382.85626 24.590626 384.16876 26.0125Q385.4969 27.41875 385.4969 29.996876Q385.4969 30.153126 385.48126 30.465626L377.7469 30.465626Q377.84064 32.16875 378.71564 33.075Q379.59064 33.98125 380.8875 33.98125Q381.85626 33.98125 382.52814 33.48125Q383.21564 32.965626 383.6219 31.85625ZM377.84064 29.0125L383.6375 29.0125Q383.52814 27.715626 382.98126 27.059376Q382.1375 26.04375 380.79376 26.04375Q379.59064 26.04375 378.7625 26.85625Q377.9344 27.653126 377.84064 29.0125Z" fill-rule="nonzero"/></svg>