<?xml version="1.0" encoding="UTF-8" standalone="no"?>
<svg
   width="364.47mm"
   height="250.77mm"
   version="1.1"
   viewBox="0 0 1291.4286 888.57146"
   id="svg37"
   sodipodi:docname="email-1975018.svg"
   inkscape:version="1.3.2 (091e20e, 2023-11-25, custom)"
   xmlns:inkscape="http://www.inkscape.org/namespaces/inkscape"
   xmlns:sodipodi="http://sodipodi.sourceforge.net/DTD/sodipodi-0.dtd"
   xmlns="http://www.w3.org/2000/svg"
   xmlns:svg="http://www.w3.org/2000/svg">
  <defs
     id="defs37" />
  <sodipodi:namedview
     id="namedview37"
     pagecolor="#505050"
     bordercolor="#ffffff"
     borderopacity="1"
     inkscape:showpageshadow="0"
     inkscape:pageopacity="0"
     inkscape:pagecheckerboard="1"
     inkscape:deskcolor="#505050"
     inkscape:document-units="mm"
     inkscape:zoom="0.4943651"
     inkscape:cx="688.76221"
     inkscape:cy="473.33438"
     inkscape:window-width="1280"
     inkscape:window-height="730"
     inkscape:window-x="-6"
     inkscape:window-y="-6"
     inkscape:window-maximized="1"
     inkscape:current-layer="g37" />
  <g
     transform="translate(291.43 -77.505)"
     id="g37">
    <rect
       x="-291.42999"
       y="77.504997"
       width="1291.4"
       height="888.57001"
       ry="0"
       color="#000000"
       color-rendering="auto"
       fill="#ffab91"
       image-rendering="auto"
       shape-rendering="auto"
       solid-color="#000000"
       style="display:none;isolation:auto;mix-blend-mode:normal"
       id="rect1" />
    <path
       d="m -291.43,77.506 v 539.65 L 342.14,77.506 Z"
       fill="#ffccbc"
       fill-rule="evenodd"
       id="path1"
       style="display:none" />
    <path
       d="m 875.79,77.506 -1015.2,888.57 H 999.99 V 77.506 H 875.78 Z"
       fill="#ff8a65"
       fill-rule="evenodd"
       id="path2"
       style="display:none" />
    <path
       d="M 1000,579.85 573.51,966.08 H 1000 Z"
       fill="#ff7043"
       fill-rule="evenodd"
       id="path3"
       style="display:none" />
    <rect
       x="-291.42999"
       y="77.620865"
       width="1291.4"
       height="888.33978"
       ry="0"
       color="#000000"
       color-rendering="auto"
       fill="#ffffff"
       image-rendering="auto"
       shape-rendering="auto"
       solid-color="#000000"
       style="isolation:auto;mix-blend-mode:normal;stroke-width:1.08115"
       id="rect3" />
    <rect
       transform="matrix(.9547 -.29759 .29759 .9547 0 0)"
       x="-127.48"
       y="262.04"
       width="281.94"
       height="182.05"
       ry="13.055"
       color="#000000"
       color-rendering="auto"
       fill="#ffe082"
       image-rendering="auto"
       shape-rendering="auto"
       solid-color="#000000"
       style="isolation:auto;mix-blend-mode:normal"
       id="rect4" />
    <g
       transform="matrix(.70834 -.22079 .24155 .77491 -261 -13.585)"
       fill="#ffca28"
       shape-rendering="auto"
       id="g6">
      <rect
         transform="matrix(.88549 .46465 -.41319 .91065 0 0)"
         x="346.52"
         y="312.79"
         width="209.61"
         height="20.914"
         ry="10.457"
         color="#000000"
         color-rendering="auto"
         image-rendering="auto"
         solid-color="#000000"
         style="isolation:auto;mix-blend-mode:normal"
         id="rect5" />
      <rect
         transform="matrix(-.88549 .46465 .41319 .91065 0 0)"
         x="-292.38"
         y="638.68"
         width="209.61"
         height="20.914"
         ry="10.457"
         color="#000000"
         color-rendering="auto"
         image-rendering="auto"
         solid-color="#000000"
         style="isolation:auto;mix-blend-mode:normal"
         id="rect6" />
    </g>
    <rect
       transform="matrix(.98802 .15434 -.15434 .98802 0 0)"
       x="308.92"
       y="164.52"
       width="281.94"
       height="182.05"
       ry="13.055"
       color="#000000"
       color-rendering="auto"
       fill="#e6ee9c"
       image-rendering="auto"
       shape-rendering="auto"
       solid-color="#000000"
       style="isolation:auto;mix-blend-mode:normal"
       id="rect7" />
    <g
       transform="matrix(.73306 .11451 -.12528 .80196 218.02 -156.39)"
       fill="#d4e157"
       shape-rendering="auto"
       id="g9">
      <rect
         transform="matrix(.88549 .46465 -.41319 .91065 0 0)"
         x="346.52"
         y="312.79"
         width="209.61"
         height="20.914"
         ry="10.457"
         color="#000000"
         color-rendering="auto"
         image-rendering="auto"
         solid-color="#000000"
         style="isolation:auto;mix-blend-mode:normal"
         id="rect8" />
      <rect
         transform="matrix(-.88549 .46465 .41319 .91065 0 0)"
         x="-292.38"
         y="638.68"
         width="209.61"
         height="20.914"
         ry="10.457"
         color="#000000"
         color-rendering="auto"
         image-rendering="auto"
         solid-color="#000000"
         style="isolation:auto;mix-blend-mode:normal"
         id="rect9" />
    </g>
    <rect
       transform="matrix(.9547 -.29759 .29759 .9547 0 0)"
       x="376.81"
       y="428.31"
       width="281.94"
       height="182.05"
       ry="13.055"
       color="#000000"
       color-rendering="auto"
       fill="#ffab91"
       image-rendering="auto"
       shape-rendering="auto"
       solid-color="#000000"
       style="isolation:auto;mix-blend-mode:normal"
       id="rect10" />
    <g
       transform="matrix(.70834 -.22079 .24155 .77491 269.92 -4.9216)"
       fill="#ff7043"
       shape-rendering="auto"
       id="g12">
      <rect
         transform="matrix(.88549 .46465 -.41319 .91065 0 0)"
         x="346.52"
         y="312.79"
         width="209.61"
         height="20.914"
         ry="10.457"
         color="#000000"
         color-rendering="auto"
         image-rendering="auto"
         solid-color="#000000"
         style="isolation:auto;mix-blend-mode:normal"
         id="rect11" />
      <rect
         transform="matrix(-.88549 .46465 .41319 .91065 0 0)"
         x="-292.38"
         y="638.68"
         width="209.61"
         height="20.914"
         ry="10.457"
         color="#000000"
         color-rendering="auto"
         image-rendering="auto"
         solid-color="#000000"
         style="isolation:auto;mix-blend-mode:normal"
         id="rect12" />
    </g>
    <rect
       transform="matrix(.97596 .21793 -.21793 .97596 0 0)"
       x="27.278"
       y="359.76"
       width="281.94"
       height="182.05"
       ry="13.055"
       color="#000000"
       color-rendering="auto"
       fill="#80cbc4"
       image-rendering="auto"
       shape-rendering="auto"
       solid-color="#000000"
       style="isolation:auto;mix-blend-mode:normal"
       id="rect13" />
    <g
       transform="matrix(.72412 .16169 -.17689 .79217 -89.745 -12.786)"
       fill="#26a69a"
       shape-rendering="auto"
       id="g15">
      <rect
         transform="matrix(.88549 .46465 -.41319 .91065 0 0)"
         x="346.52"
         y="312.79"
         width="209.61"
         height="20.914"
         ry="10.457"
         color="#000000"
         color-rendering="auto"
         image-rendering="auto"
         solid-color="#000000"
         style="isolation:auto;mix-blend-mode:normal"
         id="rect14" />
      <rect
         transform="matrix(-.88549 .46465 .41319 .91065 0 0)"
         x="-292.38"
         y="638.68"
         width="209.61"
         height="20.914"
         ry="10.457"
         color="#000000"
         color-rendering="auto"
         image-rendering="auto"
         solid-color="#000000"
         style="isolation:auto;mix-blend-mode:normal"
         id="rect15" />
    </g>
    <rect
       transform="matrix(.9547 -.29759 .29759 .9547 0 0)"
       x="35.437"
       y="645.98"
       width="281.94"
       height="182.05"
       ry="13.055"
       color="#000000"
       color-rendering="auto"
       fill="#607d8b"
       image-rendering="auto"
       shape-rendering="auto"
       solid-color="#000000"
       style="isolation:auto;mix-blend-mode:normal"
       id="rect16" />
    <g
       transform="matrix(.70834 -.22079 .24155 .77491 8.7902 304.47)"
       fill="#607d8b"
       shape-rendering="auto"
       id="g18">
      <rect
         transform="matrix(.88549 .46465 -.41319 .91065 0 0)"
         x="346.52"
         y="312.79"
         width="209.61"
         height="20.914"
         ry="10.457"
         color="#000000"
         color-rendering="auto"
         image-rendering="auto"
         solid-color="#000000"
         style="isolation:auto;mix-blend-mode:normal"
         id="rect17" />
      <rect
         transform="matrix(-.88549 .46465 .41319 .91065 0 0)"
         x="-292.38"
         y="638.68"
         width="209.61"
         height="20.914"
         ry="10.457"
         color="#000000"
         color-rendering="auto"
         image-rendering="auto"
         solid-color="#000000"
         style="isolation:auto;mix-blend-mode:normal"
         id="rect18" />
    </g>
    <rect
       transform="matrix(.99439 .10578 -.10578 .99439 0 0)"
       x="289.61"
       y="618.77"
       width="281.94"
       height="182.05"
       ry="13.055"
       color="#000000"
       color-rendering="auto"
       fill="#c5e1a5"
       image-rendering="auto"
       shape-rendering="auto"
       solid-color="#000000"
       style="isolation:auto;mix-blend-mode:normal"
       id="rect19" />
    <g
       transform="matrix(.73779 .078482 -.085858 .80713 142.85 282.79)"
       fill="#9ccc65"
       shape-rendering="auto"
       id="g21">
      <rect
         transform="matrix(.88549 .46465 -.41319 .91065 0 0)"
         x="346.52"
         y="312.79"
         width="209.61"
         height="20.914"
         ry="10.457"
         color="#000000"
         color-rendering="auto"
         image-rendering="auto"
         solid-color="#000000"
         style="isolation:auto;mix-blend-mode:normal"
         id="rect20" />
      <rect
         transform="matrix(-.88549 .46465 .41319 .91065 0 0)"
         x="-292.38"
         y="638.68"
         width="209.61"
         height="20.914"
         ry="10.457"
         color="#000000"
         color-rendering="auto"
         image-rendering="auto"
         solid-color="#000000"
         style="isolation:auto;mix-blend-mode:normal"
         id="rect21" />
    </g>
    <rect
       transform="matrix(.9547 -.29759 .29759 .9547 0 0)"
       x="-124.76"
       y="561.04"
       width="281.94"
       height="182.05"
       ry="13.055"
       color="#000000"
       color-rendering="auto"
       fill="#ffcc80"
       image-rendering="auto"
       shape-rendering="auto"
       solid-color="#000000"
       style="isolation:auto;mix-blend-mode:normal"
       id="rect22" />
    <g
       transform="matrix(.70834 -.22079 .24155 .77491 -169.42 271.06)"
       fill="#ffa726"
       shape-rendering="auto"
       id="g24">
      <rect
         transform="matrix(.88549 .46465 -.41319 .91065 0 0)"
         x="346.52"
         y="312.79"
         width="209.61"
         height="20.914"
         ry="10.457"
         color="#000000"
         color-rendering="auto"
         image-rendering="auto"
         solid-color="#000000"
         style="isolation:auto;mix-blend-mode:normal"
         id="rect23" />
      <rect
         transform="matrix(-.88549 .46465 .41319 .91065 0 0)"
         x="-292.38"
         y="638.68"
         width="209.61"
         height="20.914"
         ry="10.457"
         color="#000000"
         color-rendering="auto"
         image-rendering="auto"
         solid-color="#000000"
         style="isolation:auto;mix-blend-mode:normal"
         id="rect24" />
    </g>
    <rect
       transform="matrix(.94146 .33713 -.33713 .94146 0 0)"
       x="531.14"
       y="173.24"
       width="281.94"
       height="182.05"
       ry="13.055"
       color="#000000"
       color-rendering="auto"
       fill="#90caf9"
       image-rendering="auto"
       shape-rendering="auto"
       solid-color="#000000"
       style="isolation:auto;mix-blend-mode:normal"
       id="rect25" />
    <g
       transform="matrix(.69852 .25013 -.27364 .76417 449.78 -29.541)"
       fill="#42a5f5"
       shape-rendering="auto"
       id="g27">
      <rect
         transform="matrix(.88549 .46465 -.41319 .91065 0 0)"
         x="346.52"
         y="312.79"
         width="209.61"
         height="20.914"
         ry="10.457"
         color="#000000"
         color-rendering="auto"
         image-rendering="auto"
         solid-color="#000000"
         style="isolation:auto;mix-blend-mode:normal"
         id="rect26" />
      <rect
         transform="matrix(-.88549 .46465 .41319 .91065 0 0)"
         x="-292.38"
         y="638.68"
         width="209.61"
         height="20.914"
         ry="10.457"
         color="#000000"
         color-rendering="auto"
         image-rendering="auto"
         solid-color="#000000"
         style="isolation:auto;mix-blend-mode:normal"
         id="rect27" />
    </g>
    <rect
       transform="matrix(.93728 .34857 -.34857 .93728 0 0)"
       x="586.34"
       y="312.05"
       width="281.94"
       height="182.05"
       ry="13.055"
       color="#000000"
       color-rendering="auto"
       fill="#fff59d"
       image-rendering="auto"
       shape-rendering="auto"
       solid-color="#000000"
       style="isolation:auto;mix-blend-mode:normal"
       id="rect28" />
    <g
       transform="matrix(.69542 .25862 -.28293 .76078 453.45 125.29)"
       fill="#ffee58"
       shape-rendering="auto"
       id="g30">
      <rect
         transform="matrix(.88549 .46465 -.41319 .91065 0 0)"
         x="346.52"
         y="312.79"
         width="209.61"
         height="20.914"
         ry="10.457"
         color="#000000"
         color-rendering="auto"
         image-rendering="auto"
         solid-color="#000000"
         style="isolation:auto;mix-blend-mode:normal"
         id="rect29" />
      <rect
         transform="matrix(-.88549 .46465 .41319 .91065 0 0)"
         x="-292.38"
         y="638.68"
         width="209.61"
         height="20.914"
         ry="10.457"
         color="#000000"
         color-rendering="auto"
         image-rendering="auto"
         solid-color="#000000"
         style="isolation:auto;mix-blend-mode:normal"
         id="rect30" />
    </g>
    <rect
       transform="matrix(.9547 -.29759 .29759 .9547 0 0)"
       x="-10.96"
       y="395.59"
       width="281.94"
       height="182.05"
       ry="13.055"
       color="#000000"
       color-rendering="auto"
       fill="#f48fb1"
       image-rendering="auto"
       shape-rendering="auto"
       solid-color="#000000"
       style="isolation:auto;mix-blend-mode:normal"
       id="rect31" />
    <g
       transform="matrix(.70834 -.22079 .24155 .77491 -110.02 79.234)"
       fill="#ec407a"
       shape-rendering="auto"
       id="g33">
      <rect
         transform="matrix(.88549 .46465 -.41319 .91065 0 0)"
         x="346.52"
         y="312.79"
         width="209.61"
         height="20.914"
         ry="10.457"
         color="#000000"
         color-rendering="auto"
         image-rendering="auto"
         solid-color="#000000"
         style="isolation:auto;mix-blend-mode:normal"
         id="rect32" />
      <rect
         transform="matrix(-.88549 .46465 .41319 .91065 0 0)"
         x="-292.38"
         y="638.68"
         width="209.61"
         height="20.914"
         ry="10.457"
         color="#000000"
         color-rendering="auto"
         image-rendering="auto"
         solid-color="#000000"
         style="isolation:auto;mix-blend-mode:normal"
         id="rect33" />
    </g>
    <rect
       x="226.96"
       y="441.28"
       width="281.94"
       height="182.05"
       ry="13.055"
       color="#000000"
       color-rendering="auto"
       fill="#b3e5fc"
       image-rendering="auto"
       shape-rendering="auto"
       solid-color="#000000"
       style="isolation:auto;mix-blend-mode:normal"
       id="rect34" />
    <g
       transform="matrix(.74195 0 0 .81168 109.31 88.602)"
       fill="#29b6f6"
       shape-rendering="auto"
       id="g36">
      <rect
         transform="matrix(.88549 .46465 -.41319 .91065 0 0)"
         x="346.52"
         y="312.79"
         width="209.61"
         height="20.914"
         ry="10.457"
         color="#000000"
         color-rendering="auto"
         image-rendering="auto"
         solid-color="#000000"
         style="isolation:auto;mix-blend-mode:normal"
         id="rect35" />
      <rect
         transform="matrix(-.88549 .46465 .41319 .91065 0 0)"
         x="-292.38"
         y="638.68"
         width="209.61"
         height="20.914"
         ry="10.457"
         color="#000000"
         color-rendering="auto"
         image-rendering="auto"
         solid-color="#000000"
         style="isolation:auto;mix-blend-mode:normal"
         id="rect36" />
    </g>
  </g>
</svg>
