<svg version="1.1" viewBox="0.0 0.0 597.0 316.0" fill="none" stroke="none" stroke-linecap="square" stroke-miterlimit="10" width="597" height="316" xmlns:xlink="http://www.w3.org/1999/xlink" xmlns="http://www.w3.org/2000/svg"><path fill="#ffffff" d="M0 0L597.0 0L597.0 316.0L0 316.0L0 0Z" fill-rule="nonzero"/><path stroke="#333333" stroke-width="1.0" stroke-linecap="butt" d="M134.5 50.5L134.5 280.5" fill-rule="nonzero"/><path stroke="#cccccc" stroke-width="1.0" stroke-linecap="butt" d="M246.5 50.5L246.5 280.5" fill-rule="nonzero"/><path stroke="#cccccc" stroke-width="1.0" stroke-linecap="butt" d="M358.5 50.5L358.5 280.5" fill-rule="nonzero"/><path stroke="#cccccc" stroke-width="1.0" stroke-linecap="butt" d="M469.5 50.5L469.5 280.5" fill-rule="nonzero"/><path stroke="#cccccc" stroke-width="1.0" stroke-linecap="butt" d="M581.5 50.5L581.5 280.5" fill-rule="nonzero"/><clipPath id="id_0"><path d="M134.88 50.333332L581.2 50.333332L581.2 280.2L134.88 280.2L134.88 50.333332Z" clip-rule="nonzero"/></clipPath><path stroke="#000000" stroke-width="2.0" stroke-linecap="butt" stroke-opacity="0.0" clip-path="url(#id_0)" d="M135.0 103.0L135.0 69.0L311.0 69.0C312.10458 69.0 313.0 69.89543 313.0 71.0L313.0 101.0C313.0 102.10457 312.10458 103.0 311.0 103.0Z" fill-rule="nonzero"/><path fill="#db4437" clip-path="url(#id_0)" d="M135.0 103.0L135.0 69.0L311.0 69.0C312.10458 69.0 313.0 69.89543 313.0 71.0L313.0 101.0C313.0 102.10457 312.10458 103.0 311.0 103.0Z" fill-rule="nonzero"/><path stroke="#000000" stroke-width="2.0" stroke-linecap="butt" stroke-opacity="0.0" clip-path="url(#id_0)" d="M135.0 156.0L135.0 122.0L533.0 122.0C534.10455 122.0 535.0 122.89543 535.0 124.0L535.0 154.0C535.0 155.10457 534.10455 156.0 533.0 156.0Z" fill-rule="nonzero"/><path fill="#db4437" clip-path="url(#id_0)" d="M135.0 156.0L135.0 122.0L533.0 122.0C534.10455 122.0 535.0 122.89543 535.0 124.0L535.0 154.0C535.0 155.10457 534.10455 156.0 533.0 156.0Z" fill-rule="nonzero"/><path stroke="#000000" stroke-width="2.0" stroke-linecap="butt" stroke-opacity="0.0" clip-path="url(#id_0)" d="M135.0 209.0L135.0 175.0L296.0 175.0C297.10458 175.0 298.0 175.89543 298.0 177.0L298.0 207.0C298.0 208.10457 297.10458 209.0 296.0 209.0Z" fill-rule="nonzero"/><path fill="#db4437" clip-path="url(#id_0)" d="M135.0 209.0L135.0 175.0L296.0 175.0C297.10458 175.0 298.0 175.89543 298.0 177.0L298.0 207.0C298.0 208.10457 297.10458 209.0 296.0 209.0Z" fill-rule="nonzero"/><path stroke="#000000" stroke-width="2.0" stroke-linecap="butt" stroke-opacity="0.0" clip-path="url(#id_0)" d="M135.0 262.0L135.0 228.0L284.0 228.0C285.10458 228.0 286.0 228.89543 286.0 230.0L286.0 260.0C286.0 261.10458 285.10458 262.0 284.0 262.0Z" fill-rule="nonzero"/><path fill="#db4437" clip-path="url(#id_0)" d="M135.0 262.0L135.0 228.0L284.0 228.0C285.10458 228.0 286.0 228.89543 286.0 230.0L286.0 260.0C286.0 261.10458 285.10458 262.0 284.0 262.0Z" fill-rule="nonzero"/><path stroke="#db4437" stroke-width="3.0" stroke-linejoin="round" stroke-linecap="round" d="M264.87363 90.5L263.7955 90.5L263.7955 83.28125L261.608 84.078125L261.608 83.09375L264.71738 81.921875L264.87363 81.921875L264.87363 90.5ZM272.57675 81.96875L272.57675 82.875L272.37363 82.875Q271.108 82.90625 270.358 83.640625Q269.608 84.359375 269.483 85.671875Q270.1705 84.90625 271.32675 84.90625Q272.43613 84.90625 273.108 85.6875Q273.77988 86.46875 273.77988 87.71875Q273.77988 89.03125 273.06113 89.828125Q272.34238 90.625 271.12363 90.625Q269.90488 90.625 269.13925 89.6875Q268.38925 88.734375 268.38925 87.25L268.38925 86.84375Q268.38925 84.484375 269.38925 83.234375Q270.38925 81.984375 272.37363 81.96875L272.57675 81.96875ZM271.15488 85.8125Q270.59238 85.8125 270.12363 86.140625Q269.65488 86.46875 269.46738 86.984375L269.46738 87.375Q269.46738 88.4375 269.93613 89.078125Q270.4205 89.71875 271.12363 89.71875Q271.858 89.71875 272.27988 89.1875Q272.70175 88.640625 272.70175 87.765625Q272.70175 86.890625 272.27988 86.359375Q271.858 85.8125 271.15488 85.8125ZM280.6705 86.859375Q280.6705 88.765625 280.01425 89.703125Q279.37363 90.625 277.983 90.625Q276.62363 90.625 275.96738 89.71875Q275.31113 88.8125 275.27988 87.0L275.27988 85.5625Q275.27988 83.671875 275.9205 82.765625Q276.57675 81.84375 277.96738 81.84375Q279.34238 81.84375 279.99863 82.734375Q280.65488 83.609375 280.6705 85.453125L280.6705 86.859375ZM279.57675 85.375Q279.57675 84.0 279.18613 83.375Q278.81113 82.734375 277.96738 82.734375Q277.13925 82.734375 276.74863 83.375Q276.37363 84.0 276.37363 85.296875L276.37363 87.03125Q276.37363 88.40625 276.76425 89.078125Q277.1705 89.734375 277.983 89.734375Q278.77988 89.734375 279.1705 89.109375Q279.56113 88.484375 279.57675 87.15625L279.57675 85.375ZM285.59238 90.5L285.59238 81.96875L288.01425 81.96875Q289.12363 81.96875 289.96738 82.46875Q290.82675 82.953125 291.2955 83.859375Q291.76425 84.765625 291.76425 85.953125L291.76425 86.484375Q291.76425 87.703125 291.2955 88.609375Q290.84238 89.515625 289.96738 90.0Q289.108 90.484375 287.96738 90.5L285.59238 90.5ZM286.71738 82.890625L286.71738 89.578125L287.90488 89.578125Q289.20175 89.578125 289.9205 88.78125Q290.65488 87.96875 290.65488 86.46875L290.65488 85.96875Q290.65488 84.515625 289.96738 83.71875Q289.2955 82.90625 288.02988 82.890625L286.71738 82.890625ZM295.76425 86.53125L294.71738 87.609375L294.71738 90.5L293.59238 90.5L293.59238 81.96875L294.71738 81.96875L294.71738 86.1875L298.51425 81.96875L299.87363 81.96875L296.51425 85.734375L300.13925 90.5L298.7955 90.5L295.76425 86.53125ZM303.76425 86.53125L302.71738 87.609375L302.71738 90.5L301.59238 90.5L301.59238 81.96875L302.71738 81.96875L302.71738 86.1875L306.51425 81.96875L307.87363 81.96875L304.51425 85.734375L308.13925 90.5L306.7955 90.5L303.76425 86.53125Z" fill-rule="nonzero"/><path fill="#ffffff" d="M264.87363 90.5L263.7955 90.5L263.7955 83.28125L261.608 84.078125L261.608 83.09375L264.71738 81.921875L264.87363 81.921875L264.87363 90.5ZM272.57675 81.96875L272.57675 82.875L272.37363 82.875Q271.108 82.90625 270.358 83.640625Q269.608 84.359375 269.483 85.671875Q270.1705 84.90625 271.32675 84.90625Q272.43613 84.90625 273.108 85.6875Q273.77988 86.46875 273.77988 87.71875Q273.77988 89.03125 273.06113 89.828125Q272.34238 90.625 271.12363 90.625Q269.90488 90.625 269.13925 89.6875Q268.38925 88.734375 268.38925 87.25L268.38925 86.84375Q268.38925 84.484375 269.38925 83.234375Q270.38925 81.984375 272.37363 81.96875L272.57675 81.96875ZM271.15488 85.8125Q270.59238 85.8125 270.12363 86.140625Q269.65488 86.46875 269.46738 86.984375L269.46738 87.375Q269.46738 88.4375 269.93613 89.078125Q270.4205 89.71875 271.12363 89.71875Q271.858 89.71875 272.27988 89.1875Q272.70175 88.640625 272.70175 87.765625Q272.70175 86.890625 272.27988 86.359375Q271.858 85.8125 271.15488 85.8125ZM280.6705 86.859375Q280.6705 88.765625 280.01425 89.703125Q279.37363 90.625 277.983 90.625Q276.62363 90.625 275.96738 89.71875Q275.31113 88.8125 275.27988 87.0L275.27988 85.5625Q275.27988 83.671875 275.9205 82.765625Q276.57675 81.84375 277.96738 81.84375Q279.34238 81.84375 279.99863 82.734375Q280.65488 83.609375 280.6705 85.453125L280.6705 86.859375ZM279.57675 85.375Q279.57675 84.0 279.18613 83.375Q278.81113 82.734375 277.96738 82.734375Q277.13925 82.734375 276.74863 83.375Q276.37363 84.0 276.37363 85.296875L276.37363 87.03125Q276.37363 88.40625 276.76425 89.078125Q277.1705 89.734375 277.983 89.734375Q278.77988 89.734375 279.1705 89.109375Q279.56113 88.484375 279.57675 87.15625L279.57675 85.375ZM285.59238 90.5L285.59238 81.96875L288.01425 81.96875Q289.12363 81.96875 289.96738 82.46875Q290.82675 82.953125 291.2955 83.859375Q291.76425 84.765625 291.76425 85.953125L291.76425 86.484375Q291.76425 87.703125 291.2955 88.609375Q290.84238 89.515625 289.96738 90.0Q289.108 90.484375 287.96738 90.5L285.59238 90.5ZM286.71738 82.890625L286.71738 89.578125L287.90488 89.578125Q289.20175 89.578125 289.9205 88.78125Q290.65488 87.96875 290.65488 86.46875L290.65488 85.96875Q290.65488 84.515625 289.96738 83.71875Q289.2955 82.90625 288.02988 82.890625L286.71738 82.890625ZM295.76425 86.53125L294.71738 87.609375L294.71738 90.5L293.59238 90.5L293.59238 81.96875L294.71738 81.96875L294.71738 86.1875L298.51425 81.96875L299.87363 81.96875L296.51425 85.734375L300.13925 90.5L298.7955 90.5L295.76425 86.53125ZM303.76425 86.53125L302.71738 87.609375L302.71738 90.5L301.59238 90.5L301.59238 81.96875L302.71738 81.96875L302.71738 86.1875L306.51425 81.96875L307.87363 81.96875L304.51425 85.734375L308.13925 90.5L306.7955 90.5L303.76425 86.53125Z" fill-rule="nonzero"/><path stroke="#db4437" stroke-width="3.0" stroke-linejoin="round" stroke-linecap="round" d="M484.93344 138.70312L485.74594 138.70312Q486.5272 138.6875 486.9647 138.29688Q487.4022 137.90625 487.4022 137.23438Q487.4022 135.73438 485.9022 135.73438Q485.19907 135.73438 484.7772 136.14062Q484.37094 136.54688 484.37094 137.20312L483.2772 137.20312Q483.2772 136.1875 484.01157 135.51562Q484.76157 134.84375 485.9022 134.84375Q487.10532 134.84375 487.79282 135.48438Q488.48032 136.125 488.48032 137.26562Q488.48032 137.82812 488.12094 138.34375Q487.76157 138.85938 487.13657 139.125Q487.8397 139.34375 488.2147 139.85938Q488.60532 140.375 488.60532 141.125Q488.60532 142.26562 487.85532 142.95312Q487.10532 143.625 485.9022 143.625Q484.7147 143.625 483.94907 142.96875Q483.19907 142.3125 483.19907 141.25L484.29282 141.25Q484.29282 141.92188 484.73032 142.32812Q485.16782 142.73438 485.91782 142.73438Q486.69907 142.73438 487.10532 142.32812Q487.5272 141.90625 487.5272 141.14062Q487.5272 140.40625 487.07407 140.01562Q486.62094 139.60938 485.74594 139.59375L484.93344 139.59375L484.93344 138.70312ZM490.85532 139.21875L491.29282 134.96875L495.66782 134.96875L495.66782 135.96875L492.2147 135.96875L491.94907 138.29688Q492.5897 137.92188 493.38657 137.92188Q494.54282 137.92188 495.23032 138.70312Q495.91782 139.46875 495.91782 140.78125Q495.91782 142.09375 495.19907 142.85938Q494.49594 143.625 493.2147 143.625Q492.0897 143.625 491.37094 143.0Q490.6522 142.35938 490.55844 141.25L491.57407 141.25Q491.68344 141.98438 492.10532 142.35938Q492.5272 142.73438 493.2147 142.73438Q493.9647 142.73438 494.4022 142.21875Q494.8397 141.70312 494.8397 140.79688Q494.8397 139.9375 494.37094 139.42188Q493.9022 138.90625 493.12094 138.90625Q492.41782 138.90625 492.01157 139.20312L491.73032 139.4375L490.85532 139.21875ZM501.51157 139.75Q501.18344 140.15625 500.69907 140.40625Q500.23032 140.64062 499.66782 140.64062Q498.93344 140.64062 498.38657 140.28125Q497.8397 139.92188 497.54282 139.26562Q497.24594 138.59375 497.24594 137.79688Q497.24594 136.95312 497.55844 136.26562Q497.88657 135.57812 498.48032 135.21875Q499.0897 134.84375 499.88657 134.84375Q501.1522 134.84375 501.87094 135.79688Q502.60532 136.75 502.60532 138.375L502.60532 138.6875Q502.60532 141.1875 501.62094 142.32812Q500.63657 143.46875 498.6522 143.5L498.43344 143.5L498.43344 142.59375L498.66782 142.59375Q500.01157 142.5625 500.73032 141.89062Q501.44907 141.21875 501.51157 139.75ZM499.8397 139.75Q500.38657 139.75 500.8397 139.42188Q501.30844 139.07812 501.5272 138.59375L501.5272 138.15625Q501.5272 137.09375 501.05844 136.42188Q500.5897 135.75 499.88657 135.75Q499.16782 135.75 498.73032 136.29688Q498.30844 136.84375 498.30844 137.75Q498.30844 138.625 498.7147 139.1875Q499.13657 139.75 499.8397 139.75ZM507.63657 143.5L507.63657 134.96875L510.05844 134.96875Q511.16782 134.96875 512.0116 135.46875Q512.871 135.95312 513.3397 136.85938Q513.8085 137.76562 513.8085 138.95312L513.8085 139.48438Q513.8085 140.70312 513.3397 141.60938Q512.8866 142.51562 512.0116 143.0Q511.1522 143.48438 510.01157 143.5L507.63657 143.5ZM508.76157 135.89062L508.76157 142.57812L509.94907 142.57812Q511.24594 142.57812 511.9647 141.78125Q512.6991 140.96875 512.6991 139.46875L512.6991 138.96875Q512.6991 137.51562 512.0116 136.71875Q511.3397 135.90625 510.07407 135.89062L508.76157 135.89062ZM517.8085 139.53125L516.7616 140.60938L516.7616 143.5L515.6366 143.5L515.6366 134.96875L516.7616 134.96875L516.7616 139.1875L520.5585 134.96875L521.91785 134.96875L518.5585 138.73438L522.1835 143.5L520.8397 143.5L517.8085 139.53125ZM525.8085 139.53125L524.7616 140.60938L524.7616 143.5L523.6366 143.5L523.6366 134.96875L524.7616 134.96875L524.7616 139.1875L528.5585 134.96875L529.91785 134.96875L526.5585 138.73438L530.1835 143.5L528.8397 143.5L525.8085 139.53125Z" fill-rule="nonzero"/><path fill="#ffffff" d="M484.93344 138.70312L485.74594 138.70312Q486.5272 138.6875 486.9647 138.29688Q487.4022 137.90625 487.4022 137.23438Q487.4022 135.73438 485.9022 135.73438Q485.19907 135.73438 484.7772 136.14062Q484.37094 136.54688 484.37094 137.20312L483.2772 137.20312Q483.2772 136.1875 484.01157 135.51562Q484.76157 134.84375 485.9022 134.84375Q487.10532 134.84375 487.79282 135.48438Q488.48032 136.125 488.48032 137.26562Q488.48032 137.82812 488.12094 138.34375Q487.76157 138.85938 487.13657 139.125Q487.8397 139.34375 488.2147 139.85938Q488.60532 140.375 488.60532 141.125Q488.60532 142.26562 487.85532 142.95312Q487.10532 143.625 485.9022 143.625Q484.7147 143.625 483.94907 142.96875Q483.19907 142.3125 483.19907 141.25L484.29282 141.25Q484.29282 141.92188 484.73032 142.32812Q485.16782 142.73438 485.91782 142.73438Q486.69907 142.73438 487.10532 142.32812Q487.5272 141.90625 487.5272 141.14062Q487.5272 140.40625 487.07407 140.01562Q486.62094 139.60938 485.74594 139.59375L484.93344 139.59375L484.93344 138.70312ZM490.85532 139.21875L491.29282 134.96875L495.66782 134.96875L495.66782 135.96875L492.2147 135.96875L491.94907 138.29688Q492.5897 137.92188 493.38657 137.92188Q494.54282 137.92188 495.23032 138.70312Q495.91782 139.46875 495.91782 140.78125Q495.91782 142.09375 495.19907 142.85938Q494.49594 143.625 493.2147 143.625Q492.0897 143.625 491.37094 143.0Q490.6522 142.35938 490.55844 141.25L491.57407 141.25Q491.68344 141.98438 492.10532 142.35938Q492.5272 142.73438 493.2147 142.73438Q493.9647 142.73438 494.4022 142.21875Q494.8397 141.70312 494.8397 140.79688Q494.8397 139.9375 494.37094 139.42188Q493.9022 138.90625 493.12094 138.90625Q492.41782 138.90625 492.01157 139.20312L491.73032 139.4375L490.85532 139.21875ZM501.51157 139.75Q501.18344 140.15625 500.69907 140.40625Q500.23032 140.64062 499.66782 140.64062Q498.93344 140.64062 498.38657 140.28125Q497.8397 139.92188 497.54282 139.26562Q497.24594 138.59375 497.24594 137.79688Q497.24594 136.95312 497.55844 136.26562Q497.88657 135.57812 498.48032 135.21875Q499.0897 134.84375 499.88657 134.84375Q501.1522 134.84375 501.87094 135.79688Q502.60532 136.75 502.60532 138.375L502.60532 138.6875Q502.60532 141.1875 501.62094 142.32812Q500.63657 143.46875 498.6522 143.5L498.43344 143.5L498.43344 142.59375L498.66782 142.59375Q500.01157 142.5625 500.73032 141.89062Q501.44907 141.21875 501.51157 139.75ZM499.8397 139.75Q500.38657 139.75 500.8397 139.42188Q501.30844 139.07812 501.5272 138.59375L501.5272 138.15625Q501.5272 137.09375 501.05844 136.42188Q500.5897 135.75 499.88657 135.75Q499.16782 135.75 498.73032 136.29688Q498.30844 136.84375 498.30844 137.75Q498.30844 138.625 498.7147 139.1875Q499.13657 139.75 499.8397 139.75ZM507.63657 143.5L507.63657 134.96875L510.05844 134.96875Q511.16782 134.96875 512.0116 135.46875Q512.871 135.95312 513.3397 136.85938Q513.8085 137.76562 513.8085 138.95312L513.8085 139.48438Q513.8085 140.70312 513.3397 141.60938Q512.8866 142.51562 512.0116 143.0Q511.1522 143.48438 510.01157 143.5L507.63657 143.5ZM508.76157 135.89062L508.76157 142.57812L509.94907 142.57812Q511.24594 142.57812 511.9647 141.78125Q512.6991 140.96875 512.6991 139.46875L512.6991 138.96875Q512.6991 137.51562 512.0116 136.71875Q511.3397 135.90625 510.07407 135.89062L508.76157 135.89062ZM517.8085 139.53125L516.7616 140.60938L516.7616 143.5L515.6366 143.5L515.6366 134.96875L516.7616 134.96875L516.7616 139.1875L520.5585 134.96875L521.91785 134.96875L518.5585 138.73438L522.1835 143.5L520.8397 143.5L517.8085 139.53125ZM525.8085 139.53125L524.7616 140.60938L524.7616 143.5L523.6366 143.5L523.6366 134.96875L524.7616 134.96875L524.7616 139.1875L528.5585 134.96875L529.91785 134.96875L526.5585 138.73438L530.1835 143.5L528.8397 143.5L525.8085 139.53125Z" fill-rule="nonzero"/><path stroke="#db4437" stroke-width="3.0" stroke-linejoin="round" stroke-linecap="round" d="M249.25243 196.5L248.1743 196.5L248.1743 189.28125L245.9868 190.07812L245.9868 189.09375L249.09618 187.92188L249.25243 187.92188L249.25243 196.5ZM257.26804 193.64062L258.45554 193.64062L258.45554 194.51562L257.26804 194.51562L257.26804 196.5L256.1899 196.5L256.1899 194.51562L252.2993 194.51562L252.2993 193.875L256.1118 187.96875L257.26804 187.96875L257.26804 193.64062ZM253.53368 193.64062L256.1899 193.64062L256.1899 189.45312L256.0493 189.6875L253.53368 193.64062ZM263.95554 187.96875L263.95554 188.875L263.7524 188.875Q262.4868 188.90625 261.7368 189.64062Q260.9868 190.35938 260.8618 191.67188Q261.5493 190.90625 262.70554 190.90625Q263.8149 190.90625 264.4868 191.6875Q265.15866 192.46875 265.15866 193.71875Q265.15866 195.03125 264.4399 195.82812Q263.72116 196.625 262.5024 196.625Q261.28366 196.625 260.51804 195.6875Q259.76804 194.73438 259.76804 193.25L259.76804 192.84375Q259.76804 190.48438 260.76804 189.23438Q261.76804 187.98438 263.7524 187.96875L263.95554 187.96875ZM262.53366 191.8125Q261.97116 191.8125 261.5024 192.14062Q261.03366 192.46875 260.84616 192.98438L260.84616 193.375Q260.84616 194.4375 261.3149 195.07812Q261.7993 195.71875 262.5024 195.71875Q263.2368 195.71875 263.65866 195.1875Q264.08054 194.64062 264.08054 193.76562Q264.08054 192.89062 263.65866 192.35938Q263.2368 191.8125 262.53366 191.8125ZM269.97116 196.5L269.97116 187.96875L272.39304 187.96875Q273.5024 187.96875 274.34616 188.46875Q275.20554 188.95312 275.6743 189.85938Q276.14304 190.76562 276.14304 191.95312L276.14304 192.48438Q276.14304 193.70312 275.6743 194.60938Q275.22116 195.51562 274.34616 196.0Q273.4868 196.48438 272.34616 196.5L269.97116 196.5ZM271.09616 188.89062L271.09616 195.57812L272.28366 195.57812Q273.58054 195.57812 274.2993 194.78125Q275.03366 193.96875 275.03366 192.46875L275.03366 191.96875Q275.03366 190.51562 274.34616 189.71875Q273.6743 188.90625 272.40866 188.89062L271.09616 188.89062ZM280.14304 192.53125L279.09616 193.60938L279.09616 196.5L277.97116 196.5L277.97116 187.96875L279.09616 187.96875L279.09616 192.1875L282.89304 187.96875L284.2524 187.96875L280.89304 191.73438L284.51804 196.5L283.1743 196.5L280.14304 192.53125ZM288.14304 192.53125L287.09616 193.60938L287.09616 196.5L285.97116 196.5L285.97116 187.96875L287.09616 187.96875L287.09616 192.1875L290.89304 187.96875L292.2524 187.96875L288.89304 191.73438L292.51804 196.5L291.1743 196.5L288.14304 192.53125Z" fill-rule="nonzero"/><path fill="#ffffff" d="M249.25243 196.5L248.1743 196.5L248.1743 189.28125L245.9868 190.07812L245.9868 189.09375L249.09618 187.92188L249.25243 187.92188L249.25243 196.5ZM257.26807 193.64062L258.45557 193.64062L258.45557 194.51562L257.26807 194.51562L257.26807 196.5L256.18994 196.5L256.18994 194.51562L252.2993 194.51562L252.2993 193.875L256.11182 187.96875L257.26807 187.96875L257.26807 193.64062ZM253.53368 193.64062L256.18994 193.64062L256.18994 189.45312L256.04932 189.6875L253.53368 193.64062ZM263.95557 187.96875L263.95557 188.875L263.75244 188.875Q262.48682 188.90625 261.73682 189.64062Q260.98682 190.35938 260.86182 191.67188Q261.54932 190.90625 262.70557 190.90625Q263.81494 190.90625 264.48682 191.6875Q265.1587 192.46875 265.1587 193.71875Q265.1587 195.03125 264.43994 195.82812Q263.7212 196.625 262.50244 196.625Q261.2837 196.625 260.51807 195.6875Q259.76807 194.73438 259.76807 193.25L259.76807 192.84375Q259.76807 190.48438 260.76807 189.23438Q261.76807 187.98438 263.75244 187.96875L263.95557 187.96875ZM262.5337 191.8125Q261.9712 191.8125 261.50244 192.14062Q261.0337 192.46875 260.8462 192.98438L260.8462 193.375Q260.8462 194.4375 261.31494 195.07812Q261.79932 195.71875 262.50244 195.71875Q263.23682 195.71875 263.6587 195.1875Q264.08057 194.64062 264.08057 193.76562Q264.08057 192.89062 263.6587 192.35938Q263.23682 191.8125 262.5337 191.8125ZM269.9712 196.5L269.9712 187.96875L272.39307 187.96875Q273.50244 187.96875 274.3462 188.46875Q275.20557 188.95312 275.67432 189.85938Q276.14307 190.76562 276.14307 191.95312L276.14307 192.48438Q276.14307 193.70312 275.67432 194.60938Q275.2212 195.51562 274.3462 196.0Q273.48682 196.48438 272.3462 196.5L269.9712 196.5ZM271.0962 188.89062L271.0962 195.57812L272.2837 195.57812Q273.58057 195.57812 274.29932 194.78125Q275.0337 193.96875 275.0337 192.46875L275.0337 191.96875Q275.0337 190.51562 274.3462 189.71875Q273.67432 188.90625 272.4087 188.89062L271.0962 188.89062ZM280.14307 192.53125L279.0962 193.60938L279.0962 196.5L277.9712 196.5L277.9712 187.96875L279.0962 187.96875L279.0962 192.1875L282.89307 187.96875L284.25244 187.96875L280.89307 191.73438L284.51807 196.5L283.17432 196.5L280.14307 192.53125ZM288.14307 192.53125L287.0962 193.60938L287.0962 196.5L285.9712 196.5L285.9712 187.96875L287.0962 187.96875L287.0962 192.1875L290.89307 187.96875L292.25244 187.96875L288.89307 191.73438L292.51807 196.5L291.17432 196.5L288.14307 192.53125Z" fill-rule="nonzero"/><path stroke="#db4437" stroke-width="3.0" stroke-linejoin="round" stroke-linecap="round" d="M236.97862 249.5L235.9005 249.5L235.9005 242.28125L233.713 243.07812L233.713 242.09375L236.82237 240.92188L236.97862 240.92188L236.97862 249.5ZM241.99425 244.70312L242.80675 244.70312Q243.588 244.6875 244.0255 244.29688Q244.463 243.90625 244.463 243.23438Q244.463 241.73438 242.963 241.73438Q242.25987 241.73438 241.838 242.14062Q241.43175 242.54688 241.43175 243.20312L240.338 243.20312Q240.338 242.1875 241.07237 241.51562Q241.82237 240.84375 242.963 240.84375Q244.16612 240.84375 244.85362 241.48438Q245.54112 242.125 245.54112 243.26562Q245.54112 243.82812 245.18175 244.34375Q244.82237 244.85938 244.19737 245.125Q244.9005 245.34375 245.2755 245.85938Q245.66612 246.375 245.66612 247.125Q245.66612 248.26562 244.91612 248.95312Q244.16612 249.625 242.963 249.625Q241.7755 249.625 241.00987 248.96875Q240.25987 248.3125 240.25987 247.25L241.35362 247.25Q241.35362 247.92188 241.79112 248.32812Q242.22862 248.73438 242.97862 248.73438Q243.75987 248.73438 244.16612 248.32812Q244.588 247.90625 244.588 247.14062Q244.588 246.40625 244.13487 246.01562Q243.68175 245.60938 242.80675 245.59375L241.99425 245.59375L241.99425 244.70312ZM247.91612 245.21875L248.35362 240.96875L252.72862 240.96875L252.72862 241.96875L249.2755 241.96875L249.00987 244.29688Q249.6505 243.92188 250.44737 243.92188Q251.60362 243.92188 252.29112 244.70312Q252.97862 245.46875 252.97862 246.78125Q252.97862 248.09375 252.25987 248.85938Q251.55675 249.625 250.2755 249.625Q249.1505 249.625 248.43175 249.0Q247.713 248.35938 247.61925 247.25L248.63487 247.25Q248.74425 247.98438 249.16612 248.35938Q249.588 248.73438 250.2755 248.73438Q251.0255 248.73438 251.463 248.21875Q251.9005 247.70312 251.9005 246.79688Q251.9005 245.9375 251.43175 245.42188Q250.963 244.90625 250.18175 244.90625Q249.47862 244.90625 249.07237 245.20312L248.79112 245.4375L247.91612 245.21875ZM257.6974 249.5L257.6974 240.96875L260.11926 240.96875Q261.22864 240.96875 262.0724 241.46875Q262.93176 241.95312 263.4005 242.85938Q263.86926 243.76562 263.86926 244.95312L263.86926 245.48438Q263.86926 246.70312 263.4005 247.60938Q262.9474 248.51562 262.0724 249.0Q261.213 249.48438 260.0724 249.5L257.6974 249.5ZM258.8224 241.89062L258.8224 248.57812L260.0099 248.57812Q261.30676 248.57812 262.0255 247.78125Q262.7599 246.96875 262.7599 245.46875L262.7599 244.96875Q262.7599 243.51562 262.0724 242.71875Q261.4005 241.90625 260.1349 241.89062L258.8224 241.89062ZM267.86926 245.53125L266.8224 246.60938L266.8224 249.5L265.6974 249.5L265.6974 240.96875L266.8224 240.96875L266.8224 245.1875L270.61926 240.96875L271.97864 240.96875L268.61926 244.73438L272.24426 249.5L270.9005 249.5L267.86926 245.53125ZM275.86926 245.53125L274.8224 246.60938L274.8224 249.5L273.6974 249.5L273.6974 240.96875L274.8224 240.96875L274.8224 245.1875L278.61926 240.96875L279.97864 240.96875L276.61926 244.73438L280.24426 249.5L278.9005 249.5L275.86926 245.53125Z" fill-rule="nonzero"/><path fill="#ffffff" d="M236.97862 249.5L235.9005 249.5L235.9005 242.28125L233.713 243.07812L233.713 242.09375L236.82237 240.92188L236.97862 240.92188L236.97862 249.5ZM241.99425 244.70312L242.80675 244.70312Q243.588 244.6875 244.0255 244.29688Q244.463 243.90625 244.463 243.23438Q244.463 241.73438 242.963 241.73438Q242.25987 241.73438 241.838 242.14062Q241.43175 242.54688 241.43175 243.20312L240.338 243.20312Q240.338 242.1875 241.07237 241.51562Q241.82237 240.84375 242.963 240.84375Q244.16612 240.84375 244.85362 241.48438Q245.54112 242.125 245.54112 243.26562Q245.54112 243.82812 245.18175 244.34375Q244.82237 244.85938 244.19737 245.125Q244.9005 245.34375 245.2755 245.85938Q245.66612 246.375 245.66612 247.125Q245.66612 248.26562 244.91612 248.95312Q244.16612 249.625 242.963 249.625Q241.7755 249.625 241.00987 248.96875Q240.25987 248.3125 240.25987 247.25L241.35362 247.25Q241.35362 247.92188 241.79112 248.32812Q242.22862 248.73438 242.97862 248.73438Q243.75987 248.73438 244.16612 248.32812Q244.588 247.90625 244.588 247.14062Q244.588 246.40625 244.13487 246.01562Q243.68175 245.60938 242.80675 245.59375L241.99425 245.59375L241.99425 244.70312ZM247.91612 245.21875L248.35362 240.96875L252.72862 240.96875L252.72862 241.96875L249.2755 241.96875L249.00987 244.29688Q249.6505 243.92188 250.44737 243.92188Q251.60362 243.92188 252.29112 244.70312Q252.97862 245.46875 252.97862 246.78125Q252.97862 248.09375 252.25987 248.85938Q251.55675 249.625 250.2755 249.625Q249.1505 249.625 248.43175 249.0Q247.713 248.35938 247.61925 247.25L248.63487 247.25Q248.74425 247.98438 249.16612 248.35938Q249.588 248.73438 250.2755 248.73438Q251.0255 248.73438 251.463 248.21875Q251.9005 247.70312 251.9005 246.79688Q251.9005 245.9375 251.43175 245.42188Q250.963 244.90625 250.18175 244.90625Q249.47862 244.90625 249.07237 245.20312L248.79112 245.4375L247.91612 245.21875ZM257.6974 249.5L257.6974 240.96875L260.11926 240.96875Q261.22864 240.96875 262.0724 241.46875Q262.93176 241.95312 263.4005 242.85938Q263.86926 243.76562 263.86926 244.95312L263.86926 245.48438Q263.86926 246.70312 263.4005 247.60938Q262.9474 248.51562 262.0724 249.0Q261.213 249.48438 260.0724 249.5L257.6974 249.5ZM258.8224 241.89062L258.8224 248.57812L260.0099 248.57812Q261.30676 248.57812 262.0255 247.78125Q262.7599 246.96875 262.7599 245.46875L262.7599 244.96875Q262.7599 243.51562 262.0724 242.71875Q261.4005 241.90625 260.1349 241.89062L258.8224 241.89062ZM267.86926 245.53125L266.8224 246.60938L266.8224 249.5L265.6974 249.5L265.6974 240.96875L266.8224 240.96875L266.8224 245.1875L270.61926 240.96875L271.97864 240.96875L268.61926 244.73438L272.24426 249.5L270.9005 249.5L267.86926 245.53125ZM275.86926 245.53125L274.8224 246.60938L274.8224 249.5L273.6974 249.5L273.6974 240.96875L274.8224 240.96875L274.8224 245.1875L278.61926 240.96875L279.97864 240.96875L276.61926 244.73438L280.24426 249.5L278.9005 249.5L275.86926 245.53125Z" fill-rule="nonzero"/><path fill="#000000" d="M72.86437 90.0023L76.16125 81.40855L77.38 81.40855L80.89562 90.0023L79.61437 90.0023L78.59875 87.39292L75.02062 87.39292L74.0675 90.0023L72.86437 90.0023ZM75.34875 86.47105L78.255 86.47105L77.36437 84.09605Q76.9425 83.01792 76.755 82.3148Q76.58312 83.14292 76.28625 83.95542L75.34875 86.47105ZM80.67687 92.39292L80.67687 83.78355L81.63 83.78355L81.63 84.58042Q81.97375 84.11167 82.39562 83.8773Q82.83312 83.64292 83.4425 83.64292Q84.23937 83.64292 84.84875 84.04917Q85.45812 84.45542 85.755 85.20542Q86.0675 85.95542 86.0675 86.84605Q86.0675 87.79917 85.72375 88.5648Q85.39562 89.33042 84.73937 89.73667Q84.08312 90.14292 83.36437 90.14292Q82.83312 90.14292 82.41125 89.92417Q81.98937 89.6898 81.72375 89.36167L81.72375 92.39292L80.67687 92.39292ZM81.63 86.92417Q81.63 88.1273 82.11437 88.70542Q82.59875 89.26792 83.28625 89.26792Q83.98937 89.26792 84.48937 88.67417Q84.98937 88.08042 84.98937 86.83042Q84.98937 85.64292 84.505 85.0648Q84.02062 84.47105 83.33312 84.47105Q82.66125 84.47105 82.14562 85.09605Q81.63 85.72105 81.63 86.92417ZM91.73937 89.23667Q91.14562 89.73667 90.59875 89.9398Q90.0675 90.14292 89.4425 90.14292Q88.41125 90.14292 87.86437 89.64292Q87.3175 89.14292 87.3175 88.36167Q87.3175 87.90855 87.52062 87.53355Q87.72375 87.14292 88.0675 86.92417Q88.41125 86.6898 88.83312 86.58042Q89.13 86.48667 89.77062 86.40855Q91.03625 86.26792 91.64562 86.04917Q91.64562 85.83042 91.64562 85.78355Q91.64562 85.1273 91.34875 84.86167Q90.9425 84.51792 90.14562 84.51792Q89.41125 84.51792 89.05187 84.78355Q88.6925 85.03355 88.52062 85.6898L87.48937 85.54917Q87.63 84.89292 87.95812 84.48667Q88.28625 84.08042 88.89562 83.86167Q89.505 83.64292 90.30187 83.64292Q91.09875 83.64292 91.59875 83.83042Q92.09875 84.01792 92.33312 84.29917Q92.5675 84.58042 92.66125 85.01792Q92.70812 85.28355 92.70812 85.98667L92.70812 87.39292Q92.70812 88.86167 92.77062 89.2523Q92.84875 89.64292 93.05187 90.0023L91.9425 90.0023Q91.78625 89.67417 91.73937 89.23667ZM91.64562 86.8773Q91.0675 87.11167 89.92687 87.28355Q89.27062 87.3773 89.005 87.5023Q88.73937 87.61167 88.58312 87.83042Q88.4425 88.04917 88.4425 88.33042Q88.4425 88.7523 88.755 89.03355Q89.08312 89.3148 89.6925 89.3148Q90.30187 89.3148 90.77062 89.04917Q91.255 88.78355 91.47375 88.3148Q91.64562 87.95542 91.64562 87.26792L91.64562 86.8773ZM94.66125 90.0023L94.66125 83.78355L95.61437 83.78355L95.61437 84.72105Q95.97375 84.0648 96.27062 83.86167Q96.58312 83.64292 96.95812 83.64292Q97.48937 83.64292 98.03625 83.97105L97.67687 84.95542Q97.28625 84.72105 96.91125 84.72105Q96.55187 84.72105 96.27062 84.9398Q96.005 85.14292 95.89562 85.51792Q95.70812 86.08042 95.70812 86.73667L95.70812 90.0023L94.66125 90.0023ZM100.97375 89.0648L101.13 89.98667Q100.67687 90.08042 100.33312 90.08042Q99.755 90.08042 99.4425 89.90855Q99.13 89.72105 98.98937 89.42417Q98.86437 89.1273 98.86437 88.17417L98.86437 84.59605L98.09875 84.59605L98.09875 83.78355L98.86437 83.78355L98.86437 82.23667L99.91125 81.61167L99.91125 83.78355L100.97375 83.78355L100.97375 84.59605L99.91125 84.59605L99.91125 88.23667Q99.91125 88.6898 99.95812 88.8148Q100.02062 88.9398 100.14562 89.01792Q100.27062 89.09605 100.505 89.09605Q100.6925 89.09605 100.97375 89.0648ZM101.67687 90.0023L101.67687 83.78355L102.61437 83.78355L102.61437 84.65855Q102.91125 84.1898 103.39562 83.92417Q103.88 83.64292 104.505 83.64292Q105.1925 83.64292 105.63 83.92417Q106.08312 84.20542 106.255 84.72105Q107.005 83.64292 108.17687 83.64292Q109.11437 83.64292 109.59875 84.15855Q110.09875 84.65855 110.09875 85.73667L110.09875 90.0023L109.05187 90.0023L109.05187 86.08042Q109.05187 85.45542 108.9425 85.17417Q108.84875 84.89292 108.58312 84.72105Q108.3175 84.54917 107.9425 84.54917Q107.28625 84.54917 106.84875 84.98667Q106.42687 85.42417 106.42687 86.39292L106.42687 90.0023L105.36437 90.0023L105.36437 85.95542Q105.36437 85.2523 105.09875 84.90855Q104.84875 84.54917 104.27062 84.54917Q103.8175 84.54917 103.4425 84.78355Q103.0675 85.01792 102.89562 85.47105Q102.72375 85.92417 102.72375 86.76792L102.72375 90.0023L101.67687 90.0023ZM116.92687 88.0023L118.02062 88.1273Q117.77062 89.08042 117.0675 89.61167Q116.36437 90.14292 115.28625 90.14292Q113.92687 90.14292 113.11437 89.29917Q112.3175 88.45542 112.3175 86.9398Q112.3175 85.3773 113.13 84.51792Q113.9425 83.64292 115.22375 83.64292Q116.47375 83.64292 117.255 84.48667Q118.05187 85.33042 118.05187 86.8773Q118.05187 86.97105 118.05187 87.15855L113.41125 87.15855Q113.47375 88.1898 113.98937 88.73667Q114.505 89.26792 115.28625 89.26792Q115.86437 89.26792 116.27062 88.97105Q116.6925 88.65855 116.92687 88.0023ZM113.47375 86.29917L116.9425 86.29917Q116.88 85.5023 116.55187 85.11167Q116.03625 84.5023 115.23937 84.5023Q114.505 84.5023 114.005 84.98667Q113.52062 85.47105 113.47375 86.29917ZM119.67687 90.0023L119.67687 83.78355L120.61437 83.78355L120.61437 84.65855Q121.30187 83.64292 122.59875 83.64292Q123.16125 83.64292 123.63 83.84605Q124.11437 84.04917 124.34875 84.3773Q124.58312 84.70542 124.67687 85.14292Q124.72375 85.4398 124.72375 86.17417L124.72375 90.0023L123.67687 90.0023L123.67687 86.22105Q123.67687 85.5648 123.55187 85.2523Q123.42687 84.9398 123.11437 84.7523Q122.80187 84.54917 122.38 84.54917Q121.70812 84.54917 121.20812 84.98667Q120.72375 85.40855 120.72375 86.59605L120.72375 90.0023L119.67687 90.0023ZM128.97375 89.0648L129.13 89.98667Q128.67688 90.08042 128.33313 90.08042Q127.755 90.08042 127.4425 89.90855Q127.13 89.72105 126.98937 89.42417Q126.86437 89.1273 126.86437 88.17417L126.86437 84.59605L126.09875 84.59605L126.09875 83.78355L126.86437 83.78355L126.86437 82.23667L127.91125 81.61167L127.91125 83.78355L128.97375 83.78355L128.97375 84.59605L127.91125 84.59605L127.91125 88.23667Q127.91125 88.6898 127.95812 88.8148Q128.02063 88.9398 128.14563 89.01792Q128.27063 89.09605 128.505 89.09605Q128.6925 89.09605 128.97375 89.0648Z" fill-rule="nonzero"/><path fill="#000000" d="M62.426876 140.07959L63.489376 139.98584Q63.5675 140.64209 63.84875 141.04834Q64.130005 141.45459 64.70813 141.72021Q65.30188 141.97021 66.036255 141.97021Q66.67688 141.97021 67.17688 141.78271Q67.67688 141.57959 67.911255 141.25146Q68.161255 140.90771 68.161255 140.51709Q68.161255 140.11084 67.92688 139.81396Q67.692505 139.50146 67.161255 139.29834Q66.80188 139.15771 65.61438 138.87646Q64.442505 138.59521 63.97375 138.34521Q63.34875 138.01709 63.051876 137.54834Q62.755 137.06396 62.755 136.47021Q62.755 135.82959 63.114376 135.26709Q63.489376 134.68896 64.192505 134.40771Q64.911255 134.11084 65.77063 134.11084Q66.723755 134.11084 67.45813 134.42334Q68.192505 134.72021 68.58313 135.32959Q68.973755 135.92334 69.005005 136.67334L67.911255 136.75146Q67.817505 135.93896 67.30188 135.53271Q66.80188 135.11084 65.817505 135.11084Q64.786255 135.11084 64.317505 135.48584Q63.84875 135.86084 63.84875 136.39209Q63.84875 136.86084 64.17688 137.15771Q64.505005 137.45459 65.880005 137.76709Q67.27063 138.07959 67.786255 138.31396Q68.536255 138.67334 68.89563 139.20459Q69.255005 139.72021 69.255005 140.42334Q69.255005 141.11084 68.86438 141.72021Q68.473755 142.31396 67.73938 142.65771Q67.005005 142.98584 66.08313 142.98584Q64.911255 142.98584 64.11438 142.65771Q63.333126 142.31396 62.88 141.62646Q62.4425 140.93896 62.426876 140.07959ZM70.67688 135.47021L70.67688 134.25146L71.73938 134.25146L71.73938 135.47021L70.67688 135.47021ZM70.67688 142.84521L70.67688 136.62646L71.73938 136.62646L71.73938 142.84521L70.67688 142.84521ZM73.67688 142.84521L73.67688 136.62646L74.61438 136.62646L74.61438 137.50146Q75.30188 136.48584 76.598755 136.48584Q77.161255 136.48584 77.630005 136.68896Q78.11438 136.89209 78.348755 137.22021Q78.58313 137.54834 78.67688 137.98584Q78.723755 138.28271 78.723755 139.01709L78.723755 142.84521L77.67688 142.84521L77.67688 139.06396Q77.67688 138.40771 77.55188 138.09521Q77.42688 137.78271 77.11438 137.59521Q76.80188 137.39209 76.380005 137.39209Q75.70813 137.39209 75.20813 137.82959Q74.723755 138.25146 74.723755 139.43896L74.723755 142.84521L73.67688 142.84521ZM80.473755 143.36084L81.505005 143.51709Q81.567505 143.98584 81.86438 144.20459Q82.255005 144.50146 82.92688 144.50146Q83.661255 144.50146 84.05188 144.20459Q84.45813 143.90771 84.598755 143.39209Q84.692505 143.06396 84.67688 142.03271Q83.98938 142.84521 82.95813 142.84521Q81.67688 142.84521 80.973755 141.92334Q80.27063 140.98584 80.27063 139.70459Q80.27063 138.81396 80.58313 138.06396Q80.911255 137.29834 81.52063 136.89209Q82.130005 136.48584 82.95813 136.48584Q84.067505 136.48584 84.786255 137.37646L84.786255 136.62646L85.755005 136.62646L85.755005 142.00146Q85.755005 143.45459 85.45813 144.06396Q85.161255 144.67334 84.52063 145.01709Q83.880005 145.37646 82.942505 145.37646Q81.83313 145.37646 81.14563 144.87646Q80.45813 144.37646 80.473755 143.36084ZM81.348755 139.62646Q81.348755 140.84521 81.83313 141.40771Q82.317505 141.97021 83.05188 141.97021Q83.786255 141.97021 84.27063 141.40771Q84.77063 140.84521 84.77063 139.65771Q84.77063 138.51709 84.255005 137.93896Q83.755005 137.36084 83.036255 137.36084Q82.33313 137.36084 81.83313 137.93896Q81.348755 138.50146 81.348755 139.62646ZM87.64563 142.84521L87.64563 134.25146L88.70813 134.25146L88.70813 142.84521L87.64563 142.84521ZM94.92688 140.84521L96.02063 140.97021Q95.77063 141.92334 95.067505 142.45459Q94.36438 142.98584 93.286255 142.98584Q91.92688 142.98584 91.11438 142.14209Q90.317505 141.29834 90.317505 139.78271Q90.317505 138.22021 91.130005 137.36084Q91.942505 136.48584 93.223755 136.48584Q94.473755 136.48584 95.255005 137.32959Q96.05188 138.17334 96.05188 139.72021Q96.05188 139.81396 96.05188 140.00146L91.411255 140.00146Q91.473755 141.03271 91.98938 141.57959Q92.505005 142.11084 93.286255 142.11084Q93.86438 142.11084 94.27063 141.81396Q94.692505 141.50146 94.92688 140.84521ZM91.473755 139.14209L94.942505 139.14209Q94.880005 138.34521 94.55188 137.95459Q94.036255 137.34521 93.23938 137.34521Q92.505005 137.34521 92.005005 137.82959Q91.52063 138.31396 91.473755 139.14209ZM100.661255 142.84521L100.661255 136.62646L101.61438 136.62646L101.61438 137.56396Q101.973755 136.90771 102.27063 136.70459Q102.58313 136.48584 102.95813 136.48584Q103.48938 136.48584 104.036255 136.81396L103.67688 137.79834Q103.286255 137.56396 102.911255 137.56396Q102.55188 137.56396 102.27063 137.78271Q102.005005 137.98584 101.89563 138.36084Q101.70813 138.92334 101.70813 139.57959L101.70813 142.84521L100.661255 142.84521ZM104.286255 139.73584Q104.286255 138.00146 105.23938 137.17334Q106.036255 136.48584 107.192505 136.48584Q108.473755 136.48584 109.286255 137.32959Q110.11438 138.15771 110.11438 139.64209Q110.11438 140.84521 109.755005 141.53271Q109.39563 142.22021 108.692505 142.61084Q108.005005 142.98584 107.192505 142.98584Q105.89563 142.98584 105.08313 142.15771Q104.286255 141.31396 104.286255 139.73584ZM105.36438 139.73584Q105.36438 140.92334 105.880005 141.51709Q106.411255 142.11084 107.192505 142.11084Q107.98938 142.11084 108.505005 141.51709Q109.02063 140.92334 109.02063 139.70459Q109.02063 138.54834 108.48938 137.95459Q107.973755 137.36084 107.192505 137.36084Q106.411255 137.36084 105.880005 137.95459Q105.36438 138.53271 105.36438 139.73584ZM111.286255 139.73584Q111.286255 138.00146 112.23938 137.17334Q113.036255 136.48584 114.192505 136.48584Q115.473755 136.48584 116.286255 137.32959Q117.11438 138.15771 117.11438 139.64209Q117.11438 140.84521 116.755005 141.53271Q116.39563 142.22021 115.692505 142.61084Q115.005005 142.98584 114.192505 142.98584Q112.89563 142.98584 112.08313 142.15771Q111.286255 141.31396 111.286255 139.73584ZM112.36438 139.73584Q112.36438 140.92334 112.880005 141.51709Q113.411255 142.11084 114.192505 142.11084Q114.98938 142.11084 115.505005 141.51709Q116.02063 140.92334 116.02063 139.70459Q116.02063 138.54834 115.48938 137.95459Q114.973755 137.36084 114.192505 137.36084Q113.411255 137.36084 112.880005 137.95459Q112.36438 138.53271 112.36438 139.73584ZM118.67688 142.84521L118.67688 136.62646L119.61438 136.62646L119.61438 137.50146Q119.911255 137.03271 120.39563 136.76709Q120.880005 136.48584 121.505005 136.48584Q122.192505 136.48584 122.630005 136.76709Q123.08313 137.04834 123.255005 137.56396Q124.005005 136.48584 125.17688 136.48584Q126.11438 136.48584 126.598755 137.00146Q127.098755 137.50146 127.098755 138.57959L127.098755 142.84521L126.05188 142.84521L126.05188 138.92334Q126.05188 138.29834 125.942505 138.01709Q125.848755 137.73584 125.58313 137.56396Q125.317505 137.39209 124.942505 137.39209Q124.286255 137.39209 123.848755 137.82959Q123.42688 138.26709 123.42688 139.23584L123.42688 142.84521L122.36438 142.84521L122.36438 138.79834Q122.36438 138.09521 122.098755 137.75146Q121.848755 137.39209 121.27063 137.39209Q120.817505 137.39209 120.442505 137.62646Q120.067505 137.86084 119.89563 138.31396Q119.723755 138.76709 119.723755 139.61084L119.723755 142.84521L118.67688 142.84521Z" fill-rule="nonzero"/><path fill="#000000" d="M92.84875 195.68813L92.84875 187.09438L93.97375 187.09438L93.97375 190.62563L98.4425 190.62563L98.4425 187.09438L99.58312 187.09438L99.58312 195.68813L98.4425 195.68813L98.4425 191.64125L93.97375 191.64125L93.97375 195.68813L92.84875 195.68813ZM101.28625 192.57875Q101.28625 190.84438 102.23937 190.01625Q103.03625 189.32875 104.1925 189.32875Q105.47375 189.32875 106.28625 190.1725Q107.11437 191.00063 107.11437 192.485Q107.11437 193.68813 106.755 194.37563Q106.39562 195.06313 105.6925 195.45375Q105.005 195.82875 104.1925 195.82875Q102.89562 195.82875 102.08312 195.00063Q101.28625 194.15688 101.28625 192.57875ZM102.36437 192.57875Q102.36437 193.76625 102.88 194.36Q103.41125 194.95375 104.1925 194.95375Q104.98937 194.95375 105.505 194.36Q106.02062 193.76625 106.02062 192.5475Q106.02062 191.39125 105.48937 190.7975Q104.97375 190.20375 104.1925 190.20375Q103.41125 190.20375 102.88 190.7975Q102.36437 191.37563 102.36437 192.57875ZM112.755 195.68813L112.755 194.76625Q112.02062 195.82875 110.77062 195.82875Q110.22375 195.82875 109.73937 195.62563Q109.27062 195.40688 109.03625 195.09438Q108.80187 194.76625 108.70812 194.2975Q108.64562 194.00063 108.64562 193.31313L108.64562 189.46938L109.70812 189.46938L109.70812 192.9225Q109.70812 193.735 109.77062 194.03188Q109.86437 194.43813 110.17687 194.68813Q110.505 194.9225 110.98937 194.9225Q111.45812 194.9225 111.86437 194.68813Q112.28625 194.43813 112.45812 194.01625Q112.64562 193.59438 112.64562 192.7975L112.64562 189.46938L113.6925 189.46938L113.6925 195.68813L112.755 195.68813ZM115.255 193.82875L116.28625 193.6725Q116.38 194.2975 116.77062 194.62563Q117.17687 194.95375 117.91125 194.95375Q118.63 194.95375 118.97375 194.6725Q119.33312 194.37563 119.33312 193.96938Q119.33312 193.61 119.02062 193.40688Q118.80187 193.26625 117.9425 193.0475Q116.78625 192.75063 116.33312 192.5475Q115.89562 192.32875 115.66125 191.95375Q115.42687 191.57875 115.42687 191.11Q115.42687 190.70375 115.61437 190.34438Q115.80187 189.985 116.13 189.75063Q116.38 189.57875 116.80187 189.45375Q117.22375 189.32875 117.72375 189.32875Q118.4425 189.32875 118.98937 189.5475Q119.55187 189.75063 119.8175 190.11Q120.08312 190.46938 120.17687 191.06313L119.14562 191.20375Q119.08312 190.735 118.73937 190.46938Q118.41125 190.18813 117.78625 190.18813Q117.0675 190.18813 116.755 190.43813Q116.4425 190.6725 116.4425 191.00063Q116.4425 191.20375 116.5675 191.36Q116.70812 191.53188 116.97375 191.64125Q117.13 191.70375 117.91125 191.90688Q119.03625 192.21938 119.47375 192.40688Q119.91125 192.59438 120.16125 192.95375Q120.41125 193.31313 120.41125 193.86Q120.41125 194.39125 120.09875 194.86Q119.80187 195.31313 119.22375 195.57875Q118.64562 195.82875 117.91125 195.82875Q116.6925 195.82875 116.05187 195.32875Q115.42687 194.81313 115.255 193.82875ZM126.92687 193.68813L128.02063 193.81313Q127.77062 194.76625 127.0675 195.2975Q126.36437 195.82875 125.28625 195.82875Q123.92687 195.82875 123.11437 194.985Q122.3175 194.14125 122.3175 192.62563Q122.3175 191.06313 123.13 190.20375Q123.9425 189.32875 125.22375 189.32875Q126.47375 189.32875 127.255 190.1725Q128.05188 191.01625 128.05188 192.56313Q128.05188 192.65688 128.05188 192.84438L123.41125 192.84438Q123.47375 193.87563 123.98937 194.4225Q124.505 194.95375 125.28625 194.95375Q125.86437 194.95375 126.27062 194.65688Q126.6925 194.34438 126.92687 193.68813ZM123.47375 191.985L126.9425 191.985Q126.88 191.18813 126.55187 190.7975Q126.03625 190.18813 125.23937 190.18813Q124.505 190.18813 124.005 190.6725Q123.52062 191.15688 123.47375 191.985Z" fill-rule="nonzero"/><path fill="#000000" d="M45.426876 238.76541L46.489376 238.67166Q46.5675 239.32791 46.84875 239.73416Q47.13 240.14041 47.708126 240.40604Q48.301876 240.65604 49.03625 240.65604Q49.676876 240.65604 50.176876 240.46854Q50.676876 240.26541 50.91125 239.93729Q51.16125 239.59354 51.16125 239.20291Q51.16125 238.79666 50.926876 238.49979Q50.6925 238.18729 50.16125 237.98416Q49.801876 237.84354 48.614376 237.56229Q47.4425 237.28104 46.97375 237.03104Q46.34875 236.70291 46.051876 236.23416Q45.755 235.74979 45.755 235.15604Q45.755 234.51541 46.114376 233.95291Q46.489376 233.37479 47.1925 233.09354Q47.91125 232.79666 48.770626 232.79666Q49.72375 232.79666 50.458126 233.10916Q51.1925 233.40604 51.583126 234.01541Q51.97375 234.60916 52.005 235.35916L50.91125 235.43729Q50.8175 234.62479 50.301876 234.21854Q49.801876 233.79666 48.8175 233.79666Q47.78625 233.79666 47.3175 234.17166Q46.84875 234.54666 46.84875 235.07791Q46.84875 235.54666 47.176876 235.84354Q47.505 236.14041 48.88 236.45291Q50.270626 236.76541 50.78625 236.99979Q51.53625 237.35916 51.895626 237.89041Q52.255 238.40604 52.255 239.10916Q52.255 239.79666 51.864376 240.40604Q51.47375 240.99979 50.739376 241.34354Q50.005 241.67166 49.083126 241.67166Q47.91125 241.67166 47.114376 241.34354Q46.333126 240.99979 45.88 240.31229Q45.4425 239.62479 45.426876 238.76541ZM57.926876 239.53104L59.020626 239.65604Q58.770626 240.60916 58.0675 241.14041Q57.364376 241.67166 56.28625 241.67166Q54.926876 241.67166 54.114376 240.82791Q53.3175 239.98416 53.3175 238.46854Q53.3175 236.90604 54.13 236.04666Q54.9425 235.17166 56.22375 235.17166Q57.47375 235.17166 58.255 236.01541Q59.051876 236.85916 59.051876 238.40604Q59.051876 238.49979 59.051876 238.68729L54.41125 238.68729Q54.47375 239.71854 54.989376 240.26541Q55.505 240.79666 56.28625 240.79666Q56.864376 240.79666 57.270626 240.49979Q57.6925 240.18729 57.926876 239.53104ZM54.47375 237.82791L57.9425 237.82791Q57.88 237.03104 57.551876 236.64041Q57.03625 236.03104 56.239376 236.03104Q55.505 236.03104 55.005 236.51541Q54.520626 236.99979 54.47375 237.82791ZM60.676876 241.53104L60.676876 235.31229L61.614376 235.31229L61.614376 236.18729Q61.91125 235.71854 62.395626 235.45291Q62.88 235.17166 63.505 235.17166Q64.192505 235.17166 64.630005 235.45291Q65.08313 235.73416 65.255005 236.24979Q66.005005 235.17166 67.17688 235.17166Q68.11438 235.17166 68.598755 235.68729Q69.098755 236.18729 69.098755 237.26541L69.098755 241.53104L68.05188 241.53104L68.05188 237.60916Q68.05188 236.98416 67.942505 236.70291Q67.848755 236.42166 67.58313 236.24979Q67.317505 236.07791 66.942505 236.07791Q66.286255 236.07791 65.848755 236.51541Q65.42688 236.95291 65.42688 237.92166L65.42688 241.53104L64.36438 241.53104L64.36438 237.48416Q64.36438 236.78104 64.098755 236.43729Q63.84875 236.07791 63.270626 236.07791Q62.8175 236.07791 62.4425 236.31229Q62.0675 236.54666 61.895626 236.99979Q61.72375 237.45291 61.72375 238.29666L61.72375 241.53104L60.676876 241.53104ZM71.67688 234.15604L71.67688 232.93729L72.73938 232.93729L72.73938 234.15604L71.67688 234.15604ZM71.67688 241.53104L71.67688 235.31229L72.73938 235.31229L72.73938 241.53104L71.67688 241.53104ZM74.255005 238.95291L74.255005 237.89041L77.505005 237.89041L77.505005 238.95291L74.255005 238.95291ZM82.70813 241.53104L82.70813 240.74979Q82.11438 241.67166 80.973755 241.67166Q80.223755 241.67166 79.598755 241.26541Q78.973755 240.84354 78.630005 240.10916Q78.286255 239.37479 78.286255 238.42166Q78.286255 237.49979 78.598755 236.73416Q78.911255 235.96854 79.536255 235.57791Q80.161255 235.17166 80.92688 235.17166Q81.48938 235.17166 81.92688 235.40604Q82.36438 235.64041 82.64563 236.01541L82.64563 232.93729L83.692505 232.93729L83.692505 241.53104L82.70813 241.53104ZM79.380005 238.42166Q79.380005 239.62479 79.880005 240.21854Q80.380005 240.79666 81.067505 240.79666Q81.755005 240.79666 82.23938 240.23416Q82.723755 239.67166 82.723755 238.51541Q82.723755 237.23416 82.223755 236.64041Q81.73938 236.04666 81.02063 236.04666Q80.317505 236.04666 79.848755 236.62479Q79.380005 237.18729 79.380005 238.42166ZM89.92688 239.53104L91.02063 239.65604Q90.77063 240.60916 90.067505 241.14041Q89.36438 241.67166 88.286255 241.67166Q86.92688 241.67166 86.11438 240.82791Q85.317505 239.98416 85.317505 238.46854Q85.317505 236.90604 86.130005 236.04666Q86.942505 235.17166 88.223755 235.17166Q89.473755 235.17166 90.255005 236.01541Q91.05188 236.85916 91.05188 238.40604Q91.05188 238.49979 91.05188 238.68729L86.411255 238.68729Q86.473755 239.71854 86.98938 240.26541Q87.505005 240.79666 88.286255 240.79666Q88.86438 240.79666 89.27063 240.49979Q89.692505 240.18729 89.92688 239.53104ZM86.473755 237.82791L89.942505 237.82791Q89.880005 237.03104 89.55188 236.64041Q89.036255 236.03104 88.23938 236.03104Q87.505005 236.03104 87.005005 236.51541Q86.52063 236.99979 86.473755 237.82791ZM94.973755 240.59354L95.130005 241.51541Q94.67688 241.60916 94.33313 241.60916Q93.755005 241.60916 93.442505 241.43729Q93.130005 241.24979 92.98938 240.95291Q92.86438 240.65604 92.86438 239.70291L92.86438 236.12479L92.098755 236.12479L92.098755 235.31229L92.86438 235.31229L92.86438 233.76541L93.911255 233.14041L93.911255 235.31229L94.973755 235.31229L94.973755 236.12479L93.911255 236.12479L93.911255 239.76541Q93.911255 240.21854 93.95813 240.34354Q94.02063 240.46854 94.14563 240.54666Q94.27063 240.62479 94.505005 240.62479Q94.692505 240.62479 94.973755 240.59354ZM99.73938 240.76541Q99.14563 241.26541 98.598755 241.46854Q98.067505 241.67166 97.442505 241.67166Q96.411255 241.67166 95.86438 241.17166Q95.317505 240.67166 95.317505 239.89041Q95.317505 239.43729 95.52063 239.06229Q95.723755 238.67166 96.067505 238.45291Q96.411255 238.21854 96.83313 238.10916Q97.130005 238.01541 97.77063 237.93729Q99.036255 237.79666 99.64563 237.57791Q99.64563 237.35916 99.64563 237.31229Q99.64563 236.65604 99.348755 236.39041Q98.942505 236.04666 98.14563 236.04666Q97.411255 236.04666 97.05188 236.31229Q96.692505 236.56229 96.52063 237.21854L95.48938 237.07791Q95.630005 236.42166 95.95813 236.01541Q96.286255 235.60916 96.89563 235.39041Q97.505005 235.17166 98.30188 235.17166Q99.098755 235.17166 99.598755 235.35916Q100.098755 235.54666 100.33313 235.82791Q100.567505 236.10916 100.661255 236.54666Q100.70813 236.81229 100.70813 237.51541L100.70813 238.92166Q100.70813 240.39041 100.77063 240.78104Q100.848755 241.17166 101.05188 241.53104L99.942505 241.53104Q99.786255 241.20291 99.73938 240.76541ZM99.64563 238.40604Q99.067505 238.64041 97.92688 238.81229Q97.27063 238.90604 97.005005 239.03104Q96.73938 239.14041 96.58313 239.35916Q96.442505 239.57791 96.442505 239.85916Q96.442505 240.28104 96.755005 240.56229Q97.08313 240.84354 97.692505 240.84354Q98.30188 240.84354 98.77063 240.57791Q99.255005 240.31229 99.473755 239.84354Q99.64563 239.48416 99.64563 238.79666L99.64563 238.40604ZM106.73938 239.24979L107.77063 239.39041Q107.598755 240.45291 106.89563 241.06229Q106.192505 241.67166 105.17688 241.67166Q103.89563 241.67166 103.11438 240.84354Q102.348755 239.99979 102.348755 238.43729Q102.348755 237.43729 102.67688 236.68729Q103.02063 235.92166 103.692505 235.54666Q104.380005 235.17166 105.192505 235.17166Q106.192505 235.17166 106.83313 235.68729Q107.48938 236.18729 107.67688 237.14041L106.64563 237.29666Q106.505005 236.67166 106.130005 236.35916Q105.755005 236.03104 105.223755 236.03104Q104.42688 236.03104 103.92688 236.60916Q103.42688 237.17166 103.42688 238.40604Q103.42688 239.67166 103.911255 240.23416Q104.39563 240.79666 105.161255 240.79666Q105.786255 240.79666 106.192505 240.42166Q106.61438 240.04666 106.73938 239.24979ZM108.67688 241.53104L108.67688 232.93729L109.723755 232.93729L109.723755 236.01541Q110.45813 235.17166 111.58313 235.17166Q112.286255 235.17166 112.786255 235.45291Q113.30188 235.71854 113.52063 236.20291Q113.73938 236.67166 113.73938 237.59354L113.73938 241.53104L112.692505 241.53104L112.692505 237.59354Q112.692505 236.79666 112.348755 236.43729Q112.005005 236.07791 111.380005 236.07791Q110.911255 236.07791 110.48938 236.32791Q110.08313 236.56229 109.89563 236.98416Q109.723755 237.39041 109.723755 238.12479L109.723755 241.53104L108.67688 241.53104ZM119.92688 239.53104L121.02063 239.65604Q120.77063 240.60916 120.067505 241.14041Q119.36438 241.67166 118.286255 241.67166Q116.92688 241.67166 116.11438 240.82791Q115.317505 239.98416 115.317505 238.46854Q115.317505 236.90604 116.130005 236.04666Q116.942505 235.17166 118.223755 235.17166Q119.473755 235.17166 120.255005 236.01541Q121.05188 236.85916 121.05188 238.40604Q121.05188 238.49979 121.05188 238.68729L116.411255 238.68729Q116.473755 239.71854 116.98938 240.26541Q117.505005 240.79666 118.286255 240.79666Q118.86438 240.79666 119.27063 240.49979Q119.692505 240.18729 119.92688 239.53104ZM116.473755 237.82791L119.942505 237.82791Q119.880005 237.03104 119.55188 236.64041Q119.036255 236.03104 118.23938 236.03104Q117.505005 236.03104 117.005005 236.51541Q116.52063 236.99979 116.473755 237.82791ZM126.70813 241.53104L126.70813 240.74979Q126.11438 241.67166 124.973755 241.67166Q124.223755 241.67166 123.598755 241.26541Q122.973755 240.84354 122.630005 240.10916Q122.286255 239.37479 122.286255 238.42166Q122.286255 237.49979 122.598755 236.73416Q122.911255 235.96854 123.536255 235.57791Q124.161255 235.17166 124.92688 235.17166Q125.48938 235.17166 125.92688 235.40604Q126.36438 235.64041 126.64563 236.01541L126.64563 232.93729L127.692505 232.93729L127.692505 241.53104L126.70813 241.53104ZM123.380005 238.42166Q123.380005 239.62479 123.880005 240.21854Q124.380005 240.79666 125.067505 240.79666Q125.755005 240.79666 126.23938 240.23416Q126.723755 239.67166 126.723755 238.51541Q126.723755 237.23416 126.223755 236.64041Q125.73938 236.04666 125.02063 236.04666Q124.317505 236.04666 123.848755 236.62479Q123.380005 237.18729 123.380005 238.42166Z" fill-rule="nonzero"/><path fill="#000000" d="M94.67687 255.53104L94.67687 246.93729L95.72375 246.93729L95.72375 250.01541Q96.45812 249.17166 97.58312 249.17166Q98.28625 249.17166 98.78625 249.45291Q99.30187 249.71854 99.52062 250.20291Q99.73937 250.67166 99.73937 251.59354L99.73937 255.53104L98.6925 255.53104L98.6925 251.59354Q98.6925 250.79666 98.34875 250.43729Q98.005 250.07791 97.38 250.07791Q96.91125 250.07791 96.48937 250.32791Q96.08312 250.56229 95.89562 250.98416Q95.72375 251.39041 95.72375 252.12479L95.72375 255.53104L94.67687 255.53104ZM101.28625 252.42166Q101.28625 250.68729 102.23937 249.85916Q103.03625 249.17166 104.1925 249.17166Q105.47375 249.17166 106.28625 250.01541Q107.11437 250.84354 107.11437 252.32791Q107.11437 253.53104 106.755 254.21854Q106.39562 254.90604 105.6925 255.29666Q105.005 255.67166 104.1925 255.67166Q102.89562 255.67166 102.08312 254.84354Q101.28625 253.99979 101.28625 252.42166ZM102.36437 252.42166Q102.36437 253.60916 102.88 254.20291Q103.41125 254.79666 104.1925 254.79666Q104.98937 254.79666 105.505 254.20291Q106.02062 253.60916 106.02062 252.39041Q106.02062 251.23416 105.48937 250.64041Q104.97375 250.04666 104.1925 250.04666Q103.41125 250.04666 102.88 250.64041Q102.36437 251.21854 102.36437 252.42166ZM112.755 255.53104L112.755 254.60916Q112.02062 255.67166 110.77062 255.67166Q110.22375 255.67166 109.73937 255.46854Q109.27062 255.24979 109.03625 254.93729Q108.80187 254.60916 108.70812 254.14041Q108.64562 253.84354 108.64562 253.15604L108.64562 249.31229L109.70812 249.31229L109.70812 252.76541Q109.70812 253.57791 109.77062 253.87479Q109.86437 254.28104 110.17687 254.53104Q110.505 254.76541 110.98937 254.76541Q111.45812 254.76541 111.86437 254.53104Q112.28625 254.28104 112.45812 253.85916Q112.64562 253.43729 112.64562 252.64041L112.64562 249.31229L113.6925 249.31229L113.6925 255.53104L112.755 255.53104ZM115.255 253.67166L116.28625 253.51541Q116.38 254.14041 116.77062 254.46854Q117.17687 254.79666 117.91125 254.79666Q118.63 254.79666 118.97375 254.51541Q119.33312 254.21854 119.33312 253.81229Q119.33312 253.45291 119.02062 253.24979Q118.80187 253.10916 117.9425 252.89041Q116.78625 252.59354 116.33312 252.39041Q115.89562 252.17166 115.66125 251.79666Q115.42687 251.42166 115.42687 250.95291Q115.42687 250.54666 115.61437 250.18729Q115.80187 249.82791 116.13 249.59354Q116.38 249.42166 116.80187 249.29666Q117.22375 249.17166 117.72375 249.17166Q118.4425 249.17166 118.98937 249.39041Q119.55187 249.59354 119.8175 249.95291Q120.08312 250.31229 120.17687 250.90604L119.14562 251.04666Q119.08312 250.57791 118.73937 250.31229Q118.41125 250.03104 117.78625 250.03104Q117.0675 250.03104 116.755 250.28104Q116.4425 250.51541 116.4425 250.84354Q116.4425 251.04666 116.5675 251.20291Q116.70812 251.37479 116.97375 251.48416Q117.13 251.54666 117.91125 251.74979Q119.03625 252.06229 119.47375 252.24979Q119.91125 252.43729 120.16125 252.79666Q120.41125 253.15604 120.41125 253.70291Q120.41125 254.23416 120.09875 254.70291Q119.80187 255.15604 119.22375 255.42166Q118.64562 255.67166 117.91125 255.67166Q116.6925 255.67166 116.05187 255.17166Q115.42687 254.65604 115.255 253.67166ZM126.92687 253.53104L128.02063 253.65604Q127.77062 254.60916 127.0675 255.14041Q126.36437 255.67166 125.28625 255.67166Q123.92687 255.67166 123.11437 254.82791Q122.3175 253.98416 122.3175 252.46854Q122.3175 250.90604 123.13 250.04666Q123.9425 249.17166 125.22375 249.17166Q126.47375 249.17166 127.255 250.01541Q128.05188 250.85916 128.05188 252.40604Q128.05188 252.49979 128.05188 252.68729L123.41125 252.68729Q123.47375 253.71854 123.98937 254.26541Q124.505 254.79666 125.28625 254.79666Q125.86437 254.79666 126.27062 254.49979Q126.6925 254.18729 126.92687 253.53104ZM123.47375 251.82791L126.9425 251.82791Q126.88 251.03104 126.55187 250.64041Q126.03625 250.03104 125.23937 250.03104Q124.505 250.03104 124.005 250.51541Q123.52062 250.99979 123.47375 251.82791Z" fill-rule="nonzero"/><path fill="#000000" d="M119.38 292.96564Q119.38 291.4344 119.6925 290.5125Q120.005 289.575 120.61437 289.075Q121.23937 288.575 122.17687 288.575Q122.86437 288.575 123.38 288.85626Q123.91125 289.1375 124.255 289.66876Q124.59875 290.1844 124.78625 290.9344Q124.97375 291.6844 124.97375 292.96564Q124.97375 294.48126 124.66125 295.40314Q124.36437 296.325 123.73937 296.84064Q123.13 297.34064 122.17687 297.34064Q120.9425 297.34064 120.22375 296.45Q119.38 295.3875 119.38 292.96564ZM120.45812 292.96564Q120.45812 295.075 120.95812 295.77814Q121.45812 296.48126 122.17687 296.48126Q122.91125 296.48126 123.39562 295.77814Q123.89562 295.075 123.89562 292.96564Q123.89562 290.84064 123.39562 290.15314Q122.91125 289.45 122.16125 289.45Q121.4425 289.45 121.005 290.0594Q120.45812 290.84064 120.45812 292.96564ZM129.80188 297.2L129.80188 288.60626L132.77063 288.60626Q133.77063 288.60626 134.30188 288.73126Q135.03625 288.90314 135.55188 289.34064Q136.23938 289.91876 136.5675 290.825Q136.91125 291.71564 136.91125 292.85626Q136.91125 293.84064 136.67688 294.59064Q136.45813 295.34064 136.09875 295.84064Q135.73938 296.34064 135.30188 296.6219Q134.88 296.90314 134.28625 297.0594Q133.6925 297.2 132.91125 297.2L129.80188 297.2ZM130.9425 296.1844L132.77063 296.1844Q133.63 296.1844 134.11438 296.02814Q134.59875 295.8719 134.88 295.575Q135.28625 295.1844 135.505 294.4969Q135.73938 293.8094 135.73938 292.84064Q135.73938 291.4969 135.28625 290.77814Q134.84875 290.04376 134.22375 289.79376Q133.755 289.6219 132.755 289.6219L130.9425 289.6219L130.9425 296.1844ZM138.755 297.2L138.755 288.60626L139.89563 288.60626L139.89563 292.8719L144.16125 288.60626L145.70813 288.60626L142.09875 292.09064L145.86438 297.2L144.36438 297.2L141.30188 292.85626L139.89563 294.21564L139.89563 297.2L138.755 297.2ZM146.755 297.2L146.755 288.60626L147.89563 288.60626L147.89563 292.8719L152.16125 288.60626L153.70813 288.60626L150.09875 292.09064L153.86438 297.2L152.36438 297.2L149.30188 292.85626L147.89563 294.21564L147.89563 297.2L146.755 297.2Z" fill-rule="nonzero"/><path fill="#000000" d="M227.92876 297.2L226.88188 297.2L226.88188 290.48126Q226.49126 290.84064 225.86626 291.21564Q225.25688 291.575 224.7725 291.7469L224.7725 290.73126Q225.6475 290.3094 226.30376 289.73126Q226.97563 289.1375 227.25688 288.575L227.92876 288.575L227.92876 297.2ZM230.96 292.96564Q230.96 291.4344 231.2725 290.5125Q231.585 289.575 232.19438 289.075Q232.81938 288.575 233.75688 288.575Q234.44438 288.575 234.96 288.85626Q235.49126 289.1375 235.835 289.66876Q236.17876 290.1844 236.36626 290.9344Q236.55376 291.6844 236.55376 292.96564Q236.55376 294.48126 236.24126 295.40314Q235.94438 296.325 235.31938 296.84064Q234.71 297.34064 233.75688 297.34064Q232.5225 297.34064 231.80376 296.45Q230.96 295.3875 230.96 292.96564ZM232.03813 292.96564Q232.03813 295.075 232.53813 295.77814Q233.03813 296.48126 233.75688 296.48126Q234.49126 296.48126 234.97563 295.77814Q235.47563 295.075 235.47563 292.96564Q235.47563 290.84064 234.97563 290.15314Q234.49126 289.45 233.74126 289.45Q233.0225 289.45 232.585 290.0594Q232.03813 290.84064 232.03813 292.96564ZM237.96 292.96564Q237.96 291.4344 238.2725 290.5125Q238.585 289.575 239.19438 289.075Q239.81938 288.575 240.75688 288.575Q241.44438 288.575 241.96 288.85626Q242.49126 289.1375 242.835 289.66876Q243.17876 290.1844 243.36626 290.9344Q243.55376 291.6844 243.55376 292.96564Q243.55376 294.48126 243.24126 295.40314Q242.94438 296.325 242.31938 296.84064Q241.71 297.34064 240.75688 297.34064Q239.5225 297.34064 238.80376 296.45Q237.96 295.3875 237.96 292.96564ZM239.03813 292.96564Q239.03813 295.075 239.53813 295.77814Q240.03813 296.48126 240.75688 296.48126Q241.49126 296.48126 241.97563 295.77814Q242.47563 295.075 242.47563 292.96564Q242.47563 290.84064 241.97563 290.15314Q241.49126 289.45 240.74126 289.45Q240.0225 289.45 239.585 290.0594Q239.03813 290.84064 239.03813 292.96564ZM248.38188 297.2L248.38188 288.60626L251.35063 288.60626Q252.35063 288.60626 252.88188 288.73126Q253.61626 288.90314 254.13188 289.34064Q254.81938 289.91876 255.1475 290.825Q255.49126 291.71564 255.49126 292.85626Q255.49126 293.84064 255.25688 294.59064Q255.03813 295.34064 254.67876 295.84064Q254.31938 296.34064 253.88188 296.6219Q253.46 296.90314 252.86626 297.0594Q252.2725 297.2 251.49126 297.2L248.38188 297.2ZM249.5225 296.1844L251.35063 296.1844Q252.21 296.1844 252.69438 296.02814Q253.17876 295.8719 253.46 295.575Q253.86626 295.1844 254.085 294.4969Q254.31938 293.8094 254.31938 292.84064Q254.31938 291.4969 253.86626 290.77814Q253.42876 290.04376 252.80376 289.79376Q252.335 289.6219 251.335 289.6219L249.5225 289.6219L249.5225 296.1844ZM257.33502 297.2L257.33502 288.60626L258.47565 288.60626L258.47565 292.8719L262.74127 288.60626L264.28815 288.60626L260.67877 292.09064L264.4444 297.2L262.9444 297.2L259.8819 292.85626L258.47565 294.21564L258.47565 297.2L257.33502 297.2ZM265.33502 297.2L265.33502 288.60626L266.47565 288.60626L266.47565 292.8719L270.74127 288.60626L272.28815 288.60626L268.67877 292.09064L272.4444 297.2L270.9444 297.2L267.8819 292.85626L266.47565 294.21564L266.47565 297.2L265.33502 297.2Z" fill-rule="nonzero"/><path fill="#000000" d="M341.08688 296.1844L341.08688 297.2L335.39938 297.2Q335.39938 296.825 335.52438 296.46564Q335.74313 295.8875 336.21188 295.325Q336.69626 294.7625 337.6025 294.02814Q339.00876 292.8719 339.49313 292.2Q339.99313 291.52814 339.99313 290.9344Q339.99313 290.3094 339.54 289.8875Q339.08688 289.45 338.36813 289.45Q337.6025 289.45 337.14938 289.90314Q336.69626 290.35626 336.68063 291.16876L335.6025 291.0594Q335.71188 289.84064 336.43063 289.21564Q337.165 288.575 338.39938 288.575Q339.63376 288.575 340.3525 289.2625Q341.07126 289.95 341.07126 290.96564Q341.07126 291.48126 340.8525 291.98126Q340.64938 292.46564 340.14938 293.02814Q339.665 293.575 338.54 294.52814Q337.58688 295.325 337.30563 295.6219Q337.04 295.90314 336.86813 296.1844L341.08688 296.1844ZM342.54 292.96564Q342.54 291.4344 342.8525 290.5125Q343.165 289.575 343.77438 289.075Q344.39938 288.575 345.33688 288.575Q346.02438 288.575 346.54 288.85626Q347.07126 289.1375 347.415 289.66876Q347.75876 290.1844 347.94626 290.9344Q348.13376 291.6844 348.13376 292.96564Q348.13376 294.48126 347.82126 295.40314Q347.52438 296.325 346.89938 296.84064Q346.29 297.34064 345.33688 297.34064Q344.1025 297.34064 343.38376 296.45Q342.54 295.3875 342.54 292.96564ZM343.61813 292.96564Q343.61813 295.075 344.11813 295.77814Q344.61813 296.48126 345.33688 296.48126Q346.07126 296.48126 346.55563 295.77814Q347.05563 295.075 347.05563 292.96564Q347.05563 290.84064 346.55563 290.15314Q346.07126 289.45 345.32126 289.45Q344.6025 289.45 344.165 290.0594Q343.61813 290.84064 343.61813 292.96564ZM349.54 292.96564Q349.54 291.4344 349.8525 290.5125Q350.165 289.575 350.77438 289.075Q351.39938 288.575 352.33688 288.575Q353.02438 288.575 353.54 288.85626Q354.07126 289.1375 354.415 289.66876Q354.75876 290.1844 354.94626 290.9344Q355.13376 291.6844 355.13376 292.96564Q355.13376 294.48126 354.82126 295.40314Q354.52438 296.325 353.89938 296.84064Q353.29 297.34064 352.33688 297.34064Q351.1025 297.34064 350.38376 296.45Q349.54 295.3875 349.54 292.96564ZM350.61813 292.96564Q350.61813 295.075 351.11813 295.77814Q351.61813 296.48126 352.33688 296.48126Q353.07126 296.48126 353.55563 295.77814Q354.05563 295.075 354.05563 292.96564Q354.05563 290.84064 353.55563 290.15314Q353.07126 289.45 352.32126 289.45Q351.6025 289.45 351.165 290.0594Q350.61813 290.84064 350.61813 292.96564ZM359.96188 297.2L359.96188 288.60626L362.93063 288.60626Q363.93063 288.60626 364.46188 288.73126Q365.19626 288.90314 365.71188 289.34064Q366.39938 289.91876 366.7275 290.825Q367.07126 291.71564 367.07126 292.85626Q367.07126 293.84064 366.83688 294.59064Q366.61813 295.34064 366.25876 295.84064Q365.89938 296.34064 365.46188 296.6219Q365.04 296.90314 364.44626 297.0594Q363.8525 297.2 363.07126 297.2L359.96188 297.2ZM361.1025 296.1844L362.93063 296.1844Q363.79 296.1844 364.27438 296.02814Q364.75876 295.8719 365.04 295.575Q365.44626 295.1844 365.665 294.4969Q365.89938 293.8094 365.89938 292.84064Q365.89938 291.4969 365.44626 290.77814Q365.00876 290.04376 364.38376 289.79376Q363.915 289.6219 362.915 289.6219L361.1025 289.6219L361.1025 296.1844ZM368.915 297.2L368.915 288.60626L370.05563 288.60626L370.05563 292.8719L374.32126 288.60626L375.86813 288.60626L372.25876 292.09064L376.02438 297.2L374.52438 297.2L371.46188 292.85626L370.05563 294.21564L370.05563 297.2L368.915 297.2ZM376.915 297.2L376.915 288.60626L378.05563 288.60626L378.05563 292.8719L382.32126 288.60626L383.86813 288.60626L380.25876 292.09064L384.02438 297.2L382.52438 297.2L379.46188 292.85626L378.05563 294.21564L378.05563 297.2L376.915 297.2Z" fill-rule="nonzero"/><path fill="#000000" d="M447.12 294.9344L448.1825 294.79376Q448.35437 295.6844 448.79187 296.09064Q449.22937 296.48126 449.85437 296.48126Q450.60437 296.48126 451.12 295.96564Q451.63562 295.45 451.63562 294.6844Q451.63562 293.96564 451.15125 293.4969Q450.6825 293.0125 449.94812 293.0125Q449.65125 293.0125 449.19812 293.1375L449.32312 292.2Q449.4325 292.21564 449.495 292.21564Q450.16687 292.21564 450.69812 291.8719Q451.245 291.5125 451.245 290.77814Q451.245 290.2 450.85437 289.825Q450.46375 289.4344 449.83875 289.4344Q449.22937 289.4344 448.8075 289.825Q448.40125 290.21564 448.29187 290.98126L447.22937 290.79376Q447.41687 289.7469 448.10437 289.16876Q448.79187 288.575 449.8075 288.575Q450.51062 288.575 451.10437 288.8875Q451.69812 289.1844 452.01062 289.7Q452.32312 290.21564 452.32312 290.8094Q452.32312 291.35626 452.02625 291.825Q451.72937 292.27814 451.15125 292.54376Q451.90125 292.71564 452.32312 293.27814Q452.745 293.825 452.745 294.66876Q452.745 295.79376 451.91687 296.575Q451.10437 297.35626 449.85437 297.35626Q448.72937 297.35626 447.97937 296.6844Q447.22937 295.9969 447.12 294.9344ZM454.12 292.96564Q454.12 291.4344 454.4325 290.5125Q454.745 289.575 455.35437 289.075Q455.97937 288.575 456.91687 288.575Q457.60437 288.575 458.12 288.85626Q458.65125 289.1375 458.995 289.66876Q459.33875 290.1844 459.52625 290.9344Q459.71375 291.6844 459.71375 292.96564Q459.71375 294.48126 459.40125 295.40314Q459.10437 296.325 458.47937 296.84064Q457.87 297.34064 456.91687 297.34064Q455.6825 297.34064 454.96375 296.45Q454.12 295.3875 454.12 292.96564ZM455.19812 292.96564Q455.19812 295.075 455.69812 295.77814Q456.19812 296.48126 456.91687 296.48126Q457.65125 296.48126 458.13562 295.77814Q458.63562 295.075 458.63562 292.96564Q458.63562 290.84064 458.13562 290.15314Q457.65125 289.45 456.90125 289.45Q456.1825 289.45 455.745 290.0594Q455.19812 290.84064 455.19812 292.96564ZM461.12 292.96564Q461.12 291.4344 461.4325 290.5125Q461.745 289.575 462.35437 289.075Q462.97937 288.575 463.91687 288.575Q464.60437 288.575 465.12 288.85626Q465.65125 289.1375 465.995 289.66876Q466.33875 290.1844 466.52625 290.9344Q466.71375 291.6844 466.71375 292.96564Q466.71375 294.48126 466.40125 295.40314Q466.10437 296.325 465.47937 296.84064Q464.87 297.34064 463.91687 297.34064Q462.6825 297.34064 461.96375 296.45Q461.12 295.3875 461.12 292.96564ZM462.19812 292.96564Q462.19812 295.075 462.69812 295.77814Q463.19812 296.48126 463.91687 296.48126Q464.65125 296.48126 465.13562 295.77814Q465.63562 295.075 465.63562 292.96564Q465.63562 290.84064 465.13562 290.15314Q464.65125 289.45 463.90125 289.45Q463.1825 289.45 462.745 290.0594Q462.19812 290.84064 462.19812 292.96564ZM471.54187 297.2L471.54187 288.60626L474.51062 288.60626Q475.51062 288.60626 476.04187 288.73126Q476.77625 288.90314 477.29187 289.34064Q477.97937 289.91876 478.3075 290.825Q478.65125 291.71564 478.65125 292.85626Q478.65125 293.84064 478.41687 294.59064Q478.19812 295.34064 477.83875 295.84064Q477.47937 296.34064 477.04187 296.6219Q476.62 296.90314 476.02625 297.0594Q475.4325 297.2 474.65125 297.2L471.54187 297.2ZM472.6825 296.1844L474.51062 296.1844Q475.37 296.1844 475.85437 296.02814Q476.33875 295.8719 476.62 295.575Q477.02625 295.1844 477.245 294.4969Q477.47937 293.8094 477.47937 292.84064Q477.47937 291.4969 477.02625 290.77814Q476.58875 290.04376 475.96375 289.79376Q475.495 289.6219 474.495 289.6219L472.6825 289.6219L472.6825 296.1844ZM480.495 297.2L480.495 288.60626L481.63562 288.60626L481.63562 292.8719L485.90125 288.60626L487.44812 288.60626L483.83875 292.09064L487.60437 297.2L486.10437 297.2L483.04187 292.85626L481.63562 294.21564L481.63562 297.2L480.495 297.2ZM488.495 297.2L488.495 288.60626L489.63562 288.60626L489.63562 292.8719L493.90125 288.60626L495.44812 288.60626L491.83875 292.09064L495.60437 297.2L494.10437 297.2L491.04187 292.85626L489.63562 294.21564L489.63562 297.2L488.495 297.2Z" fill-rule="nonzero"/><path fill="#757575" d="M17.284374 34.8L17.284374 20.4875L20.14375 20.4875L23.51875 30.6125Q23.9875 32.034374 24.20625 32.7375Q24.45625 31.95625 24.971874 30.440624L28.39375 20.4875L30.940624 20.4875L30.940624 34.8L29.128124 34.8L29.128124 22.815624L24.95625 34.8L23.253124 34.8L19.1125 22.6125L19.1125 34.8L17.284374 34.8ZM41.221874 31.45625L43.034374 31.690624Q42.6125 33.26875 41.440624 34.159374Q40.284374 35.034374 38.471874 35.034374Q36.20625 35.034374 34.8625 33.64375Q33.534374 32.2375 33.534374 29.70625Q33.534374 27.08125 34.878124 25.64375Q36.221874 24.190624 38.378124 24.190624Q40.45625 24.190624 41.76875 25.6125Q43.096874 27.01875 43.096874 29.596874Q43.096874 29.753124 43.08125 30.065624L35.346874 30.065624Q35.440624 31.76875 36.315624 32.675Q37.190624 33.58125 38.4875 33.58125Q39.45625 33.58125 40.128124 33.08125Q40.815624 32.565624 41.221874 31.45625ZM35.440624 28.6125L41.2375 28.6125Q41.128124 27.315624 40.58125 26.659374Q39.7375 25.64375 38.39375 25.64375Q37.190624 25.64375 36.3625 26.45625Q35.534374 27.253124 35.440624 28.6125ZM51.846874 34.8L51.846874 33.4875Q50.8625 35.034374 48.940624 35.034374Q47.70625 35.034374 46.659374 34.346874Q45.628124 33.659374 45.05 32.440624Q44.4875 31.221874 44.4875 29.628124Q44.4875 28.065624 45.003124 26.8Q45.51875 25.534374 46.55 24.8625Q47.596874 24.190624 48.8625 24.190624Q49.8 24.190624 50.534374 24.596874Q51.26875 24.9875 51.7375 25.6125L51.7375 20.4875L53.471874 20.4875L53.471874 34.8L51.846874 34.8ZM46.284374 29.628124Q46.284374 31.6125 47.128124 32.596874Q47.971874 33.58125 49.1125 33.58125Q50.26875 33.58125 51.065624 32.64375Q51.878124 31.70625 51.878124 29.76875Q51.878124 27.64375 51.05 26.64375Q50.2375 25.64375 49.034374 25.64375Q47.8625 25.64375 47.065624 26.6125Q46.284374 27.565624 46.284374 29.628124ZM56.128124 22.503124L56.128124 20.4875L57.89375 20.4875L57.89375 22.503124L56.128124 22.503124ZM56.128124 34.8L56.128124 24.425L57.89375 24.425L57.89375 34.8L56.128124 34.8ZM66.89375 33.51875Q65.90938 34.346874 65.00313 34.690624Q64.09688 35.034374 63.065624 35.034374Q61.3625 35.034374 60.440624 34.20625Q59.51875 33.3625 59.51875 32.065624Q59.51875 31.3 59.8625 30.675Q60.221874 30.05 60.784374 29.675Q61.346874 29.284374 62.05 29.08125Q62.565624 28.95625 63.6125 28.815624Q65.7375 28.565624 66.7375 28.221874Q66.75313 27.8625 66.75313 27.753124Q66.75313 26.690624 66.25313 26.2375Q65.58125 25.64375 64.25313 25.64375Q63.003124 25.64375 62.409374 26.08125Q61.83125 26.51875 61.55 27.628124L59.83125 27.39375Q60.065624 26.284374 60.596874 25.6125Q61.128124 24.925 62.14375 24.565624Q63.159374 24.190624 64.50313 24.190624Q65.83125 24.190624 66.65938 24.503124Q67.4875 24.815624 67.87813 25.3Q68.26875 25.76875 68.425 26.4875Q68.51875 26.940624 68.51875 28.1125L68.51875 30.45625Q68.51875 32.909374 68.62813 33.565624Q68.7375 34.20625 69.08125 34.8L67.2375 34.8Q66.97188 34.253124 66.89375 33.51875ZM66.7375 29.596874Q65.78438 29.9875 63.8625 30.253124Q62.784374 30.409374 62.33125 30.6125Q61.89375 30.8 61.64375 31.175Q61.39375 31.55 61.39375 32.01875Q61.39375 32.721874 61.925 33.190624Q62.45625 33.659374 63.4875 33.659374Q64.50313 33.659374 65.28438 33.221874Q66.08125 32.76875 66.45625 32.003124Q66.7375 31.39375 66.7375 30.2375L66.7375 29.596874ZM71.1125 34.8L71.1125 24.425L72.70625 24.425L72.70625 25.909374Q73.84688 24.190624 76.00313 24.190624Q76.94063 24.190624 77.72188 24.534374Q78.51875 24.8625 78.90938 25.409374Q79.3 25.95625 79.45625 26.70625Q79.55 27.20625 79.55 28.425L79.55 34.8L77.78438 34.8L77.78438 28.4875Q77.78438 27.409374 77.58125 26.878124Q77.37813 26.346874 76.84688 26.034374Q76.33125 25.721874 75.62813 25.721874Q74.50313 25.721874 73.69063 26.440624Q72.87813 27.14375 72.87813 29.128124L72.87813 34.8L71.1125 34.8ZM87.09688 34.8L87.09688 24.425L88.675 24.425L88.675 26.003124Q89.28438 24.89375 89.8 24.55Q90.31563 24.190624 90.925 24.190624Q91.81563 24.190624 92.7375 24.753124L92.12813 26.39375Q91.4875 26.003124 90.84688 26.003124Q90.26875 26.003124 89.8 26.3625Q89.34688 26.70625 89.14375 27.315624Q88.8625 28.253124 88.8625 29.3625L88.8625 34.8L87.09688 34.8ZM101.22188 31.45625L103.03438 31.690624Q102.6125 33.26875 101.44063 34.159374Q100.28438 35.034374 98.47188 35.034374Q96.20625 35.034374 94.8625 33.64375Q93.53438 32.2375 93.53438 29.70625Q93.53438 27.08125 94.87813 25.64375Q96.22188 24.190624 98.37813 24.190624Q100.45625 24.190624 101.76875 25.6125Q103.09688 27.01875 103.09688 29.596874Q103.09688 29.753124 103.08125 30.065624L95.34688 30.065624Q95.44063 31.76875 96.31563 32.675Q97.19063 33.58125 98.4875 33.58125Q99.45625 33.58125 100.12813 33.08125Q100.81563 32.565624 101.22188 31.45625ZM95.44063 28.6125L101.2375 28.6125Q101.12813 27.315624 100.58125 26.659374Q99.7375 25.64375 98.39375 25.64375Q97.19063 25.64375 96.3625 26.45625Q95.53438 27.253124 95.44063 28.6125ZM105.1125 34.8L105.1125 24.425L106.70625 24.425L106.70625 25.909374Q107.84688 24.190624 110.00313 24.190624Q110.94063 24.190624 111.72188 24.534374Q112.51875 24.8625 112.90938 25.409374Q113.3 25.95625 113.45625 26.70625Q113.55 27.20625 113.55 28.425L113.55 34.8L111.78438 34.8L111.78438 28.4875Q111.78438 27.409374 111.58125 26.878124Q111.37813 26.346874 110.84688 26.034374Q110.33125 25.721874 109.62813 25.721874Q108.50313 25.721874 107.69063 26.440624Q106.87813 27.14375 106.87813 29.128124L106.87813 34.8L105.1125 34.8ZM118.95625 33.221874L119.20625 34.784374Q118.47188 34.940624 117.87813 34.940624Q116.925 34.940624 116.39375 34.64375Q115.87813 34.33125 115.65938 33.846874Q115.44063 33.346874 115.44063 31.76875L115.44063 25.8L114.15938 25.8L114.15938 24.425L115.44063 24.425L115.44063 21.8625L117.19063 20.8L117.19063 24.425L118.95625 24.425L118.95625 25.8L117.19063 25.8L117.19063 31.8625Q117.19063 32.6125 117.28438 32.83125Q117.37813 33.034374 117.58125 33.175Q117.8 33.3 118.19063 33.3Q118.47188 33.3 118.95625 33.221874ZM127.1125 38.76875L127.1125 24.425L128.72188 24.425L128.72188 25.76875Q129.28438 24.9875 129.9875 24.596874Q130.70625 24.190624 131.72188 24.190624Q133.05 24.190624 134.06563 24.878124Q135.08125 25.565624 135.59688 26.815624Q136.12813 28.05 136.12813 29.534374Q136.12813 31.128124 135.55 32.409374Q134.9875 33.675 133.89375 34.3625Q132.8 35.034374 131.59688 35.034374Q130.72188 35.034374 130.01875 34.659374Q129.33125 34.284374 128.87813 33.721874L128.87813 38.76875L127.1125 38.76875ZM128.70625 29.675Q128.70625 31.675 129.51875 32.628124Q130.33125 33.58125 131.4875 33.58125Q132.65938 33.58125 133.4875 32.596874Q134.33125 31.6125 134.33125 29.51875Q134.33125 27.55 133.50313 26.565624Q132.69063 25.565624 131.56563 25.565624Q130.44063 25.565624 129.56563 26.628124Q128.70625 27.675 128.70625 29.675ZM145.22188 31.45625L147.03438 31.690624Q146.6125 33.26875 145.44063 34.159374Q144.28438 35.034374 142.47188 35.034374Q140.20625 35.034374 138.8625 33.64375Q137.53438 32.2375 137.53438 29.70625Q137.53438 27.08125 138.87813 25.64375Q140.22188 24.190624 142.37813 24.190624Q144.45625 24.190624 145.76875 25.6125Q147.09688 27.01875 147.09688 29.596874Q147.09688 29.753124 147.08125 30.065624L139.34688 30.065624Q139.44063 31.76875 140.31563 32.675Q141.19063 33.58125 142.4875 33.58125Q143.45625 33.58125 144.12813 33.08125Q144.81563 32.565624 145.22188 31.45625ZM139.44063 28.6125L145.2375 28.6125Q145.12813 27.315624 144.58125 26.659374Q143.7375 25.64375 142.39375 25.64375Q141.19063 25.64375 140.3625 26.45625Q139.53438 27.253124 139.44063 28.6125ZM149.09688 34.8L149.09688 24.425L150.675 24.425L150.675 26.003124Q151.28438 24.89375 151.8 24.55Q152.31563 24.190624 152.925 24.190624Q153.81563 24.190624 154.7375 24.753124L154.12813 26.39375Q153.4875 26.003124 152.84688 26.003124Q152.26875 26.003124 151.8 26.3625Q151.34688 26.70625 151.14375 27.315624Q150.8625 28.253124 150.8625 29.3625L150.8625 34.8L149.09688 34.8ZM161.40938 31.70625L163.15938 31.425Q163.3 32.471874 163.97188 33.034374Q164.64375 33.58125 165.84688 33.58125Q167.05 33.58125 167.62813 33.096874Q168.22188 32.596874 168.22188 31.940624Q168.22188 31.346874 167.70625 31.003124Q167.34688 30.76875 165.90938 30.409374Q163.97188 29.909374 163.22188 29.565624Q162.4875 29.20625 162.09688 28.58125Q161.70625 27.940624 161.70625 27.175Q161.70625 26.4875 162.01875 25.89375Q162.34688 25.3 162.89375 24.909374Q163.3 24.6125 164.00313 24.409374Q164.72188 24.190624 165.53438 24.190624Q166.75313 24.190624 167.675 24.55Q168.59688 24.89375 169.03438 25.503124Q169.47188 26.096874 169.64375 27.096874L167.925 27.33125Q167.8 26.534374 167.2375 26.096874Q166.675 25.64375 165.65938 25.64375Q164.44063 25.64375 163.925 26.05Q163.40938 26.440624 163.40938 26.971874Q163.40938 27.315624 163.62813 27.596874Q163.83125 27.878124 164.3 28.065624Q164.56563 28.159374 165.84688 28.503124Q167.72188 29.003124 168.45625 29.33125Q169.19063 29.64375 169.6125 30.253124Q170.03438 30.846874 170.03438 31.753124Q170.03438 32.628124 169.51875 33.409374Q169.00313 34.190624 168.03438 34.6125Q167.06563 35.034374 165.84688 35.034374Q163.83125 35.034374 162.76875 34.190624Q161.70625 33.346874 161.40938 31.70625ZM178.7375 38.76875L178.7375 33.690624Q178.31563 34.26875 177.58125 34.659374Q176.84688 35.034374 176.01875 35.034374Q174.175 35.034374 172.83125 33.565624Q171.50313 32.08125 171.50313 29.51875Q171.50313 27.95625 172.03438 26.721874Q172.58125 25.471874 173.6125 24.83125Q174.64375 24.190624 175.87813 24.190624Q177.8 24.190624 178.90938 25.815624L178.90938 24.425L180.4875 24.425L180.4875 38.76875L178.7375 38.76875ZM173.31563 29.58125Q173.31563 31.58125 174.14375 32.58125Q174.9875 33.58125 176.15938 33.58125Q177.28438 33.58125 178.09688 32.64375Q178.90938 31.690624 178.90938 29.7375Q178.90938 27.675 178.05 26.628124Q177.19063 25.58125 176.05 25.58125Q174.90938 25.58125 174.1125 26.55Q173.31563 27.51875 173.31563 29.58125ZM189.90938 34.8L189.90938 33.26875Q188.70625 35.034374 186.62813 35.034374Q185.70625 35.034374 184.90938 34.690624Q184.1125 34.33125 183.72188 33.8Q183.34688 33.26875 183.19063 32.4875Q183.08125 31.971874 183.08125 30.846874L183.08125 24.425L184.83125 24.425L184.83125 30.175Q184.83125 31.55 184.94063 32.034374Q185.1125 32.721874 185.64375 33.128124Q186.19063 33.51875 186.97188 33.51875Q187.76875 33.51875 188.45625 33.1125Q189.15938 32.70625 189.44063 32.01875Q189.7375 31.315624 189.7375 29.9875L189.7375 24.425L191.4875 24.425L191.4875 34.8L189.90938 34.8ZM199.89375 33.51875Q198.90938 34.346874 198.00313 34.690624Q197.09688 35.034374 196.06563 35.034374Q194.3625 35.034374 193.44063 34.20625Q192.51875 33.3625 192.51875 32.065624Q192.51875 31.3 192.8625 30.675Q193.22188 30.05 193.78438 29.675Q194.34688 29.284374 195.05 29.08125Q195.56563 28.95625 196.6125 28.815624Q198.7375 28.565624 199.7375 28.221874Q199.75313 27.8625 199.75313 27.753124Q199.75313 26.690624 199.25313 26.2375Q198.58125 25.64375 197.25313 25.64375Q196.00313 25.64375 195.40938 26.08125Q194.83125 26.51875 194.55 27.628124L192.83125 27.39375Q193.06563 26.284374 193.59688 25.6125Q194.12813 24.925 195.14375 24.565624Q196.15938 24.190624 197.50313 24.190624Q198.83125 24.190624 199.65938 24.503124Q200.4875 24.815624 200.87813 25.3Q201.26875 25.76875 201.425 26.4875Q201.51875 26.940624 201.51875 28.1125L201.51875 30.45625Q201.51875 32.909374 201.62813 33.565624Q201.7375 34.20625 202.08125 34.8L200.2375 34.8Q199.97188 34.253124 199.89375 33.51875ZM199.7375 29.596874Q198.78438 29.9875 196.8625 30.253124Q195.78438 30.409374 195.33125 30.6125Q194.89375 30.8 194.64375 31.175Q194.39375 31.55 194.39375 32.01875Q194.39375 32.721874 194.925 33.190624Q195.45625 33.659374 196.4875 33.659374Q197.50313 33.659374 198.28438 33.221874Q199.08125 32.76875 199.45625 32.003124Q199.7375 31.39375 199.7375 30.2375L199.7375 29.596874ZM204.09688 34.8L204.09688 24.425L205.675 24.425L205.675 26.003124Q206.28438 24.89375 206.8 24.55Q207.31563 24.190624 207.925 24.190624Q208.81563 24.190624 209.7375 24.753124L209.12813 26.39375Q208.4875 26.003124 207.84688 26.003124Q207.26875 26.003124 206.8 26.3625Q206.34688 26.70625 206.14375 27.315624Q205.8625 28.253124 205.8625 29.3625L205.8625 34.8L204.09688 34.8ZM218.22188 31.45625L220.03438 31.690624Q219.6125 33.26875 218.44063 34.159374Q217.28438 35.034374 215.47188 35.034374Q213.20625 35.034374 211.8625 33.64375Q210.53438 32.2375 210.53438 29.70625Q210.53438 27.08125 211.87813 25.64375Q213.22188 24.190624 215.37813 24.190624Q217.45625 24.190624 218.76875 25.6125Q220.09688 27.01875 220.09688 29.596874Q220.09688 29.753124 220.08125 30.065624L212.34688 30.065624Q212.44063 31.76875 213.31563 32.675Q214.19063 33.58125 215.4875 33.58125Q216.45625 33.58125 217.12813 33.08125Q217.81563 32.565624 218.22188 31.45625ZM212.44063 28.6125L218.2375 28.6125Q218.12813 27.315624 217.58125 26.659374Q216.7375 25.64375 215.39375 25.64375Q214.19063 25.64375 213.3625 26.45625Q212.53438 27.253124 212.44063 28.6125ZM228.1125 34.8L228.1125 24.425L229.69063 24.425L229.69063 25.878124Q230.175 25.128124 230.9875 24.659374Q231.8 24.190624 232.83125 24.190624Q233.9875 24.190624 234.72188 24.675Q235.45625 25.14375 235.76875 26.003124Q237.00313 24.190624 238.97188 24.190624Q240.51875 24.190624 241.34688 25.05Q242.175 25.909374 242.175 27.675L242.175 34.8L240.425 34.8L240.425 28.26875Q240.425 27.20625 240.25313 26.753124Q240.08125 26.284374 239.62813 26.003124Q239.19063 25.721874 238.58125 25.721874Q237.4875 25.721874 236.75313 26.45625Q236.03438 27.175 236.03438 28.76875L236.03438 34.8L234.28438 34.8L234.28438 28.065624Q234.28438 26.89375 233.84688 26.315624Q233.425 25.721874 232.44063 25.721874Q231.70625 25.721874 231.06563 26.1125Q230.44063 26.503124 230.15938 27.253124Q229.87813 28.003124 229.87813 29.425L229.87813 34.8L228.1125 34.8ZM251.22188 31.45625L253.03438 31.690624Q252.6125 33.26875 251.44063 34.159374Q250.28438 35.034374 248.47188 35.034374Q246.20625 35.034374 244.8625 33.64375Q243.53438 32.2375 243.53438 29.70625Q243.53438 27.08125 244.87813 25.64375Q246.22188 24.190624 248.37813 24.190624Q250.45625 24.190624 251.76875 25.6125Q253.09688 27.01875 253.09688 29.596874Q253.09688 29.753124 253.08125 30.065624L245.34688 30.065624Q245.44063 31.76875 246.31563 32.675Q247.19063 33.58125 248.4875 33.58125Q249.45625 33.58125 250.12813 33.08125Q250.81563 32.565624 251.22188 31.45625ZM245.44063 28.6125L251.2375 28.6125Q251.12813 27.315624 250.58125 26.659374Q249.7375 25.64375 248.39375 25.64375Q247.19063 25.64375 246.3625 26.45625Q245.53438 27.253124 245.44063 28.6125ZM258.95624 33.221874L259.20624 34.784374Q258.47186 34.940624 257.8781 34.940624Q256.925 34.940624 256.39374 34.64375Q255.87813 34.33125 255.65938 33.846874Q255.44063 33.346874 255.44063 31.76875L255.44063 25.8L254.15938 25.8L254.15938 24.425L255.44063 24.425L255.44063 21.8625L257.1906 20.8L257.1906 24.425L258.95624 24.425L258.95624 25.8L257.1906 25.8L257.1906 31.8625Q257.1906 32.6125 257.28436 32.83125Q257.3781 33.034374 257.58124 33.175Q257.8 33.3 258.1906 33.3Q258.47186 33.3 258.95624 33.221874ZM268.22186 31.45625L270.03436 31.690624Q269.6125 33.26875 268.4406 34.159374Q267.28436 35.034374 265.47186 35.034374Q263.20624 35.034374 261.8625 33.64375Q260.53436 32.2375 260.53436 29.70625Q260.53436 27.08125 261.8781 25.64375Q263.22186 24.190624 265.3781 24.190624Q267.45624 24.190624 268.76874 25.6125Q270.09686 27.01875 270.09686 29.596874Q270.09686 29.753124 270.08124 30.065624L262.34686 30.065624Q262.4406 31.76875 263.3156 32.675Q264.1906 33.58125 265.4875 33.58125Q266.45624 33.58125 267.1281 33.08125Q267.8156 32.565624 268.22186 31.45625ZM262.4406 28.6125L268.2375 28.6125Q268.1281 27.315624 267.58124 26.659374Q266.7375 25.64375 265.39374 25.64375Q264.1906 25.64375 263.3625 26.45625Q262.53436 27.253124 262.4406 28.6125ZM272.09686 34.8L272.09686 24.425L273.675 24.425L273.675 26.003124Q274.28436 24.89375 274.8 24.55Q275.3156 24.190624 275.925 24.190624Q276.8156 24.190624 277.7375 24.753124L277.1281 26.39375Q276.4875 26.003124 275.84686 26.003124Q275.26874 26.003124 274.8 26.3625Q274.34686 26.70625 274.14374 27.315624Q273.8625 28.253124 273.8625 29.3625L273.8625 34.8L272.09686 34.8ZM286.7375 34.8L285.1125 34.8L285.1125 20.4875L286.8625 20.4875L286.8625 25.596874Q287.9875 24.190624 289.70624 24.190624Q290.65936 24.190624 291.51874 24.58125Q292.3781 24.971874 292.925 25.675Q293.47186 26.3625 293.78436 27.346874Q294.09686 28.33125 294.09686 29.45625Q294.09686 32.128124 292.78436 33.58125Q291.47186 35.034374 289.6281 35.034374Q287.78436 35.034374 286.7375 33.503124L286.7375 34.8ZM286.72186 29.534374Q286.72186 31.39375 287.22186 32.2375Q288.0656 33.58125 289.47186 33.58125Q290.6281 33.58125 291.45624 32.58125Q292.3 31.58125 292.3 29.596874Q292.3 27.565624 291.4875 26.6125Q290.6906 25.64375 289.55 25.64375Q288.39374 25.64375 287.55 26.64375Q286.72186 27.64375 286.72186 29.534374ZM296.03436 38.8L295.84686 37.14375Q296.425 37.3 296.84686 37.3Q297.4406 37.3 297.78436 37.096874Q298.14374 36.909374 298.3625 36.565624Q298.53436 36.3 298.90936 35.253124Q298.95624 35.096874 299.0656 34.815624L295.1281 24.425L297.01874 24.425L299.175 30.440624Q299.59686 31.58125 299.925 32.83125Q300.2375 31.628124 300.64374 30.471874L302.8625 24.425L304.6281 24.425L300.675 34.971874Q300.05 36.690624 299.6906 37.33125Q299.22186 38.20625 298.6125 38.596874Q298.01874 39.003124 297.175 39.003124Q296.65936 39.003124 296.03436 38.8ZM312.09686 34.8L312.09686 24.425L313.675 24.425L313.675 26.003124Q314.28436 24.89375 314.8 24.55Q315.3156 24.190624 315.925 24.190624Q316.8156 24.190624 317.7375 24.753124L317.1281 26.39375Q316.4875 26.003124 315.84686 26.003124Q315.26874 26.003124 314.8 26.3625Q314.34686 26.70625 314.14374 27.315624Q313.8625 28.253124 313.8625 29.3625L313.8625 34.8L312.09686 34.8ZM326.22186 31.45625L328.03436 31.690624Q327.6125 33.26875 326.4406 34.159374Q325.28436 35.034374 323.47186 35.034374Q321.20624 35.034374 319.8625 33.64375Q318.53436 32.2375 318.53436 29.70625Q318.53436 27.08125 319.8781 25.64375Q321.22186 24.190624 323.3781 24.190624Q325.45624 24.190624 326.76874 25.6125Q328.09686 27.01875 328.09686 29.596874Q328.09686 29.753124 328.08124 30.065624L320.34686 30.065624Q320.4406 31.76875 321.3156 32.675Q322.1906 33.58125 323.4875 33.58125Q324.45624 33.58125 325.1281 33.08125Q325.8156 32.565624 326.22186 31.45625ZM320.4406 28.6125L326.2375 28.6125Q326.1281 27.315624 325.58124 26.659374Q324.7375 25.64375 323.39374 25.64375Q322.1906 25.64375 321.3625 26.45625Q320.53436 27.253124 320.4406 28.6125ZM330.1125 34.8L330.1125 24.425L331.70624 24.425L331.70624 25.909374Q332.84686 24.190624 335.0031 24.190624Q335.9406 24.190624 336.72186 24.534374Q337.51874 24.8625 337.90936 25.409374Q338.3 25.95625 338.45624 26.70625Q338.55 27.20625 338.55 28.425L338.55 34.8L336.78436 34.8L336.78436 28.4875Q336.78436 27.409374 336.58124 26.878124Q336.3781 26.346874 335.84686 26.034374Q335.33124 25.721874 334.6281 25.721874Q333.5031 25.721874 332.6906 26.440624Q331.8781 27.14375 331.8781 29.128124L331.8781 34.8L330.1125 34.8ZM343.95624 33.221874L344.20624 34.784374Q343.47186 34.940624 342.8781 34.940624Q341.925 34.940624 341.39374 34.64375Q340.8781 34.33125 340.65936 33.846874Q340.4406 33.346874 340.4406 31.76875L340.4406 25.8L339.15936 25.8L339.15936 24.425L340.4406 24.425L340.4406 21.8625L342.1906 20.8L342.1906 24.425L343.95624 24.425L343.95624 25.8L342.1906 25.8L342.1906 31.8625Q342.1906 32.6125 342.28436 32.83125Q342.3781 33.034374 342.58124 33.175Q342.8 33.3 343.1906 33.3Q343.47186 33.3 343.95624 33.221874ZM352.89374 33.51875Q351.90936 34.346874 351.0031 34.690624Q350.09686 35.034374 349.0656 35.034374Q347.3625 35.034374 346.4406 34.20625Q345.51874 33.3625 345.51874 32.065624Q345.51874 31.3 345.8625 30.675Q346.22186 30.05 346.78436 29.675Q347.34686 29.284374 348.05 29.08125Q348.5656 28.95625 349.6125 28.815624Q351.7375 28.565624 352.7375 28.221874Q352.7531 27.8625 352.7531 27.753124Q352.7531 26.690624 352.2531 26.2375Q351.58124 25.64375 350.2531 25.64375Q349.0031 25.64375 348.40936 26.08125Q347.83124 26.51875 347.55 27.628124L345.83124 27.39375Q346.0656 26.284374 346.59686 25.6125Q347.1281 24.925 348.14374 24.565624Q349.15936 24.190624 350.5031 24.190624Q351.83124 24.190624 352.65936 24.503124Q353.4875 24.815624 353.8781 25.3Q354.26874 25.76875 354.425 26.4875Q354.51874 26.940624 354.51874 28.1125L354.51874 30.45625Q354.51874 32.909374 354.6281 33.565624Q354.7375 34.20625 355.08124 34.8L353.2375 34.8Q352.97186 34.253124 352.89374 33.51875ZM352.7375 29.596874Q351.78436 29.9875 349.8625 30.253124Q348.78436 30.409374 348.33124 30.6125Q347.89374 30.8 347.64374 31.175Q347.39374 31.55 347.39374 32.01875Q347.39374 32.721874 347.925 33.190624Q348.45624 33.659374 349.4875 33.659374Q350.5031 33.659374 351.28436 33.221874Q352.08124 32.76875 352.45624 32.003124Q352.7375 31.39375 352.7375 30.2375L352.7375 29.596874ZM357.08124 34.8L357.08124 20.4875L358.83124 20.4875L358.83124 34.8L357.08124 34.8ZM370.95624 33.221874L371.20624 34.784374Q370.47186 34.940624 369.8781 34.940624Q368.925 34.940624 368.39374 34.64375Q367.8781 34.33125 367.65936 33.846874Q367.4406 33.346874 367.4406 31.76875L367.4406 25.8L366.15936 25.8L366.15936 24.425L367.4406 24.425L367.4406 21.8625L369.1906 20.8L369.1906 24.425L370.95624 24.425L370.95624 25.8L369.1906 25.8L369.1906 31.8625Q369.1906 32.6125 369.28436 32.83125Q369.3781 33.034374 369.58124 33.175Q369.8 33.3 370.1906 33.3Q370.47186 33.3 370.95624 33.221874ZM373.03436 38.8L372.84686 37.14375Q373.425 37.3 373.84686 37.3Q374.4406 37.3 374.78436 37.096874Q375.14374 36.909374 375.3625 36.565624Q375.53436 36.3 375.90936 35.253124Q375.95624 35.096874 376.0656 34.815624L372.1281 24.425L374.01874 24.425L376.175 30.440624Q376.59686 31.58125 376.925 32.83125Q377.2375 31.628124 377.64374 30.471874L379.8625 24.425L381.6281 24.425L377.675 34.971874Q377.05 36.690624 376.6906 37.33125Q376.22186 38.20625 375.6125 38.596874Q375.01874 39.003124 374.175 39.003124Q373.65936 39.003124 373.03436 38.8ZM383.1125 38.76875L383.1125 24.425L384.72186 24.425L384.72186 25.76875Q385.28436 24.9875 385.9875 24.596874Q386.70624 24.190624 387.72186 24.190624Q389.05 24.190624 390.0656 24.878124Q391.08124 25.565624 391.59686 26.815624Q392.1281 28.05 392.1281 29.534374Q392.1281 31.128124 391.55 32.409374Q390.9875 33.675 389.89374 34.3625Q388.8 35.034374 387.59686 35.034374Q386.72186 35.034374 386.01874 34.659374Q385.33124 34.284374 384.8781 33.721874L384.8781 38.76875L383.1125 38.76875ZM384.70624 29.675Q384.70624 31.675 385.51874 32.628124Q386.33124 33.58125 387.4875 33.58125Q388.65936 33.58125 389.4875 32.596874Q390.33124 31.6125 390.33124 29.51875Q390.33124 27.55 389.5031 26.565624Q388.6906 25.565624 387.5656 25.565624Q386.4406 25.565624 385.5656 26.628124Q384.70624 27.675 384.70624 29.675ZM401.22186 31.45625L403.03436 31.690624Q402.6125 33.26875 401.4406 34.159374Q400.28436 35.034374 398.47186 35.034374Q396.20624 35.034374 394.8625 33.64375Q393.53436 32.2375 393.53436 29.70625Q393.53436 27.08125 394.8781 25.64375Q396.22186 24.190624 398.3781 24.190624Q400.45624 24.190624 401.76874 25.6125Q403.09686 27.01875 403.09686 29.596874Q403.09686 29.753124 403.08124 30.065624L395.34686 30.065624Q395.4406 31.76875 396.3156 32.675Q397.1906 33.58125 398.4875 33.58125Q399.45624 33.58125 400.1281 33.08125Q400.8156 32.565624 401.22186 31.45625ZM395.4406 28.6125L401.2375 28.6125Q401.1281 27.315624 400.58124 26.659374Q399.7375 25.64375 398.39374 25.64375Q397.1906 25.64375 396.3625 26.45625Q395.53436 27.253124 395.4406 28.6125Z" fill-rule="nonzero"/></svg>